<?xml version="1.0" encoding="UTF-8"?>
<svg width="126px" height="91px" viewBox="0 0 126 91" version="1.1" xmlns="http://www.w3.org/2000/svg" xmlns:xlink="http://www.w3.org/1999/xlink">
    <!-- Generator: Sketch 52.6 (67491) - http://www.bohemiancoding.com/sketch -->
    <title>Shape</title>
    <desc>Created with Sketch.</desc>
    <g id="Page-2" stroke="none" stroke-width="1" fill="none" fill-rule="evenodd">
        <g id="Product-page_new-Copy" transform="translate(-1075.000000, -233.000000)" fill="#5E5896">
            <g id="Recommended-Age" transform="translate(-65.000000, -51.000000)">
                <path d="M1264.66439,348.186656 C1242.77973,356.533381 1226.73098,357.622085 1204.48217,347.823754 C1188.06867,340.566325 1173.84364,329.315797 1161.80708,316.97716 C1164.72503,314.799753 1167.64299,312.622346 1170.92569,310.444939 C1173.84364,308.26694 1173.84364,304.637929 1170.92569,302.460522 C1162.90131,297.017005 1153.41796,292.662785 1143.93461,290.121884 C1141.3814,289.396082 1138.82878,290.847686 1138.0987,293.387994 C1136.27497,299.920807 1135.54549,306.089533 1136.64032,312.984654 C1137.3698,317.702369 1139.92301,325.323885 1144.66469,327.500699 C1146.85316,328.589402 1150.5006,327.500699 1150.13586,324.234589 C1151.95958,323.145886 1153.7833,322.41949 1155.60702,321.33138 C1167.27884,338.387732 1186.24555,351.452173 1205.21225,358.710195 C1223.44947,365.968217 1253.35851,372.137536 1267.94828,354.355382 C1270.5003,351.815667 1268.67658,346.734458 1264.66439,348.186656 Z M1146.21526,311.712409 C1145.14606,307.816576 1145.50246,303.920743 1146.21526,300.379076 C1151.56184,302.149909 1156.55085,304.629076 1161.54045,307.462409 C1157.62005,311.357664 1152.98685,314.191576 1148.35366,317.379076 C1147.64086,314.899909 1146.57166,313.482664 1146.21526,311.712409 Z" id="Shape" transform="translate(1202.625784, 327.935049) rotate(-171.000000) translate(-1202.625784, -327.935049) "></path>
            </g>
        </g>
    </g>
</svg>