<?xml version="1.0" encoding="UTF-8"?>
<svg width="177px" height="95px" viewBox="0 0 177 95" version="1.1" xmlns="http://www.w3.org/2000/svg" xmlns:xlink="http://www.w3.org/1999/xlink">
    <!-- Generator: Sketch 52.6 (67491) - http://www.bohemiancoding.com/sketch -->
    <title>Shape</title>
    <desc>Created with Sketch.</desc>
    <g id="Page-2" stroke="none" stroke-width="1" fill="none" fill-rule="evenodd">
        <g id="Product-page_new-Copy" transform="translate(-390.000000, -222.000000)" fill="#5E5896">
            <g id="Recommended-Age" transform="translate(-65.000000, -51.000000)">
                <path d="M612.584253,286.985184 C607.824097,277.865167 600.134615,270.204353 590.981067,265.461945 C588.417907,264.002742 584.756248,265.097144 584.023917,268.38035 C583.290987,270.933955 582.192489,273.487559 581.09459,275.676363 C551.800726,262.178739 517.014374,276.770765 495.044425,297.199602 C470.145148,320.546845 457.69551,358.486114 467.581988,391.318173 C468.681083,395.695781 474.905304,393.871182 474.173571,389.493574 C469.413415,358.850318 477.835229,330.031066 498.340515,306.683823 C520.676631,281.512578 547.406736,279.323774 578.164665,282.60698 C577.432333,284.795784 577.066168,286.984588 577.066168,289.173392 C577.066168,290.997395 577.799098,292.091797 579.263761,292.456598 C579.263761,293.186199 579.263761,294.280601 579.629328,295.010202 C581.826323,299.752611 587.319409,299.023009 591.712801,298.293408 C598.303785,297.563807 605.260936,296.104604 611.119589,293.186199 C613.316584,292.092393 613.68275,288.808591 612.584253,286.985184 Z M585.796484,288.225004 C585.435373,288.225004 585.07308,288.225004 584.350267,288.225004 C585.073671,283.891671 587.605586,279.558338 590.13691,275.225004 C594.477926,278.113893 598.094947,281.725004 601.350267,286.058338 C598.094947,287.141671 594.839037,287.502782 591.584309,287.863893 C589.775207,288.225004 587.604995,288.225004 585.796484,288.225004 Z" id="Shape" transform="translate(538.684091, 329.327792) scale(1, -1) rotate(-126.000000) translate(-538.684091, -329.327792) "></path>
            </g>
        </g>
    </g>
</svg>