<?xml version="1.0" encoding="UTF-8"?>
<svg width="522px" height="527px" viewBox="0 0 522 527" version="1.1" xmlns="http://www.w3.org/2000/svg" xmlns:xlink="http://www.w3.org/1999/xlink">
    <!-- Generator: Sketch 52.6 (67491) - http://www.bohemiancoding.com/sketch -->
    <title>Brand Copy</title>
    <desc>Created with Sketch.</desc>
    <g id="Page-2" stroke="none" stroke-width="1" fill="none" fill-rule="evenodd" opacity="0.300000012">
        <g id="Product-page_new-Copy" transform="translate(-574.000000, -160.000000)" fill="#F9DE2E">
            <g id="Recommended-Age" transform="translate(-65.000000, -51.000000)">
                <g id="Brand-Copy" transform="translate(638.000000, 211.000000)">
                    <g id="Pattern" transform="translate(0.625000, 0.625000)">
                        <path d="M309.659079,521.823812 C295.432948,524.50348 280.81101,526.030733 265.864248,526.285477 L0.604934722,258.806369 C0.857576389,243.73521 2.36019278,228.99158 5.02977306,214.659179 L309.659079,521.823812 Z M381.350363,496.897688 C370.552939,502.548159 359.321213,507.47079 347.704508,511.569747 L15.1907803,176.287406 C19.2667325,164.57402 24.1367014,153.250028 29.7525647,142.361528 L381.350363,496.897688 Z M438.035935,456.834898 C429.630186,464.643418 420.695092,471.869665 411.328101,478.513639 L47.9692319,112.130656 C54.5583672,102.685707 61.7382028,93.6883807 69.4822714,85.2138864 L438.035935,456.834898 Z M481.860842,403.823818 C475.691574,413.656949 468.934011,423.054588 461.561686,431.953656 L94.1629561,61.4971903 C102.965714,54.0647216 112.308643,47.2375739 122.048581,41.0181733 L481.860842,403.823818 Z M511.828956,336.822423 C508.317237,349.031955 503.952552,360.865435 498.793849,372.275554 L153.340056,23.9466648 C164.643966,18.7450284 176.379773,14.344017 188.48973,10.803071 L511.828956,336.822423 Z M261.347978,0.322161932 C265.881091,0.322161932 270.390143,0.44346875 274.863104,0.673951705 L521.868455,249.735045 C522.109066,254.245233 522.217341,258.791813 522.217341,263.363866 C522.217341,274.602943 521.435355,285.661273 520.089136,296.537642 L228.458845,2.48021023 C239.23341,1.11065625 250.200465,0.322161932 261.347978,0.322161932 Z M332.675938,10.3627273 C419.388574,35.1711847 487.665586,104.017656 512.269275,191.438628 L332.675938,10.3627273 Z M213.283502,521.865057 C186.996738,516.930295 162.105519,508.042145 139.234229,495.796222 L30.8292994,386.501205 C18.6832506,363.438352 9.88169611,338.327841 4.98646306,311.822301 L213.283502,521.865057 Z" id="Fill-1142"></path>
                    </g>
                </g>
            </g>
        </g>
    </g>
</svg>