<?xml version="1.0" encoding="UTF-8"?>
<svg width="27px" height="25px" viewBox="0 0 27 25" version="1.1" xmlns="http://www.w3.org/2000/svg" xmlns:xlink="http://www.w3.org/1999/xlink">
    <!-- Generator: Sketch 52.6 (67491) - http://www.bohemiancoding.com/sketch -->
    <title>icon</title>
    <desc>Created with Sketch.</desc>
    <g id="Symbols" stroke="none" stroke-width="1" fill="none" fill-rule="evenodd" opacity="0.3">
        <g id="MOL/Sell" transform="translate(-1.000000, -1.000000)" fill="#FFFFFF" fill-rule="nonzero">
            <g id="icon">
                <g transform="translate(0.000000, 1.000000)">
                    <path d="M2,-9.49354527e-17 C1.63936408,-0.00510028955 1.30391864,0.184375296 1.12211228,0.49587285 C0.940305922,0.807370403 0.940305922,1.1926296 1.12211228,1.50412715 C1.30391864,1.8156247 1.63936408,2.00510029 2,2 L3.8789062,2 C4.1048086,2 4.2933102,2.1414634 4.3574219,2.359375 L8.6191406,16.847656 C8.993174,18.11937 10.169409,19 11.496094,19 L22.472656,19 C23.821072,19 25.011657,18.088693 25.367188,16.789062 L27.964844,7.2636719 C28.0470173,6.9628958 27.9842085,6.6410034 27.7949909,6.39318205 C27.6057733,6.1453607 27.3117992,5.99996864 27,6 L7.5136719,6 L6.2773438,1.7949219 C6.27669273,1.79492126 6.27604167,1.79492126 6.2753906,1.7949219 C5.9634991,0.7348335 4.9830041,-9.49354527e-17 3.8789062,-9.49354527e-17 L2,-9.49354527e-17 Z M12,21 C10.8954305,21 10,21.8954305 10,23 C10,24.1045695 10.8954305,25 12,25 C13.1045695,25 14,24.1045695 14,23 C14,21.8954305 13.1045695,21 12,21 Z M22,21 C20.8954305,21 20,21.8954305 20,23 C20,24.1045695 20.8954305,25 22,25 C23.1045695,25 24,24.1045695 24,23 C24,21.8954305 23.1045695,21 22,21 Z" id="Shape"></path>
                </g>
            </g>
        </g>
    </g>
</svg>