<?xml version="1.0" encoding="UTF-8"?>
<svg width="73px" height="77px" viewBox="0 0 73 77" version="1.1" xmlns="http://www.w3.org/2000/svg" xmlns:xlink="http://www.w3.org/1999/xlink">
    <!-- Generator: Sketch 52.6 (67491) - http://www.bohemiancoding.com/sketch -->
    <title>Group 11</title>
    <desc>Created with Sketch.</desc>
    <g id="Page-1" stroke="none" stroke-width="1" fill="none" fill-rule="evenodd">
        <g id="3_Cart-4" transform="translate(-1060.000000, -1226.000000)">
            <g id="Group-8" transform="translate(1030.000000, 247.000000)">
                <g id="Group-2" transform="translate(30.000000, 979.000000)">
                    <g id="Group-11">
                        <g id="flaticon1543344972-svg" transform="translate(36.500000, 38.500000) rotate(-90.000000) translate(-36.500000, -38.500000) translate(-2.000000, 2.000000)">
                            <g id="Oval-2" transform="translate(25.000000, 11.000000)" fill="#F13D7C">
                                <circle id="Oval" cx="3" cy="3" r="3"></circle>
                            </g>
                            <g id="Group-10" transform="translate(48.000000, 2.000000)">
                                <circle id="Oval" fill="#BDD377" cx="4" cy="4" r="3"></circle>
                                <path d="M4,8 C6.2056,8 8,6.2056 8,4 C8,1.7944 6.2056,0 4,0 C1.7944,0 1.8189894e-12,1.7944 1.8189894e-12,4 C1.8189894e-12,6.2056 1.7944,8 4,8 Z M4,2.66666667 C4.7352,2.66666667 5.33333333,3.2648 5.33333333,4 C5.33333333,4.7352 4.7352,5.33333333 4,5.33333333 C3.2648,5.33333333 2.66666667,4.7352 2.66666667,4 C2.66666667,3.2648 3.2648,2.66666667 4,2.66666667 Z" id="Shape" fill="#000000" fill-rule="nonzero"></path>
                            </g>
                            <circle id="Oval" fill="#FF916C" cx="63" cy="33" r="3"></circle>
                            <path d="M10.8642509,40.8820842 C10.5246816,40.1289645 9.63808669,39.7931481 8.88360473,40.1321043 C8.15263948,40.4604448 7.81411868,41.3016304 8.1026103,42.0386023 C8.32938927,42.6311403 8.89633671,43 9.50162986,43 C9.66579746,43 9.83266125,42.9727878 9.99652928,42.9156721 C10.7772241,42.6429521 11.1888415,41.7899547 10.9154784,41.0105198 C10.9012486,40.9700005 10.8819259,40.9212578 10.8642509,40.8820842 Z" id="Path" fill="#000000"></path>
                            <path d="M2.86425094,27.8820842 C2.52468163,27.1289645 1.63808669,26.7931481 0.883604728,27.1321043 C0.152639477,27.4604448 -0.185881316,28.3016304 0.102610298,29.0386023 C0.329389271,29.6311403 0.896336705,30 1.50162986,30 C1.66579746,30 1.83266125,29.9727878 1.99652928,29.9156721 C2.77722414,29.6429521 3.18884145,28.7899547 2.91547842,28.0105198 C2.90124857,27.9700005 2.88192592,27.9212578 2.86425094,27.8820842 Z" id="Path-Copy" fill="#000000"></path>
                            <path d="M75.925492,17.0777522 C75.8844608,17.0664562 75.8427046,17.0553088 75.8005134,17.0444587 C75.0235292,16.8458867 74.2368309,17.3311692 74.0432736,18.1276865 C73.8498612,18.9242038 74.3229531,19.730828 75.0999373,19.9291027 L75.1740255,19.9487221 C75.299874,19.9833532 75.4263025,20 75.5507012,20 C76.1906729,20 76.7764195,19.5622796 76.9501137,18.8984905 C77.1575898,18.105689 76.6989965,17.2905928 75.925492,17.0777522 Z" id="Path" fill="#000000"></path>
                            <path d="M11,16 L12,16 L12,17 C12,17.5522 12.4477,18 13,18 C13.5523,18 14,17.5522 14,17 L14,16 L15,16 C15.5523,16 16,15.5522 16,15 C16,14.4478 15.5523,14 15,14 L14,14 L14,13 C14,12.4478 13.5523,12 13,12 C12.4477,12 12,12.4478 12,13 L12,14 L11,14 C10.4477,14 10,14.4478 10,15 C10,15.5523 10.4477,16 11,16 Z" id="Path" fill="#000000"></path>
                            <path d="M43,71.0001 L44.0001,71.0001 L44.0001,72 C44.0001,72.5523 44.4479,73 45.0001,73 C45.5524,73 46.0001,72.5523 46.0001,72 L46.0001,71.0001 L47,71.0001 C47.5522,71.0001 48,70.5523 48,70.0001 C48,69.4479 47.5522,69.0001 47,69.0001 L46.0001,69.0001 L46.0001,68 C46.0001,67.4478 45.5524,67 45.0001,67 C44.4479,67 44.0001,67.4478 44.0001,68 L44.0001,69.0001 L43,69.0001 C42.4478,69.0001 42,69.4479 42,70.0001 C42,70.5524 42.4478,71.0001 43,71.0001 Z" id="Path" fill="#000000"></path>
                            <path d="M15.6666667,60.6666667 L14.3333333,60.6666667 L14.3333333,59.3333333 C14.3333333,58.5970667 13.7362667,58 13,58 C12.2637333,58 11.6666667,58.5970667 11.6666667,59.3333333 L11.6666667,60.6666667 L10.3333333,60.6666667 C9.59706667,60.6666667 9,61.2637333 9,62 C9,62.7362667 9.59706667,63.3333333 10.3333333,63.3333333 L11.6666667,63.3333333 L11.6666667,64.6666667 C11.6666667,65.4029333 12.2637333,66 13,66 C13.7362667,66 14.3333333,65.4029333 14.3333333,64.6666667 L14.3333333,63.3333333 L15.6666667,63.3333333 C16.4029333,63.3333333 17,62.7362667 17,62 C17,61.2637333 16.4030667,60.6666667 15.6666667,60.6666667 Z" id="Path" fill="#000000"></path>
                            <path d="M28,61 C25.7944,61 24,62.7944 24,65 C24,67.2056 25.7944,69 28,69 C30.2056,69 32,67.2056 32,65 C32,62.7944 30.2054667,61 28,61 Z M28,66.3333333 C27.2648,66.3333333 26.6666667,65.7352 26.6666667,65 C26.6666667,64.2648 27.2648,63.6666667 28,63.6666667 C28.7352,63.6666667 29.3333333,64.2648 29.3333333,65 C29.3333333,65.7352 28.7352,66.3333333 28,66.3333333 Z" id="Shape" fill="#000000" fill-rule="nonzero"></path>
                            <path d="M28,18 C30.2056,18 32,16.2056 32,14 C32,11.7944 30.2056,10 28,10 C25.7944,10 24,11.7944 24,14 C24,16.2056 25.7944,18 28,18 Z M28,12.6666667 C28.7352,12.6666667 29.3333333,13.2648 29.3333333,14 C29.3333333,14.7352 28.7352,15.3333333 28,15.3333333 C27.2648,15.3333333 26.6666667,14.7352 26.6666667,14 C26.6666667,13.2649333 27.2648,12.6666667 28,12.6666667 Z" id="Shape" fill="#000000" fill-rule="nonzero"></path>
                            <path d="M62,45.5 C62,44.6738 61.3262,44 60.5,44 C59.6738,44 59,44.6738 59,45.5 C59,46.3262 59.6738,47 60.5,47 C61.3262,47 62,46.32605 62,45.5 Z" id="Path" fill="#000000"></path>
                            <path d="M37.5,3 C38.3262,3 39,2.3262 39,1.5 C39,0.6738 38.3262,0 37.5,0 C36.6738,0 36,0.6738 36,1.5 C36.00015,2.32605 36.67395,3 37.5,3 Z" id="Path" fill="#000000"></path>
                            <path d="M67.500075,52 C66.6739163,52 66,52.6739163 66,53.500075 C66,54.3262337 66.6739163,55 67.500075,55 C68.3260837,55 69,54.3262337 69,53.500075 C69,52.6739163 68.3260837,52 67.500075,52 Z" id="Path" fill="#000000"></path>
                            <path d="M19.5,9 C20.3262,9 21,8.3262 21,7.5 C21,6.6738 20.3262,6 19.5,6 C18.6738,6 18,6.6738 18,7.5 C18,8.3262 18.6738,9 19.5,9 Z" id="Path" fill="#000000"></path>
                        </g>
                        <path d="M66.3619974,12.003527 C50.5569132,21.267064 39.1650975,32.9664179 34.5398225,38.1657554 L22.6639253,29.2704626 C22.349449,29.0542459 15.8302493,34.5880437 16.0033879,34.7603414 L37.6315839,55.7840433 C37.7905887,55.9563411 38.0096621,56.034044 38.2464027,56.034044 C38.288804,56.034044 38.3559394,56.034044 38.4124745,56.0205304 C38.6951498,55.9597195 38.9354238,55.7772866 39.0414271,55.5070156 C42.5254005,46.9901021 54.0302863,29.1589759 68.7223364,16.2265106 C68.9838111,15.9900236 69.0756805,15.618401 68.9308094,15.2974542 C68.927276,15.2940758 66.5810708,11.8751483 66.3619974,12.003527 Z" id="Path" stroke="#000000" stroke-width="3" fill="#7EC297"></path>
                    </g>
                </g>
            </g>
        </g>
    </g>
</svg>