<?xml version="1.0" encoding="UTF-8"?>
<svg width="14px" height="14px" viewBox="0 0 14 14" version="1.1" xmlns="http://www.w3.org/2000/svg" xmlns:xlink="http://www.w3.org/1999/xlink">
    <!-- Generator: Sketch 52.6 (67491) - http://www.bohemiancoding.com/sketch -->
    <title>Combined Shape</title>
    <desc>Created with Sketch.</desc>
    <g id="Symbols" stroke="none" stroke-width="1" fill="none" fill-rule="evenodd">
        <g id="Combined-Shape" transform="translate(-6.000000, -6.000000)" fill="#D0021B" fill-rule="nonzero">
            <path d="M11,11 L11,6.25 C11,5.00735931 11.8954305,4 13,4 C14.1045695,4 15,5.00735931 15,6.25 L15,11 L19.75,11 C20.9926407,11 22,11.8954305 22,13 C22,14.1045695 20.9926407,15 19.75,15 L15,15 L15,19.75 C15,20.9926407 14.1045695,22 13,22 C11.8954305,22 11,20.9926407 11,19.75 L11,15 L6.25,15 C5.00735931,15 4,14.1045695 4,13 C4,11.8954305 5.00735931,11 6.25,11 L11,11 Z" transform="translate(13.000000, 13.000000) rotate(-45.000000) translate(-13.000000, -13.000000) "></path>
        </g>
    </g>
</svg>