<?xml version="1.0" encoding="UTF-8"?>
<svg width="455px" height="146px" viewBox="0 0 455 146" version="1.1" xmlns="http://www.w3.org/2000/svg" xmlns:xlink="http://www.w3.org/1999/xlink">
    <!-- Generator: Sketch 52.6 (67491) - http://www.bohemiancoding.com/sketch -->
    <title>ill</title>
    <desc>Created with Sketch.</desc>
    <g id="Symbols" stroke="none" stroke-width="1" fill="none" fill-rule="evenodd">
        <g id="Pop-up_conform" transform="translate(-159.000000, -222.000000)">
            <g id="Pop-up">
                <g id="ill" transform="translate(159.000000, 224.000000)">
                    <path d="M398,15 L440,25.9349112 L439.166945,43 L433.318865,28.635503 L398,15 Z M374.493011,7.20032928 L406.922976,43.536592 C407.509517,44.1984857 408.468544,44.368202 409.242171,43.9439112 L420.892081,37.6304643 L439.147315,50.2064432 C440.204099,51.6660035 442.491271,50.9871382 442.585657,49.1881453 L443.797503,25.2072302 L453.997917,19.6744783 C455.604161,18.8089251 455.191223,16.3819818 453.387779,16.0934641 L376.203754,4.02663421 C374.43402,3.73811648 373.298019,5.8595704 374.493011,7.20032928 Z" id="Fill-587" fill="#534E83" transform="translate(414.500000, 27.500000) scale(-1, 1) translate(-414.500000, -27.500000) "></path>
                    <path d="M434.097,89.257259 C434.097,85.1382229 429.929122,81.791506 424.788128,81.791506 C422.41715,81.791506 420.253037,82.5025301 418.609142,83.6793976 C416.839172,78.6899699 410.640601,75 403.263274,75 C396.338845,75 390.454854,78.2486446 388.295636,82.784488 C387.167066,82.465753 385.951588,82.2941265 384.6847,82.2941265 C378.783573,82.2941265 374,85.9963554 374,90.5812349 C374,94.994488 378.456752,98.5986446 384.072677,98.8438253 C384.072677,98.8560843 384.072677,98.8560843 384.072677,98.8683434 C384.072677,103.673886 389.998285,107.56 397.310737,107.56 C402.534967,107.56 407.051698,105.574036 409.204795,102.680904 C410.913564,104.262319 413.655427,105.292078 416.746144,105.292078 C421.928756,105.292078 426.129683,102.411205 426.129683,98.8683434 C426.129683,98.0960241 425.933835,97.3604819 425.573966,96.6862349 C430.346522,96.3675 434.097,93.1556325 434.097,89.257259" id="Fill-548" fill="#534E83" opacity="0.15"></path>
                    <path d="M87.097,48.3875301 C87.097,42.4974096 81.0566048,37.7116867 73.605897,37.7116867 C70.1697015,37.7116867 67.0333083,38.7284337 64.6508558,40.4113253 C62.0856836,33.2765663 53.1022588,28 42.4104931,28 C32.3750993,28 23.8475868,32.6454819 20.7182896,39.1316265 C19.0826818,38.6758434 17.3211216,38.4304217 15.4850543,38.4304217 C6.93270619,38.4304217 0,43.7245181 0,50.2807831 C0,56.5916265 6.45905406,61.7454819 14.5980653,62.0960843 C14.5980653,62.1136145 14.5980653,62.1136145 14.5980653,62.1311446 C14.5980653,69.0029518 23.185893,74.56 33.7836379,74.56 C41.3549761,74.56 47.9009551,71.7201205 51.0213825,67.583012 C53.4978559,69.8443976 57.4715667,71.3169277 61.9508612,71.3169277 C69.4618843,71.3169277 75.5501769,67.1973494 75.5501769,62.1311446 C75.5501769,61.026747 75.2663404,59.9749398 74.7447909,59.0107831 C81.6615313,58.555 87.097,53.9621084 87.097,48.3875301" id="Fill-548-Copy" fill="#534E83" opacity="0.15"></path>
                    <path d="M375.073057,50.1139362 C281.684606,81.4472695 224.382902,82.4472695 203.167945,53.1139362 C171.345511,9.11393621 246.507925,-17.3567598 260.673764,13.1139362 C274.839603,43.5846322 269.220457,100.113936 190.199494,129.113936 C137.518852,148.44727 77.1190203,144.44727 9,117.113936" id="Path-4" stroke="#534E83" stroke-width="4" stroke-linecap="round" stroke-linejoin="round" stroke-dasharray="5,10"></path>
                </g>
            </g>
        </g>
    </g>
</svg>