<?xml version="1.0" encoding="UTF-8"?>
<svg width="64px" height="66px" viewBox="0 0 64 66" version="1.1" xmlns="http://www.w3.org/2000/svg" xmlns:xlink="http://www.w3.org/1999/xlink">
    <!-- Generator: Sketch 52.6 (67491) - http://www.bohemiancoding.com/sketch -->
    <title>Group 15</title>
    <desc>Created with Sketch.</desc>
    <g id="Symbols" stroke="none" stroke-width="1" fill="none" fill-rule="evenodd">
        <g id="FUTER" transform="translate(-451.000000, -516.000000)">
            <g id="Collum">
                <g transform="translate(361.000000, 95.000000)">
                    <g id="Icon/Comlex/Facebook" transform="translate(82.000000, 413.000000)">
                        <g id="Group-15" transform="translate(-3.571429, -18.857143)">
                            <path d="M66.748072,44.1063179 L70.8752234,52.3530894 C76.9750395,64.5415906 72.039185,79.3672011 59.8506838,85.4670173 C56.4218203,87.1830147 52.6402761,88.0764453 48.8059896,88.0764453 L40.6798715,88.0764453 C27.050223,88.0764453 16.0012098,77.0274321 16.0012098,63.3977835 C16.0012098,59.5634971 16.8946404,55.7819529 18.6106378,52.3530894 L22.7377892,44.1063179 C28.8198906,31.9532139 43.6024453,27.0316939 55.7555493,33.1137952 C60.5113075,35.4938459 64.3680213,39.3505597 66.748072,44.1063179 Z" id="Triangle" fill="#5E5896" opacity="0.377255394"></path>
                            <path d="M65.651069,38.5588289 L75.03003,57.3193126 C80.3121019,67.8848989 76.0289671,80.7319642 65.4633808,86.0140361 C62.4963427,87.4973526 59.2249543,88.2702107 55.9077957,88.2715216 L37.1350366,88.2789401 C25.3226755,88.283608 15.7430806,78.7115814 15.7384127,66.8992203 C15.7370982,63.5729234 16.5116226,60.2921652 18.0004362,57.3176591 L27.3942343,38.5497569 C32.6813165,27.9866769 45.5304117,23.7096356 56.0934917,28.9967177 C60.2294321,31.0668579 63.5828906,34.4219072 65.651069,38.5588289 Z" id="Triangle" stroke="#979797" opacity="0.300000012" transform="translate(46.515307, 57.504478) rotate(30.000000) translate(-46.515307, -57.504478) "></path>
                            <path d="M66.8820981,41.3502223 L73.3297551,54.2590813 C79.0545863,65.7207702 74.4039443,79.6531974 62.9422554,85.3780286 C59.7261346,86.9844017 56.1806809,87.8213241 52.585703,87.8227454 L39.6801845,87.8278476 C26.8683158,87.8329129 16.478138,77.4509474 16.4730728,64.6390788 C16.4716476,61.034186 17.3103759,57.4785664 18.9227091,54.2543401 L25.3805706,41.3403788 C31.1108382,29.8814069 45.04547,25.2373745 56.5044419,30.9676421 C60.9963494,33.2139023 64.637969,36.8572498 66.8820981,41.3502223 Z" id="Triangle" fill="#5E5896" transform="translate(46.126317, 58.170386) rotate(60.000000) translate(-46.126317, -58.170386) "></path>
                        </g>
                        <g id="Icon/facebook" transform="translate(28.000000, 28.000000)" fill="#FFFFFF">
                            <g id="flaticon1543506296-svg" transform="translate(6.000000, 0.000000)">
                                <path d="M12.3931546,0.00494845361 L9.30903093,0 C5.84412371,0 3.60494845,2.29731959 3.60494845,5.85303093 L3.60494845,8.5516701 L0.504,8.5516701 C0.236041237,8.5516701 0.0190515464,8.76890722 0.0190515464,9.03686598 L0.0190515464,12.9468866 C0.0190515464,13.2148454 0.23628866,13.4318351 0.504,13.4318351 L3.60494845,13.4318351 L3.60494845,23.2980619 C3.60494845,23.5660206 3.82193814,23.7830103 4.08989691,23.7830103 L8.13575258,23.7830103 C8.40371134,23.7830103 8.62070103,23.5657732 8.62070103,23.2980619 L8.62070103,13.4318351 L12.246433,13.4318351 C12.5143918,13.4318351 12.7313814,13.2148454 12.7313814,12.9468866 L12.732866,9.03686598 C12.732866,8.90820619 12.6816495,8.78498969 12.5908454,8.69393814 C12.5000412,8.6028866 12.3763299,8.5516701 12.2476701,8.5516701 L8.62070103,8.5516701 L8.62070103,6.264 C8.62070103,5.16445361 8.88272165,4.60626804 10.3150515,4.60626804 L12.3926598,4.60552577 C12.6603711,4.60552577 12.8773608,4.38828866 12.8773608,4.12057732 L12.8773608,0.489896907 C12.8773608,0.22243299 12.6606186,0.00544329897 12.3931546,0.00494845361 Z" id="Path"></path>
                            </g>
                        </g>
                    </g>
                </g>
            </g>
        </g>
    </g>
</svg>