<?xml version="1.0" encoding="UTF-8"?>
<svg width="14px" height="9px" viewBox="0 0 14 9" version="1.1" xmlns="http://www.w3.org/2000/svg" xmlns:xlink="http://www.w3.org/1999/xlink">
    <!-- Generator: Sketch 52.6 (67491) - http://www.bohemiancoding.com/sketch -->
    <title>Group 10</title>
    <desc>Created with Sketch.</desc>
    <g id="Page-1" stroke="none" stroke-width="1" fill="none" fill-rule="evenodd">
        <g id="1_View-cart" transform="translate(-457.000000, -746.000000)" fill="#FFFFFF">
            <g id="Group-8" transform="translate(90.000000, 725.000000)">
                <g id="Group-7" transform="translate(148.000000, 0.000000)">
                    <g id="Group-5" transform="translate(226.500000, 25.500000) rotate(90.000000) translate(-226.500000, -25.500000) translate(222.000000, 18.000000)">
                        <g id="Group-10">
                            <path d="M0.75,3.70057773 L9.5,3.70057773 L9.5,6.20057773 L0.75,6.20057773 C0.0596440627,6.20057773 -0.5,5.64093367 -0.5,4.95057773 L-0.5,4.95057773 C-0.5,4.2602218 0.0596440627,3.70057773 0.75,3.70057773 Z" id="Rectangle-8" transform="translate(4.500000, 4.950578) rotate(45.000000) translate(-4.500000, -4.950578) "></path>
                            <path d="M0.75,9 L9.5,9 L9.5,11.5 L0.75,11.5 C0.0596440627,11.5 -0.5,10.9403559 -0.5,10.25 L-0.5,10.25 C-0.5,9.55964406 0.0596440627,9 0.75,9 Z" id="Rectangle-8-Copy" transform="translate(4.500000, 10.250000) rotate(-45.000000) translate(-4.500000, -10.250000) "></path>
                        </g>
                    </g>
                </g>
            </g>
        </g>
    </g>
</svg>