<?xml version="1.0" encoding="UTF-8"?>
<svg width="58px" height="58px" viewBox="0 0 58 58" version="1.1" xmlns="http://www.w3.org/2000/svg" xmlns:xlink="http://www.w3.org/1999/xlink">
    <!-- Generator: Sketch 52.6 (67491) - http://www.bohemiancoding.com/sketch -->
    <title>Group 15</title>
    <desc>Created with Sketch.</desc>
    <g id="Symbols" stroke="none" stroke-width="1" fill="none" fill-rule="evenodd">
        <g id="FUTER" transform="translate(-1176.000000, -575.000000)">
            <g id="Collum">
                <g transform="translate(1081.000000, 95.000000)">
                    <g id="Group-13" transform="translate(2.000000, 426.000000)">
                        <g id="Icon/Flag-2" transform="translate(82.000000, 43.000000)">
                            <g id="flaticon1543508294-svg" transform="translate(11.000000, 11.000000)">
                                <circle id="Oval" fill="#F0F0F0" cx="29" cy="29" r="29"></circle>
                                <path d="M0,29 C0,12.983793 12.9838438,0 29,0 C45.0161563,0 58,12.983793 58,29" id="Path" fill="#D80027"></path>
                                <g id="Group" transform="translate(14.000000, 6.000000)" fill="#F0F0F0">
                                    <path d="M3.87063682,9.00733758 C3.87063682,4.73113376 6.87013433,1.15887898 10.8755672,0.282382166 C10.2599453,0.147783439 9.62132338,0.0747515924 8.9650796,0.0747515924 C4.04113433,0.0747515924 0.0496616915,4.07396178 0.0496616915,9.00745223 C0.0496616915,13.9409427 4.04113433,17.9401529 8.9650796,17.9401529 C9.62109453,17.9401529 10.2598308,17.867121 10.8755672,17.7324076 C6.87013433,16.8559108 3.87063682,13.2836561 3.87063682,9.00733758 Z" id="Path"></path>
                                    <polygon id="Path" points="15.3333333 0.71277707 15.9656617 2.6623949 18.0117463 2.6623949 16.3563184 3.86747771 16.9886468 5.81709554 15.3333333 4.61224204 13.6780199 5.81709554 14.3103483 3.86747771 12.6550348 2.6623949 14.701005 2.6623949"></polygon>
                                    <polygon id="Path" points="10.3700249 4.54104459 11.0022388 6.49077707 13.0483234 6.49077707 11.39301 7.69574522 12.0253383 9.64536306 10.3700249 8.44050955 8.71448259 9.64536306 9.34692537 7.69574522 7.69149751 6.49077707 9.73758209 6.49077707"></polygon>
                                    <polygon id="Path" points="20.2967562 4.54104459 20.929199 6.49077707 22.9751692 6.49077707 21.3197413 7.69574522 21.9521841 9.64536306 20.2967562 8.44050955 18.6414428 9.64536306 19.2737711 7.69574522 17.6184577 6.49077707 19.6644279 6.49077707"></polygon>
                                    <polygon id="Path" points="18.3863831 10.2835032 19.0187114 12.2332357 21.0646816 12.2332357 19.4093682 13.4382038 20.0416965 15.3878217 18.3863831 14.1829682 16.7310697 15.3878217 17.363398 13.4382038 15.7080846 12.2332357 17.7539403 12.2332357"></polygon>
                                    <polygon id="Path" points="12.280398 10.2835032 12.9126119 12.2332357 14.9588109 12.2332357 13.3033831 13.4382038 13.9358259 15.3878217 12.280398 14.1829682 10.6249701 15.3878217 11.2572985 13.4382038 9.60198507 12.2332357 11.6480697 12.2332357"></polygon>
                                </g>
                            </g>
                        </g>
                    </g>
                </g>
            </g>
        </g>
    </g>
</svg>