<?xml version="1.0" encoding="UTF-8"?>
<svg width="59px" height="59px" viewBox="0 0 59 59" version="1.1" xmlns="http://www.w3.org/2000/svg" xmlns:xlink="http://www.w3.org/1999/xlink">
    <!-- Generator: Sketch 52.6 (67491) - http://www.bohemiancoding.com/sketch -->
    <title>Group 15</title>
    <desc>Created with Sketch.</desc>
    <g id="Symbols" stroke="none" stroke-width="1" fill="none" fill-rule="evenodd">
        <g id="FUTER" transform="translate(-1263.000000, -574.000000)">
            <g id="Collum">
                <g transform="translate(1081.000000, 95.000000)">
                    <g id="Group-13" transform="translate(2.000000, 426.000000)">
                        <g id="Icon/flag-1" transform="translate(170.000000, 43.000000)">
                            <g id="flaticon1543508324-svg" transform="translate(10.000000, 10.000000)">
                                <circle id="Oval" fill="#F0F0F0" cx="29" cy="29" r="29"></circle>
                                <g id="Group" transform="translate(1.000000, 7.000000)" fill="#D80027">
                                    <path d="M27.172587,22.6822917 L57.8164557,22.6822917 C57.8164557,20.0748437 57.4631329,17.5488715 56.8047824,15.1460156 L27.172587,15.1460156 L27.172587,22.6822917 Z" id="Path"></path>
                                    <path d="M27.172587,7.60985243 L53.5061472,7.60985243 C51.7084454,4.72412326 49.4098972,2.1734375 46.7299209,0.0735763889 L27.172587,0.0735763889 L27.172587,7.60985243 Z" id="Path"></path>
                                    <path d="M28.4493671,51.5711806 C35.3608426,51.5711806 41.7134256,49.22125 46.7299209,45.2910069 L10.1688133,45.2910069 C15.1853085,49.22125 21.5378916,51.5711806 28.4493671,51.5711806 Z" id="Path"></path>
                                    <path d="M3.39258703,37.7547309 L53.5061472,37.7547309 C54.949379,35.4380903 56.0686551,32.9057986 56.8047824,30.2184549 L0.0939517405,30.2184549 C0.830079114,32.9057986 1.94935522,35.4380903 3.39258703,37.7547309 Z" id="Path"></path>
                                </g>
                                <path d="M12.970125,4.37259375 L15.5217344,4.37259375 L13.1482969,6.09689063 L14.0549063,8.8869375 L11.6815781,7.16264063 L9.30825,8.8869375 L10.091375,6.47664062 C8.00165625,8.21734375 6.1700625,10.25675 4.6606875,12.529125 L5.47826563,12.529125 L3.96746875,13.6267031 C3.73209375,14.0193594 3.50634375,14.41825 3.29,14.8230469 L4.0114375,17.0434687 L2.66546875,16.0655469 C2.33089063,16.7744062 2.02485938,17.4992344 1.74978125,18.2391562 L2.54460938,20.6856562 L5.47826563,20.6856562 L3.10482813,22.4099531 L4.0114375,25.2 L1.63810937,23.4757031 L0.216453125,24.5086406 C0.07415625,25.6524844 0,26.8175469 0,28 L28,28 C28,12.536125 28,10.7130625 28,0 C22.4686875,0 17.3124219,1.60453125 12.970125,4.37259375 Z M14.0549063,25.2 L11.6815781,23.4757031 L9.30825,25.2 L10.2148594,22.4099531 L7.84142187,20.6856563 L10.7750781,20.6856563 L11.6815781,17.8956094 L12.5880781,20.6856563 L15.5217344,20.6856563 L13.1482969,22.4099531 L14.0549063,25.2 Z M13.1482969,14.2534219 L14.0549062,17.0434688 L11.6815781,15.3191719 L9.30825,17.0434688 L10.2148594,14.2534219 L7.84142187,12.529125 L10.7750781,12.529125 L11.6815781,9.73907812 L12.5880781,12.529125 L15.5217344,12.529125 L13.1482969,14.2534219 Z M24.098375,25.2 L21.7250469,23.4757031 L19.3517188,25.2 L20.2583281,22.4099531 L17.8848906,20.6856563 L20.8185469,20.6856563 L21.7250469,17.8956094 L22.6315469,20.6856563 L25.5652031,20.6856563 L23.1917656,22.4099531 L24.098375,25.2 Z M23.1917656,14.2534219 L24.098375,17.0434688 L21.7250469,15.3191719 L19.3517187,17.0434688 L20.2583281,14.2534219 L17.8848906,12.529125 L20.8185469,12.529125 L21.7250469,9.73907812 L22.6315469,12.529125 L25.5652031,12.529125 L23.1917656,14.2534219 Z M23.1917656,6.09689063 L24.098375,8.8869375 L21.7250469,7.16264062 L19.3517188,8.8869375 L20.2583281,6.09689062 L17.8848906,4.37259375 L20.8185469,4.37259375 L21.7250469,1.58254687 L22.6315469,4.37259375 L25.5652031,4.37259375 L23.1917656,6.09689063 Z" id="Shape" fill="#0052B4" fill-rule="nonzero"></path>
                            </g>
                        </g>
                    </g>
                </g>
            </g>
        </g>
    </g>
</svg>