<?xml version="1.0" encoding="UTF-8"?>
<svg width="224px" height="220px" viewBox="0 0 224 220" version="1.1" xmlns="http://www.w3.org/2000/svg" xmlns:xlink="http://www.w3.org/1999/xlink">
    <!-- Generator: Sketch 52.6 (67491) - http://www.bohemiancoding.com/sketch -->
    <title>Group 5</title>
    <desc>Created with Sketch.</desc>
    <g id="Symbols" stroke="none" stroke-width="1" fill="none" fill-rule="evenodd">
        <g id="Full-Futer" transform="translate(-507.000000, -501.000000)">
            <g transform="translate(-82.000000, 176.000000)" id="Group-12">
                <g transform="translate(0.000000, 112.000000)">
                    <g id="Group-5" transform="translate(528.000000, 161.000000)">
                        <g id="Group-15" transform="translate(171.464282, 171.464282) scale(1, -1) rotate(-345.000000) translate(-171.464282, -171.464282) translate(31.464282, 31.464282)">
                            <g transform="translate(-37.000000, -115.000000)" id="Triangle">
                                <path d="M258.118252,203.372113 L272.563282,232.235813 C293.912638,274.895567 276.637148,326.785204 233.977393,348.13456 C221.976371,354.140552 208.740966,357.267559 195.320964,357.267559 L166.87955,357.267559 C119.175781,357.267559 80.5042342,318.596012 80.5042342,270.892242 C80.5042342,257.47224 83.6312412,244.236835 89.6372323,232.235813 L104.082262,203.372113 C125.369617,160.836249 177.108559,143.610928 219.644423,164.898283 C236.289576,173.228461 249.788074,186.726959 258.118252,203.372113 Z" fill="#FFFFFF"></path>
                                <path d="M254.278742,183.955901 L287.105105,249.617594 C305.592357,286.597146 290.601385,331.561875 253.621833,350.049126 C243.237199,355.240734 231.78734,357.945737 220.177285,357.950325 L154.472628,357.97629 C113.129364,357.992628 79.6007823,324.490535 79.5844445,283.147271 C79.5798438,271.505232 82.290679,260.022578 87.5015269,249.611807 L120.37982,183.924149 C138.884608,146.953369 183.856441,131.983724 220.827221,150.488512 C235.303012,157.734003 247.040117,169.476675 254.278742,183.955901 Z" fill="#FFFFFF" opacity="0.300000012" transform="translate(187.303575, 250.265673) rotate(30.000000) translate(-187.303575, -250.265673) "></path>
                                <path d="M258.587343,193.725778 L281.154143,238.906785 C301.191052,279.022696 284.913805,327.786191 244.797894,347.8231 C233.541471,353.445406 221.132383,356.374634 208.549961,356.379609 L163.380646,356.397467 C118.539105,356.415195 82.1734831,320.078316 82.1557548,275.236776 C82.1507666,262.619651 85.0863157,250.174983 90.7294817,238.89019 L113.331997,193.691326 C133.387934,153.584924 182.159145,137.330811 222.265547,157.386747 C237.987223,165.248658 250.732892,178.000374 258.587343,193.725778 Z" stroke="#FFFFFF" stroke-width="0.575835441" transform="translate(185.942109, 252.596352) rotate(60.000000) translate(-185.942109, -252.596352) "></path>
                            </g>
                        </g>
                        <g id="flaticon1543344972-svg" transform="translate(119.000000, 104.000000)">
                            <g id="flaticon1543346112-svg">
                                <path d="M93.3279215,42.1043494 L93.3276225,100.6566 C93.3334857,101.274747 93.2530764,101.890381 93.0897448,102.486751 C92.2605232,105.719039 89.345684,107.97804 86.0086957,107.975527 L23.7969817,107.975527 C20.4599934,107.97804 17.5451542,105.719039 16.7159326,102.486751 C16.552601,101.890381 16.4721917,101.274747 16.4780549,100.6566 L16.4772173,42.1043494 L93.3279215,42.1043494 Z" id="Path" fill="#147CCB"></path>
                                <path d="M87.8388464,42.1043494 L87.8380086,100.6566 C87.8438718,101.274747 87.7643,101.890381 87.6001309,102.486751 C86.7709095,105.719039 83.8569079,107.97804 80.519082,107.975527 L23.7969817,107.975527 C20.4599934,107.97804 17.5451542,105.719039 16.7159326,102.486751 C16.552601,101.890381 16.4721917,101.274747 16.4780549,100.6566 L16.4772173,42.1043494 L87.8388464,42.1043494 Z" id="Path" fill="#25A8F5"></path>
                                <polygon id="Path" fill="#5068C1" points="62.2217655 98.8272873 62.2217655 107.975527 47.5839119 107.975527 47.5839119 42.1043494 62.2217655 42.1043494"></polygon>
                                <polygon id="Path" fill="#354AA3" points="16.4780549 67.7205928 93.3276225 67.7205928 93.3276225 82.3592836 16.4780549 82.3592836"></polygon>
                                <polygon id="Path" fill="#5068C1" points="16.4780549 67.7205928 87.8380086 67.7205928 87.8380086 82.3592836 16.4780549 82.3592836"></polygon>
                                <path d="M78.4518915,71.642224 C77.8856756,67.7021655 76.3377955,63.9681561 73.9489675,60.784448 C72.5803332,58.9743999 70.9679581,57.3628624 69.1587476,55.9942282 C65.9733643,53.6070754 62.2401925,52.0591952 58.3009716,51.4913043 C56.0461592,51.1738548 53.7586807,51.1738548 51.5047058,51.4913043 C47.5654849,52.0591952 43.832313,53.6070754 40.6469298,55.9942282 C38.8377193,57.3628624 37.2253442,58.9743999 35.8567099,60.784448 C33.4678819,63.9681561 31.9191642,67.7021655 31.3537859,71.642224 C31.0363366,73.8961988 31.0363366,76.1836776 31.3537859,78.4376524 C31.9191642,82.3777109 33.4678819,86.1117203 35.8567099,89.2954282 C37.2253442,91.1054763 38.8377193,92.717014 40.6469298,94.0856481 C43.832313,96.4719633 47.5654849,98.0198434 51.5047058,98.5894097 C53.7586807,98.9060216 56.0461592,98.9060216 58.3009716,98.5894097 C62.2401925,98.0231938 65.9742021,96.4744761 69.1587476,94.0856481 C70.9671205,92.7212019 72.5736324,91.1088269 73.9322156,89.2954282 L73.9489675,89.2954282 C76.3377955,86.1117203 77.8856756,82.3777109 78.4518915,78.4376524 C78.7685032,76.1836776 78.7685032,73.8961988 78.4518915,71.642224 Z" id="Path" fill="#ED634C"></path>
                                <path d="M78.6897692,75.0403571 C78.6889314,76.1769768 78.6093598,77.3119214 78.4518915,78.4376524 L71.5534388,78.4376524 C72.0074165,76.1954038 72.0074165,73.8844724 71.5534388,71.642224 L78.4518915,71.642224 C78.6093598,72.767955 78.6889314,73.9028996 78.6897692,75.0403571 Z" id="Path" fill="#D7DEE2"></path>
                                <path d="M78.4518915,78.4376524 C77.8856756,82.3777109 76.3377955,86.1117203 73.9489675,89.2954282 L73.9322156,89.2954282 L69.072475,84.4197734 C70.2735898,82.6021868 71.1153752,80.5718505 71.5534388,78.4376524 L78.4518915,78.4376524 Z" id="Path" fill="#F85B44"></path>
                                <path d="M69.1587476,94.0856481 C65.9742021,96.4744761 62.2401925,98.0231938 58.3009716,98.5894097 L58.3009716,91.6909569 C60.4343324,91.2528934 62.4646686,90.4102705 64.282255,89.2099934 L69.1587476,94.0856481 Z" id="Path" fill="#F85B44"></path>
                                <path d="M58.3009716,91.6909569 L58.3009716,98.5894097 C56.0461592,98.9060216 53.7586807,98.9060216 51.5047058,98.5894097 L51.5047058,91.6909569 C53.7477917,92.1449349 56.0578857,92.1449349 58.3009716,91.6909569 Z" id="Path" fill="#D7DEE2"></path>
                                <path d="M51.5047058,91.6909569 L51.5047058,98.5894097 C47.5654849,98.0198434 43.832313,96.4719633 40.6469298,94.0856481 L45.5234224,89.2099934 C47.3410088,90.4102705 49.371345,91.2528934 51.5047058,91.6909569 Z" id="Path" fill="#F85B44"></path>
                                <path d="M45.5234224,89.2099934 L40.6469298,94.0856481 C38.8377193,92.717014 37.2253442,91.1054763 35.8567099,89.2954282 L40.7332024,84.4197734 C41.9904362,86.3227948 43.6195632,87.9519219 45.5234224,89.2099934 Z" id="Path" fill="#D7DEE2"></path>
                                <path d="M40.7332024,84.4197734 L35.8567099,89.2954282 C33.4678819,86.1117203 31.9191642,82.3777109 31.3537859,78.4376524 L38.2522386,78.4376524 C38.6894646,80.5718505 39.5320875,82.6021868 40.7332024,84.4197734 Z" id="Path" fill="#F85B44"></path>
                                <path d="M40.7332024,65.6609405 C39.5320875,67.4776894 38.6894646,69.5080257 38.2522386,71.642224 L31.3537859,71.642224 C31.9191642,67.7021655 33.4678819,63.9681561 35.8567099,60.784448 L40.7332024,65.6609405 Z" id="Path" fill="#F85B44"></path>
                                <path d="M45.5234224,60.8707206 C43.6195632,62.1279545 41.9904362,63.7570816 40.7332024,65.6609405 L35.8567099,60.784448 C37.2253442,58.9743999 38.8377193,57.3628624 40.6469298,55.9942282 L45.5234224,60.8707206 Z" id="Path" fill="#D7DEE2"></path>
                                <path d="M51.5047058,51.4913043 L51.5047058,58.3889195 C49.371345,58.8269828 47.3410088,59.6696059 45.5234224,60.8707206 L40.6469298,55.9942282 C43.832313,53.6070754 47.5654849,52.0591952 51.5047058,51.4913043 Z" id="Path" fill="#F85B44"></path>
                                <path d="M69.1587476,55.9942282 L64.282255,60.8707206 C62.4646686,59.6696059 60.4343324,58.8269828 58.3009716,58.3889195 L58.3009716,51.4913043 C62.2401925,52.0591952 65.9733643,53.6070754 69.1587476,55.9942282 Z" id="Path" fill="#F85B44"></path>
                                <path d="M73.9489675,60.784448 L69.072475,65.6609405 C67.8152412,63.7570816 66.1852765,62.1279545 64.282255,60.8707206 L69.1587476,55.9942282 C70.9679581,57.3628624 72.5803332,58.9743999 73.9489675,60.784448 Z" id="Path" fill="#D7DEE2"></path>
                                <path d="M78.4518915,71.642224 L71.5534388,71.642224 C71.1153752,69.5080257 70.2735898,67.4776894 69.072475,65.6609405 L73.9489675,60.784448 C76.3377955,63.9681561 77.8856756,67.7021655 78.4518915,71.642224 Z" id="Path" fill="#F85B44"></path>
                                <path d="M71.8935032,75.0403571 C71.8834521,84.0604441 64.8040783,91.489096 55.7948799,91.9338603 C46.7848441,92.3786244 39.0085892,85.6837079 38.1090094,76.7080135 C37.2102674,67.732319 43.5048124,59.6277259 52.4235502,58.2766813 C61.342288,56.9256366 69.7542794,62.803058 71.5534388,71.642224 C71.7804275,72.7604167 71.8943408,73.8987117 71.8935032,75.0403571 Z" id="Path" fill="#F85B44"></path>
                                <g id="Group" transform="translate(31.091618, 51.247563)" fill="#D7DEE2">
                                    <path d="M27.2093536,0.243740916 L27.2093536,7.1413561 C24.9662677,6.68821571 22.6561738,6.68821571 20.4130879,7.1413561 L20.4130879,0.243740916 C22.6670627,-0.073708577 24.9545412,-0.073708577 27.2093536,0.243740916 Z" id="Path"></path>
                                    <path d="M6.81971867,23.7927937 C6.81888092,24.9336014 6.93279417,26.0718964 7.16062068,27.190089 L0.262167953,27.190089 C-0.0552813255,24.9361142 -0.0552813255,22.6486355 0.262167953,20.3946606 L7.16062068,20.3946606 C6.93279417,21.5128533 6.81888092,22.6511483 6.81971867,23.7927937 Z" id="Path"></path>
                                    <path d="M42.8405976,38.0478648 C41.4820144,39.8612635 39.8755026,41.4736386 38.0671296,42.8380848 L33.1906371,37.96243 C35.0936585,36.7043585 36.7236233,35.0752315 37.980857,33.17221 L42.8405976,38.0478648 Z" id="Path"></path>
                                </g>
                                <path d="M10.9884412,27.4664961 L98.8172362,27.4664961 C100.838359,27.4664961 102.476699,29.1048367 102.476699,31.1259594 L102.476699,38.4448861 C102.476699,40.4660088 100.838359,42.1043494 98.8172362,42.1043494 L10.9884412,42.1043494 C8.96731836,42.1043494 7.32897793,40.4660088 7.32897793,38.4448861 L7.32897793,31.1259594 C7.32897793,29.1048367 8.96731836,27.4664961 10.9884412,27.4664961 Z" id="Path" fill="#00939F"></path>
                                <path d="M10.9884412,27.4664961 L93.3276225,27.4664961 C95.3487451,27.4664961 96.9870858,29.1048367 96.9870858,31.1259594 L96.9870858,38.4448861 C96.9870858,40.4660088 95.3487451,42.1043494 93.3276225,42.1043494 L10.9884412,42.1043494 C8.96731836,42.1043494 7.32897793,40.4660088 7.32897793,38.4448861 L7.32897793,31.1259594 C7.32897793,29.1048367 8.96731836,27.4664961 10.9884412,27.4664961 Z" id="Path" fill="#00C6DB"></path>
                                <polygon id="Path" fill="#00939F" points="43.9244487 27.4664961 65.8812287 27.4664961 65.8812287 42.1043494 43.9244487 42.1043494"></polygon>
                                <path d="M104.306012,38.4448861 L104.306012,31.1259594 C104.306012,28.0938565 101.848501,25.6363457 98.8172362,25.6363457 L84.8268457,25.6363457 C88.6781189,23.7207602 92.0670384,20.9885172 94.7565637,17.6314265 C96.6445085,15.0692161 99.4588359,13.3454404 102.598989,12.8278052 C103.609969,12.7607974 104.373858,11.8863457 104.306012,10.876203 C104.238167,9.86522285 103.364553,9.10133396 102.353573,9.16834175 C98.1865253,9.75466019 94.4248751,11.9751309 91.8986811,15.3405976 C87.1227005,21.0186709 80.3322978,24.626203 72.953064,25.404331 C81.5258741,21.230583 86.0086957,14.4753593 86.0086957,9.05526626 C86.0564389,6.53493532 84.9591862,4.1293554 83.0243359,2.51362994 C80.6405336,0.736248226 77.708105,-0.14657961 74.738822,0.0201023392 C63.0886787,0.0201023392 57.3695632,11.12832 54.7562591,19.1533413 C52.1454678,11.12832 46.4255148,0.0201023392 34.7753717,0.0201023392 C31.8069263,-0.14657961 28.8736598,0.736248226 26.4898573,2.51362994 C24.5558449,4.1293554 23.4577547,6.53493532 23.5054977,9.05526626 C23.5054977,14.4527443 27.9397386,21.1644128 36.4279514,25.3398361 C29.2053484,24.493025 22.5791148,20.9164839 17.9069963,15.343948 C15.3816399,11.9776438 11.619152,9.75549774 7.45126706,9.16834175 C6.96964846,9.13316277 6.49305556,9.29146864 6.1287006,9.60891813 C5.76434565,9.92720517 5.54238238,10.376995 5.51222887,10.8594511 C5.47369949,11.3435825 5.62949251,11.8226883 5.94442916,12.1920687 C6.26020335,12.5614491 6.70915559,12.7901134 7.19328704,12.8278052 C10.3384656,13.34209 13.1578185,15.0658657 15.0491137,17.6314265 C17.738639,20.9885172 21.1267209,23.7207602 24.9788317,25.6363457 L10.9884412,25.6363457 C7.95717593,25.6363457 5.49882731,28.0938565 5.49882731,31.1259594 L5.49882731,38.4448861 C5.49882731,41.4761514 7.95717593,43.9344998 10.9884412,43.9344998 L14.6479045,43.9344998 L14.6479045,100.6566 C14.6537677,105.706475 18.7462688,109.798977 23.7969817,109.805677 L86.0086957,109.805677 C91.0585708,109.798977 95.1510721,105.706475 95.1577729,100.6566 L95.1577729,43.9344998 L98.8172362,43.9344998 C100.272981,43.9344998 101.669256,43.3557199 102.698663,42.3263127 C103.72807,41.2969055 104.306012,39.9006304 104.306012,38.4448861 Z M64.0519159,40.274199 L45.7537615,40.274199 L45.7537615,29.295809 L64.0519159,29.295809 L64.0519159,40.274199 Z M91.4983096,80.5291332 L79.9118239,80.5291332 C80.7217805,76.9149001 80.7217805,73.1658138 79.9118239,69.5507432 L91.4983096,69.5507432 L91.4983096,80.5291332 Z M43.772006,93.9340431 L46.4531555,91.2537312 C47.4013158,91.7537768 48.3921936,92.1683876 49.4132248,92.494213 L49.4132248,96.2742903 C47.4323068,95.7625182 45.5334733,94.9751768 43.772006,93.9340431 Z M18.3073678,69.5507432 L29.8938535,69.5507432 C29.0838969,73.1658138 29.0838969,76.9149001 29.8938535,80.5291332 L18.3073678,80.5291332 L18.3073678,69.5507432 Z M69.540692,75.0403571 C69.540692,83.1240101 62.9873294,89.6782102 54.9028387,89.6782102 C46.818348,89.6782102 40.2649854,83.1240101 40.2649854,75.0403571 C40.2649854,66.9558661 46.818348,60.401666 54.9028387,60.401666 C62.9831415,60.4108796 69.5314784,66.9592167 69.540692,75.0403571 Z M76.8596186,75.0403571 C76.8596186,75.6585039 76.8177388,76.2640869 76.7666454,76.8696699 L73.1071819,76.8696699 C73.2311465,75.6534782 73.2311465,74.4272355 73.1071819,73.2102065 L76.7666454,73.2102065 C76.8177388,73.8157895 76.8596186,74.4213725 76.8596186,75.0403571 Z M32.9452211,75.0403571 C32.9452211,74.4213725 32.9879386,73.8157895 33.039032,73.2102065 L36.6984955,73.2102065 C36.5736933,74.4272355 36.5736933,75.6534782 36.6984955,76.8696699 L33.039032,76.8696699 C32.9879386,76.2640869 32.9452211,75.6585039 32.9452211,75.0403571 Z M54.9028387,56.7422027 C54.2913924,56.7430403 53.6807839,56.7740315 53.0726883,56.8360136 L53.0726883,53.1765504 C53.6782713,53.1246192 54.2838541,53.0827395 54.9028387,53.0827395 C55.5209857,53.0827395 56.1265685,53.1246192 56.7321516,53.1765504 L56.7321516,56.8360136 C56.1248935,56.7740315 55.5134472,56.7430403 54.9028387,56.7422027 Z M49.4132248,53.8147995 L49.4132248,57.5948768 C48.3921936,57.9207024 47.4013158,58.3353132 46.4531555,58.8353588 L43.772006,56.155047 C45.5334733,55.1139133 47.4323068,54.3265716 49.4132248,53.8147995 Z M40.7382279,58.2976212 L43.3314296,60.8908229 C42.3849446,61.664763 41.5180312,62.5316764 40.7440911,63.4781614 L38.1508894,60.8849597 C38.9415814,59.9502011 39.8068195,59.0816124 40.7382279,58.2884078 L40.7382279,58.2976212 Z M36.0083152,63.9187378 L38.6894646,66.5990497 C38.1894188,67.5446972 37.7748082,68.5322247 37.4489828,69.5507432 L33.6772814,69.5507432 C34.1865406,67.5706628 34.9705319,65.6709917 36.0083152,63.9095242 L36.0083152,63.9187378 Z M37.4489828,80.5291332 C37.7739704,81.5510021 38.1894188,82.5418798 38.6894646,83.4900403 L36.0083152,86.1703522 C34.9705319,84.4088847 34.1865406,82.5100512 33.6772814,80.5291332 L37.4489828,80.5291332 Z M40.7424158,86.6117659 C41.5163561,87.5574136 42.3832693,88.4243268 43.3297546,89.1991046 L40.7365528,91.7914686 C39.8051444,91.0007766 38.9399061,90.1355385 38.1492141,89.2041301 L40.7424158,86.6117659 Z M53.0726883,93.2447003 C54.2897173,93.3686647 55.51596,93.3686647 56.7321516,93.2447003 L56.7321516,96.9041636 C56.1265685,96.955257 55.5209857,96.9971369 54.9028387,96.9971369 C54.2838541,96.9971369 53.6782713,96.955257 53.0726883,96.9041636 L53.0726883,93.2447003 Z M60.3916148,96.2742903 L60.3916148,92.494213 C61.4134837,92.1683876 62.4043616,91.7537768 63.3525219,91.2537312 L66.0328338,93.9340431 C64.2722041,94.9751768 62.3725328,95.7625182 60.3916148,96.2742903 Z M69.0666117,91.7914686 L66.4742477,89.1991046 C67.4207328,88.4243268 68.2868087,87.5574136 69.0615863,86.6117659 L71.6539505,89.2041301 C70.8632585,90.1355385 69.9980201,91.0007766 69.0666117,91.7914686 Z M73.7965247,86.1703522 L71.1162128,83.4900403 C71.6162586,82.5418798 72.031707,81.5510021 72.3566946,80.5291332 L76.1367721,80.5291332 C75.6258375,82.5100512 74.8376584,84.4088847 73.7965247,86.1703522 Z M72.3566946,69.5507432 C72.0308692,68.5288743 71.6162586,67.5371589 71.1162128,66.588161 L73.7965247,63.9095242 C74.8376584,65.6709917 75.6258375,67.5698252 76.1367721,69.5507432 L72.3566946,69.5507432 Z M69.0632616,63.468948 C68.2893213,62.5224628 67.4224081,61.6555494 66.4759228,60.8816095 L69.0691246,58.2884078 C70.000533,59.0790998 70.8657713,59.9443379 71.6556256,60.8757463 L69.0632616,63.468948 Z M63.3558723,58.8261452 C62.4068744,58.3269371 61.4143213,57.9114888 60.3916148,57.5856634 L60.3916148,53.8147995 C62.3725328,54.3265716 64.2722041,55.1139133 66.0328338,56.155047 L63.3558723,58.8261452 Z M60.3916148,50.0305343 C56.7773817,49.2205775 53.0282957,49.2205775 49.4132248,50.0305343 L49.4132248,43.9344998 L60.3916148,43.9344998 L60.3916148,50.0305343 Z M74.738822,3.67956561 C76.8529178,3.53717415 78.9519371,4.11762914 80.691627,5.32628234 C81.7955806,6.24261386 82.4087019,7.6212994 82.3492325,9.05526626 C82.3492325,15.5449714 73.288103,24.8146624 56.8293129,25.5852521 C58.1007859,19.6935916 62.6740679,3.67956561 74.738822,3.67956561 Z M27.1657986,9.05526626 C27.1063291,7.6212994 27.7186129,6.24261386 28.823404,5.32628234 C30.5630939,4.11762914 32.6621132,3.53717415 34.7753717,3.67956561 C46.8166729,3.67956561 51.4041941,19.6919165 52.6832053,25.5852521 C36.2260903,24.8146624 27.1657986,15.5449714 27.1657986,9.05526626 Z M9.15912834,38.4448861 L9.15912834,36.6147355 L36.6055221,36.6147355 C37.6156645,36.6147355 38.434835,35.7955653 38.434835,34.7854227 C38.434835,33.7744427 37.6156645,32.9552722 36.6055221,32.9552722 L9.15912834,32.9552722 L9.15912834,31.1259594 C9.15912834,30.1149792 9.97829856,29.295809 10.9884412,29.295809 L42.0942982,29.295809 L42.0942982,40.274199 L10.9884412,40.274199 C9.97829856,40.274199 9.15912834,39.4550286 9.15912834,38.4448861 Z M43.9244487,43.9344998 L45.7537615,43.9344998 L45.7537615,51.1411884 C38.9742477,53.7528174 33.6161368,59.1117659 31.0045078,65.8912799 L18.3073678,65.8912799 L18.3073678,43.9344998 L43.9244487,43.9344998 Z M18.644082,102.486751 L32.9452211,102.486751 C33.9562013,102.486751 34.7753717,101.66758 34.7753717,100.6566 C34.7753717,99.6464578 33.9562013,98.8272873 32.9452211,98.8272873 L18.3073678,98.8272873 L18.3073678,84.1885965 L31.0045078,84.1885965 C33.6161368,90.968948 38.9742477,96.327059 45.7537615,98.9386878 L45.7537615,106.146214 L23.7969817,106.146214 C21.4785119,106.136163 19.4171846,104.672043 18.644082,102.486751 Z M49.4132248,106.146214 L49.4132248,100.049342 C53.0282957,100.859299 56.7773817,100.859299 60.3916148,100.049342 L60.3916148,106.146214 L49.4132248,106.146214 Z M86.0086957,106.146214 L64.0519159,106.146214 L64.0519159,98.9386878 C70.8314296,96.327059 76.1895406,90.968948 78.8011696,84.1885965 L91.4983096,84.1885965 L91.4983096,98.8272873 L76.8596186,98.8272873 C75.8494761,98.8272873 75.0303057,99.6464578 75.0303057,100.6566 C75.0303057,101.66758 75.8494761,102.486751 76.8596186,102.486751 L91.1615953,102.486751 C90.3884928,104.672043 88.326328,106.136163 86.0086957,106.146214 Z M91.4983096,65.8912799 L78.8011696,65.8912799 C76.1895406,59.1117659 70.8314296,53.7528174 64.0519159,51.1411884 L64.0519159,43.9344998 L91.4983096,43.9344998 L91.4983096,65.8912799 Z M98.8172362,40.274199 L67.7113791,40.274199 L67.7113791,29.295809 L98.8172362,29.295809 C99.8273788,29.295809 100.646549,30.1149792 100.646549,31.1259594 L100.646549,32.9552722 L73.2001553,32.9552722 C72.1900128,32.9552722 71.3708424,33.7744427 71.3708424,34.7854227 C71.3708424,35.7955653 72.1900128,36.6147355 73.2001553,36.6147355 L100.646549,36.6147355 L100.646549,38.4448861 C100.646549,39.4550286 99.8273788,40.274199 98.8172362,40.274199 Z" id="Shape" fill="#000000" fill-rule="nonzero"></path>
                                <path d="M52.7066582,64.2789048 C49.2046631,64.9967258 46.2705591,67.3729898 44.8391051,70.6488335 C44.4353832,71.5743787 44.8575323,72.6523666 45.7830775,73.0569263 C46.0134168,73.1591131 46.2630208,73.2110442 46.5151378,73.2102065 C47.2430099,73.2102065 47.9021992,72.7796815 48.1928453,72.1121163 C49.1460314,69.9276621 51.1034966,68.3437653 53.4387183,67.8671722 C54.4295962,67.6653112 55.0695206,66.6978863 54.8668219,65.7070085 C54.664961,64.7161306 53.6975359,64.0770437 52.7066582,64.2789048 Z" id="Path" fill="#000000"></path>
                                <path d="M58.562302,85.2573709 C58.8144188,85.2582084 59.0640229,85.2062775 59.2943623,85.1040905 C62.570206,83.6726365 64.9456322,80.7376949 65.6634534,77.2357 C65.8653143,76.2448221 65.2262274,75.277397 64.2353496,75.0755361 C63.2444719,74.8736751 62.2778843,75.5127618 62.0751858,76.5036397 C61.5994305,78.8396992 60.0155336,80.7963269 57.8302419,81.7495127 C57.037037,82.0971157 56.5964607,82.9523026 56.7731938,83.7999513 C56.9499269,84.6467624 57.6962263,85.254858 58.562302,85.2556956 L58.562302,85.2573709 Z" id="Path" fill="#000000"></path>
                                <path d="M109.795626,53.0827395 C109.795626,52.0725968 108.976456,51.2534266 107.965476,51.2534266 C106.955333,51.2534266 106.136163,52.0725968 106.136163,53.0827395 C106.136163,54.1129842 105.739142,54.5468598 104.842075,55.4489522 C103.346126,56.6576054 102.476699,58.4785422 102.476699,60.401666 C102.476699,62.3256273 103.346126,64.1465643 104.842075,65.3552175 C105.739142,66.2514467 106.136163,66.6928606 106.136163,67.7205928 C106.136163,68.7315727 106.955333,69.5507432 107.965476,69.5507432 C108.976456,69.5507432 109.795626,68.7315727 109.795626,67.7205928 C109.773849,65.8024945 108.90861,63.9907713 107.429413,62.7678788 C106.533184,61.8657864 106.136163,61.431911 106.136163,60.401666 C106.136163,59.3714212 106.533184,58.9383834 107.429413,58.0362908 C108.90861,56.8133985 109.773849,55.0016751 109.795626,53.0827395 Z" id="Path" fill="#000000"></path>
                                <path d="M9.15912834,73.2102065 C9.15912834,72.200064 8.33912037,71.3808936 7.32897793,71.3808936 C6.31883528,71.3808936 5.49882731,72.200064 5.49882731,73.2102065 C5.49882731,74.2404514 5.10180622,74.6743268 4.20557682,75.5764195 C2.7087901,76.7850724 1.83936404,78.6060094 1.83936404,80.5291332 C1.83936404,82.4530945 2.7087901,84.2731938 4.20557682,85.4826845 C5.10180622,86.3847772 5.49882731,86.8203278 5.49882731,87.8480598 C5.49882731,88.85904 6.31883528,89.6782102 7.32897793,89.6782102 C8.33912037,89.6782102 9.15912834,88.85904 9.15912834,87.8480598 C9.1373507,85.9299617 8.27211257,84.1174008 6.79291556,82.895346 C5.89668616,81.9932536 5.49882731,81.559378 5.49882731,80.5291332 C5.49882731,79.4988882 5.89668616,79.0658504 6.79291556,78.163758 C8.27211257,76.9408657 9.1373507,75.1291423 9.15912834,73.2102065 Z" id="Path" fill="#000000"></path>
                                <path d="M7.32897793,100.6566 C7.30720029,98.7376644 6.44196216,96.9259412 4.96276493,95.7038865 C4.06653575,94.801794 3.66951444,94.3679184 3.66951444,93.3376737 C3.66951444,92.3266935 2.85034423,91.507523 1.83936404,91.507523 C0.829221598,91.507523 0.0100511696,92.3266935 0.0100511696,93.3376737 C0.0318288109,95.2566095 0.89706694,97.0683327 2.37542641,98.2903874 C3.27249335,99.1924798 3.66951444,99.6280305 3.66951444,100.6566 C3.66951444,101.68517 3.27249335,102.120721 2.37542641,103.022813 C0.89706694,104.244868 0.0318288109,106.056591 0.0100511696,107.975527 C0.0100511696,108.986507 0.829221598,109.805677 1.83936404,109.805677 C2.85034423,109.805677 3.66951444,108.986507 3.66951444,107.975527 C3.66951444,106.946957 4.06653575,106.512244 4.96276493,105.610152 C6.44196216,104.387259 7.30720029,102.575536 7.32897793,100.6566 Z" id="Path" fill="#000000"></path>
                                <path d="M100.646549,87.8480598 C100.646549,88.85904 101.465719,89.6782102 102.476699,89.6782102 C103.486842,89.6782102 104.306012,88.85904 104.306012,87.8480598 C104.306012,86.8203278 104.703034,86.3847772 105.600101,85.4826845 C107.09605,84.2731938 107.966313,82.4530945 107.966313,80.5291332 C107.966313,78.6060094 107.09605,76.7850724 105.600101,75.5764195 C104.703034,74.6743268 104.306012,74.2404514 104.306012,73.2102065 C104.306012,72.200064 103.486842,71.3808936 102.476699,71.3808936 C101.465719,71.3808936 100.646549,72.200064 100.646549,73.2102065 C100.668327,75.1291423 101.533565,76.9408657 103.012762,78.163758 C103.908991,79.0599872 104.306012,79.5005635 104.306012,80.5291332 C104.306012,81.5577029 103.908991,81.9932536 103.012762,82.895346 C101.533565,84.1174008 100.668327,85.9299617 100.646549,87.8480598 Z" id="Path" fill="#000000"></path>
                            </g>
                        </g>
                    </g>
                </g>
            </g>
        </g>
    </g>
</svg>