<?xml version="1.0" encoding="UTF-8"?>
<svg width="220px" height="224px" viewBox="0 0 220 224" version="1.1" xmlns="http://www.w3.org/2000/svg" xmlns:xlink="http://www.w3.org/1999/xlink">
    <!-- Generator: Sketch 52.6 (67491) - http://www.bohemiancoding.com/sketch -->
    <title>Group</title>
    <desc>Created with Sketch.</desc>
    <g id="Symbols" stroke="none" stroke-width="1" fill="none" fill-rule="evenodd">
        <g id="Full-Futer" transform="translate(-1240.000000, -505.000000)">
            <g transform="translate(-82.000000, 176.000000)" id="Group-12">
                <g transform="translate(0.000000, 112.000000)">
                    <g id="Group" transform="translate(1292.000000, 192.000000)">
                        <g id="Group-15" transform="translate(140.000000, 140.000000) scale(1, -1) translate(-140.000000, -140.000000) ">
                            <g transform="translate(-37.000000, -115.000000)" id="Triangle">
                                <path d="M258.118252,203.372113 L272.563282,232.235813 C293.912638,274.895567 276.637148,326.785204 233.977393,348.13456 C221.976371,354.140552 208.740966,357.267559 195.320964,357.267559 L166.87955,357.267559 C119.175781,357.267559 80.5042342,318.596012 80.5042342,270.892242 C80.5042342,257.47224 83.6312412,244.236835 89.6372323,232.235813 L104.082262,203.372113 C125.369617,160.836249 177.108559,143.610928 219.644423,164.898283 C236.289576,173.228461 249.788074,186.726959 258.118252,203.372113 Z" fill="#FFFFFF"></path>
                                <path d="M254.278742,183.955901 L287.105105,249.617594 C305.592357,286.597146 290.601385,331.561875 253.621833,350.049126 C243.237199,355.240734 231.78734,357.945737 220.177285,357.950325 L154.472628,357.97629 C113.129364,357.992628 79.6007823,324.490535 79.5844445,283.147271 C79.5798438,271.505232 82.290679,260.022578 87.5015269,249.611807 L120.37982,183.924149 C138.884608,146.953369 183.856441,131.983724 220.827221,150.488512 C235.303012,157.734003 247.040117,169.476675 254.278742,183.955901 Z" fill="#FFFFFF" opacity="0.300000012" transform="translate(187.303575, 250.265673) rotate(30.000000) translate(-187.303575, -250.265673) "></path>
                                <path d="M258.587343,193.725778 L281.154143,238.906785 C301.191052,279.022696 284.913805,327.786191 244.797894,347.8231 C233.541471,353.445406 221.132383,356.374634 208.549961,356.379609 L163.380646,356.397467 C118.539105,356.415195 82.1734831,320.078316 82.1557548,275.236776 C82.1507666,262.619651 85.0863157,250.174983 90.7294817,238.89019 L113.331997,193.691326 C133.387934,153.584924 182.159145,137.330811 222.265547,157.386747 C237.987223,165.248658 250.732892,178.000374 258.587343,193.725778 Z" stroke="#FFFFFF" stroke-width="0.575835441" transform="translate(185.942109, 252.596352) rotate(60.000000) translate(-185.942109, -252.596352) "></path>
                            </g>
                        </g>
                        <g id="flaticon1543344972-svg" transform="translate(85.000000, 81.000000)">
                            <g id="flaticon1543346086-svg" transform="translate(8.402778, 0.000000)">
                                <path d="M71.4060216,20.1802357 C60.2902656,20.1802357 51.2785544,29.1919469 51.2785544,40.3077029 C51.2785544,51.4242965 60.2902656,60.4351699 71.4060216,60.4351699 C82.5226152,60.4351699 91.5334886,51.4242965 91.5334886,40.3077029 C91.536839,34.9688565 89.4168798,29.8477858 85.6418281,26.0727339 C81.8659388,22.2976821 76.7448678,20.1777228 71.4060216,20.1802357 Z M80.4638005,49.3654818 C76.1426351,53.6866472 69.3714974,54.3533748 64.2906311,50.9585923 C59.2097648,47.5646473 57.23471,41.0531645 59.5724446,35.4077576 C61.910179,29.7623507 67.9107274,26.5551901 73.9037372,27.7462538 C79.8975846,28.9381548 84.2137245,34.1974293 84.2145621,40.3077029 C84.2271261,43.7075111 82.8752437,46.969953 80.4638005,49.3654818 Z" id="Shape" fill="#F57C00" fill-rule="nonzero"></path>
                                <path d="M80.4638005,31.2507616 L71.4060216,40.3077029 L71.4060216,27.4990868 C74.8058298,27.487436 78.0682718,28.8384809 80.4638005,31.2507616 Z" id="Path" fill="#F57C00"></path>
                                <path d="M84.2146489,40.3077029 L71.4060216,40.3077029 L80.4638005,31.2507616 C82.8752437,33.6462901 84.2271261,36.9087323 84.2146489,40.3077029 Z" id="Path" fill="#FFEB3A"></path>
                                <path d="M84.2146489,40.3077029 C84.2271261,43.7075111 82.8752437,46.969953 80.4638005,49.3654818 L71.4060216,40.3077029 L84.2146489,40.3077029 Z" id="Path" fill="#F57C00"></path>
                                <path d="M80.4638005,49.3654818 C78.0682718,51.7777625 74.8058298,53.1288074 71.4060216,53.1163302 L71.4060216,40.3077029 L80.4638005,49.3654818 Z" id="Path" fill="#FFEB3A"></path>
                                <path d="M80.5550988,31.1594633 L80.4638005,31.2507616" id="Path" fill="#F0C419"></path>
                                <path d="M80.5550988,49.4567801 L80.4638005,49.3654818" id="Path" fill="#F0C419"></path>
                                <path d="M71.4060216,40.3077029 L58.5974055,40.3077029 C58.5857547,36.9087323 59.9367996,33.6462901 62.3490803,31.2507616 L71.4060216,40.3077029 Z" id="Path" fill="#F57C00"></path>
                                <path d="M71.4060216,40.3077029 L71.4060216,53.1163302 C68.007051,53.1288074 64.7446088,51.7777625 62.3490803,49.3654818 L71.4060216,40.3077029 Z" id="Path" fill="#F0C419"></path>
                                <path d="M71.4060216,40.3077029 L62.3490803,49.3654818 C59.9367996,46.969953 58.5857547,43.7075111 58.5974055,40.3077029 L71.4060216,40.3077029 Z" id="Path" fill="#F3D55B"></path>
                                <path d="M71.4060216,27.4990868 L71.4060216,40.3077029 L62.3490803,31.2507616 C64.7446088,28.8384809 68.007051,27.487436 71.4060216,27.4990868 Z" id="Path" fill="#FFEB3A"></path>
                                <path d="M62.3490803,31.2507616 L62.257782,31.1594633" id="Path" fill="#F0C419"></path>
                                <path d="M62.3490803,49.3654818 L62.257782,49.4567801" id="Path" fill="#F0C419"></path>
                                <path d="M70.0156098,66.0889529 L67.911565,104.532164 C67.8135659,106.482091 66.2037037,108.011544 64.2521017,108.009031 L34.6463816,108.009031 C32.6947794,108.011544 31.0840796,106.482091 30.9869183,104.532164 L28.6625853,62.0634594 C33.4938475,65.5771808 39.8612635,69.5842471 43.9596279,69.5842471 C51.2785544,69.5842471 54.9380179,64.0946332 62.257782,64.0946332 C64.9531707,64.2177601 67.594953,64.8970517 70.0156098,66.0889529 Z" id="Path" fill="#D84315"></path>
                                <path d="M71.2234253,44.1506001 L70.0156098,66.0889529 C68.4333883,65.3543798 66.7766204,64.7906767 65.0754599,64.4062196 C64.1490772,64.2051963 63.2051048,64.1004964 62.257782,64.0946332 C54.9380179,64.0946332 51.2785544,69.5842471 43.9596279,69.5842471 C41.2332481,69.5842471 37.5193408,67.8278052 33.9143213,65.5956078 C32.0850084,64.4790905 30.2917123,63.2528478 28.6625853,62.0634594 L27.6750578,44.1506001 C27.624802,43.1488335 27.9883194,42.1696819 28.6801748,41.4434851 C29.3720304,40.717288 30.3310794,40.3068651 31.3345211,40.3077029 L67.563962,40.3077029 C68.5665661,40.3068651 69.5264529,40.717288 70.2183083,41.4434851 C70.9101639,42.1696819 71.2736811,43.1488335 71.2234253,44.1506001 Z" id="Path" fill="#00838F"></path>
                                <path d="M65.9172453,44.1506001 L64.9816489,64.4062196 C63.9505666,64.2051963 62.9018944,64.1004964 61.8515473,64.0946332 C53.7193135,64.0946332 49.6536153,69.5842471 41.5222191,69.5842471 C38.4926291,69.5842471 34.3666241,67.8278052 30.3612329,65.5956078 C30.2808236,64.4790905 30.2205166,63.3081293 30.1576967,62.0634594 L29.3217745,44.1506001 C29.2086988,43.2317557 29.4708668,42.3062104 30.0488091,41.5825261 C30.627589,40.8596797 31.4727248,40.3998385 32.394082,40.3077029 L62.8466131,40.3077029 C63.7671327,40.4006761 64.611431,40.8605172 65.1893731,41.5833639 C65.7673155,42.3070481 66.0294834,43.2317557 65.9172453,44.1506001 Z" id="Path" fill="#00BCD4"></path>
                                <path d="M26.5401134,24.1881397 C19.0930343,27.7738944 12.0119852,29.6953429 7.7854685,29.5303363 C5.80957602,29.4758925 4.47360801,28.9448556 3.97942561,27.9389011 C2.71716618,25.2669653 12.6527472,13.4283626 16.9161184,9.20184565 L18.1783779,8.46978558 L20.0813993,7.39096004 L20.0998263,7.39096004 C25.3875793,6.65889996 42.2216131,6.10943602 43.5575811,8.89109715 C45.0945725,12.0748051 37.4824867,18.9179763 26.5401134,24.1881397 Z" id="Path" fill="#D84315"></path>
                                <path d="M17.2268671,25.7980019 C14.1788499,27.2788743 11.0227827,28.5268944 7.7854685,29.5303363 C5.80957602,29.4758925 4.47360801,28.9448556 3.97942561,27.9389011 C2.71716618,25.2669653 12.6527472,13.4283626 16.9161184,9.20184565 L18.1783779,8.46978558 C24.9855325,8.25033493 33.3288408,8.5795109 34.2434973,10.5009594 C35.7804887,13.6846673 28.1692404,20.5278387 17.2268671,25.7980019 Z" id="Path" fill="#FF5722"></path>
                                <path d="M20.589821,5.54238238 C20.589821,7.56350522 18.9514802,9.20184565 16.9303575,9.20184565 C14.9092349,9.20184565 13.2708942,7.56350522 13.2708942,5.54238238 C13.2708942,3.52125975 14.9092349,1.8829191 16.9303575,1.8829191 C18.9514802,1.8829191 20.589821,3.52125975 20.589821,5.54238238 Z" id="Path" fill="#FFEB3A"></path>
                                <path d="M65.0754599,64.426322 L63.1883528,100.654925 C62.9915174,102.803363 61.1513158,104.424951 58.9945023,104.349568 L35.3382372,104.349568 C33.1830988,104.419088 31.3470851,102.796662 31.1510874,100.649899 L29.3217745,65.6885812 C33.4569932,68.067358 37.7203642,69.9259868 40.8487908,69.9259868 C49.2473806,69.9259868 53.4454191,64.0946332 61.8440089,64.0946332 C62.9286975,64.101334 64.0108736,64.211897 65.0754599,64.426322 Z" id="Path" fill="#FF5722"></path>
                                <path d="M0.866913431,33.5374025 C1.2723106,33.8054337 1.76733076,33.9009197 2.24308612,33.8037586 C2.71884148,33.7057596 3.13596491,33.4234893 3.40315856,33.0180921 L4.83545012,30.8445266 C5.96118111,31.2206078 7.14303119,31.3990163 8.3290692,31.3730507 C9.73707049,31.3571363 11.1408838,31.2164199 12.5245949,30.9525766 L12.3528874,31.8412677 C12.2590765,32.3178606 12.3587507,32.8120432 12.6301322,33.2149276 C12.9015138,33.6186494 13.3211501,33.8967318 13.797743,33.9897052 C13.9141691,34.0114828 14.0314327,34.0223715 14.1495339,34.0223715 C15.0231481,34.0215338 15.774473,33.4025494 15.9428301,32.544012 L16.4361751,30.0228436 C19.5922424,29.1107 22.6754386,27.9665417 25.6623113,26.5995827 L31.3144188,38.47839 C29.8134441,38.4817404 28.3786397,39.0998873 27.3458821,40.188764 C26.3122869,41.2776407 25.7703613,42.7425988 25.8449074,44.2418981 L29.1567677,104.610898 C29.2966465,107.539976 31.7139529,109.842532 34.6463816,109.839181 L64.2571272,109.839181 C67.1870432,109.848395 69.6060247,107.550865 69.7467411,104.6243 L72.0652109,62.2318164 C83.8594207,61.8817008 93.2664779,52.2669194 93.3586135,40.4676839 C93.4507492,28.6676108 84.1961348,18.9070875 72.4086257,18.3718629 C60.6202791,17.8366381 50.5196912,26.7185216 49.5422149,38.47839 L35.3600146,38.47839 L28.9557443,25.0181987 C31.8940364,23.5323009 34.7184149,21.8294653 37.4037524,19.9247685 L39.668616,21.1049433 C40.5656829,21.571485 41.670474,21.2230445 42.1370158,20.3268153 C42.604395,19.4305861 42.2559545,18.325795 41.3597253,17.8584155 L40.5690333,17.4362664 C40.6921602,17.3282164 40.8270133,17.2201664 40.9476274,17.1121163 C42.8598622,15.5902016 44.3574867,13.6117965 45.3031342,11.3594967 L47.8645071,11.5915114 L48.0311891,11.5915114 C49.0413317,11.635904 49.8965187,10.8527503 49.9409113,9.84260788 C49.9861417,8.83162768 49.2021504,7.97644072 48.1920078,7.93204811 L44.9094633,7.6355385 C42.1353405,4.17709862 28.2019068,4.87062932 22.3923308,5.32879497 C22.3169469,2.75737086 20.4666941,0.58380538 17.9405002,0.0988366082 C15.4151438,-0.386132378 12.8906251,0.948160331 11.868756,3.30767234 C10.8460495,5.66802211 11.5998873,8.42120503 13.6813171,9.93223064 C9.73958333,14.209841 1.22205476,24.0524488 2.15346314,28.2295474 L0.340064678,30.9743543 C0.0644949513,31.3822643 -0.0351789864,31.8848228 0.0644949513,32.3672789 C0.163331559,32.8497351 0.453140175,33.2718842 0.866913431,33.5374025 Z M66.0856025,104.437515 C66.0386971,105.413316 65.2329282,106.180556 64.2554519,106.17888 L34.6405183,106.17888 C33.6588541,106.179718 32.8514102,105.405778 32.8112055,104.424951 L30.6887336,65.7028203 C36.4103619,69.5272904 40.7792703,71.4135599 43.9596279,71.4135599 C47.4741868,71.2820572 50.8999604,70.2761027 53.9262002,68.4861567 C56.4507188,66.9600543 59.3119518,66.0805768 62.257782,65.9247838 C64.2772295,66.0118939 66.2623356,66.4750853 68.1125884,67.28923 L66.0856025,104.437515 Z M73.038499,44.5258437 L77.7667367,49.2557567 C76.2624116,50.3320694 74.5084826,51.0046602 72.6707937,51.2098715 L73.038499,44.5258437 Z M80.3574256,46.6667429 L75.8235105,42.1378533 L82.2277809,42.1378533 C81.9580744,43.7711683 81.3156371,45.3207237 80.3515626,46.6667429 L80.3574256,46.6667429 Z M75.8235105,38.47839 L80.3540754,33.9495005 C81.3156371,35.2955197 81.9555618,36.8450749 82.2235929,38.47839 L75.8235105,38.47839 Z M73.236172,35.8910513 L73.236172,29.4867812 C74.869487,29.7539748 76.4190424,30.3947368 77.7642238,31.3588116 L73.236172,35.8910513 Z M69.5767088,35.8910513 L65.0461439,31.3604867 C66.3930006,30.3980872 67.942556,29.7581628 69.5767088,29.4901316 L69.5767088,35.8910513 Z M62.4604807,33.9495005 L66.98937,38.47839 L60.5850999,38.47839 C60.8548064,36.8450749 61.4964059,35.2955197 62.4604807,33.9495005 Z M71.4060216,22.0103863 C81.3541667,21.9869334 89.495614,29.919819 89.7293038,39.8646137 C89.9629935,49.8102461 82.2043281,58.1175377 72.2662343,58.5614644 L72.4672577,54.9020012 C80.1597528,54.3483493 86.1025066,47.9214638 86.0547636,40.2097041 C86.0061829,32.4979441 79.9830197,26.1464425 72.2846613,25.6891144 C64.5863029,25.2326236 57.8536946,30.8260996 56.8921327,38.47839 L53.2016782,38.47839 C54.1523514,29.1341527 62.0140413,22.0221126 71.4060216,22.0103863 Z M67.563962,42.1378533 C68.0623325,42.1370158 68.539763,42.340552 68.8848531,42.6998813 C69.2299433,43.0592105 69.4142147,43.5441795 69.3932749,44.0425501 L68.3303637,63.4379568 C66.3862998,62.7100846 64.3333486,62.3130635 62.257782,62.2653203 C58.743223,62.3968233 55.3174495,63.4027778 52.2903721,65.1927235 C49.766691,66.7188262 46.9054581,67.5983034 43.9596279,67.7540967 C42.3774061,67.7540967 38.5286459,66.8595426 30.4357791,61.0809576 L29.5026956,44.0551139 C29.4784051,43.5542307 29.6610015,43.0659113 30.0069292,42.7032317 C30.3536946,42.3413896 30.8336379,42.1370158 31.3345211,42.1378533 L33.0582968,42.1378533 L38.6534479,53.9010721 C38.9239919,54.5074927 39.501934,54.9195906 40.1636361,54.9773848 C40.825338,55.0360167 41.4661,54.7311313 41.8388311,54.1816673 C42.2115619,53.6322034 42.256792,52.9244334 41.9577698,52.3314146 L37.1055677,42.1378533 L67.563962,42.1378533 Z M16.9303575,3.71306951 C17.9413377,3.71306951 18.7605081,4.53223994 18.7605081,5.54238238 C18.7605081,6.55336257 17.9413377,7.37253279 16.9303575,7.37253279 C15.9202151,7.37253279 15.1010447,6.55336257 15.1010447,5.54238238 C15.1010447,4.53223994 15.9202151,3.71306951 16.9303575,3.71306951 Z M17.7612542,10.947399 C19.0419409,10.7488882 20.2095517,10.0997501 21.0546874,9.11808612 C27.4790601,8.35335947 39.8101699,8.39691454 41.9142147,9.79486487 C41.9142147,10.235441 41.4217074,11.7598684 38.4909538,14.3983005 C37.777321,15.0390626 36.9790905,15.678987 36.123066,16.332313 C36.09375,16.3549282 36.0661093,16.3750306 36.0384685,16.3984831 C32.8112055,18.7663712 29.3644919,20.8201602 25.7460708,22.5338847 L25.7318317,22.5338847 C22.1343505,24.3062409 18.3727005,25.7242934 14.5004873,26.7679399 L14.4602827,26.7788286 C9.44307372,28.0595151 6.29203216,27.9238242 5.701526,27.2654727 C5.87909667,25.0114979 12.6711745,16.1204009 17.7612542,10.947399 Z" id="Shape" fill="#000000" fill-rule="nonzero"></path>
                            </g>
                        </g>
                    </g>
                </g>
            </g>
        </g>
    </g>
</svg>