<?xml version="1.0" encoding="UTF-8"?>
<svg width="221px" height="223px" viewBox="0 0 221 223" version="1.1" xmlns="http://www.w3.org/2000/svg" xmlns:xlink="http://www.w3.org/1999/xlink">
    <!-- Generator: Sketch 52.6 (67491) - http://www.bohemiancoding.com/sketch -->
    <title>Group 2</title>
    <desc>Created with Sketch.</desc>
    <g id="Symbols" stroke="none" stroke-width="1" fill="none" fill-rule="evenodd">
        <g id="Full-Futer" transform="translate(-875.000000, -503.000000)">
            <g transform="translate(-82.000000, 176.000000)" id="Group-12">
                <g transform="translate(0.000000, 112.000000)">
                    <g id="Group-2" transform="translate(871.000000, 140.000000)">
                        <g id="Group-15" transform="translate(192.000000, 192.000000) rotate(-30.000000) translate(-192.000000, -192.000000) translate(52.000000, 52.000000)">
                            <g transform="translate(-37.000000, -115.000000)" id="Triangle">
                                <path d="M258.118252,203.372113 L272.563282,232.235813 C293.912638,274.895567 276.637148,326.785204 233.977393,348.13456 C221.976371,354.140552 208.740966,357.267559 195.320964,357.267559 L166.87955,357.267559 C119.175781,357.267559 80.5042342,318.596012 80.5042342,270.892242 C80.5042342,257.47224 83.6312412,244.236835 89.6372323,232.235813 L104.082262,203.372113 C125.369617,160.836249 177.108559,143.610928 219.644423,164.898283 C236.289576,173.228461 249.788074,186.726959 258.118252,203.372113 Z" fill="#FFFFFF"></path>
                                <path d="M254.278742,183.955901 L287.105105,249.617594 C305.592357,286.597146 290.601385,331.561875 253.621833,350.049126 C243.237199,355.240734 231.78734,357.945737 220.177285,357.950325 L154.472628,357.97629 C113.129364,357.992628 79.6007823,324.490535 79.5844445,283.147271 C79.5798438,271.505232 82.290679,260.022578 87.5015269,249.611807 L120.37982,183.924149 C138.884608,146.953369 183.856441,131.983724 220.827221,150.488512 C235.303012,157.734003 247.040117,169.476675 254.278742,183.955901 Z" fill="#FFFFFF" opacity="0.300000012" transform="translate(187.303575, 250.265673) rotate(30.000000) translate(-187.303575, -250.265673) "></path>
                                <path d="M258.587343,193.725778 L281.154143,238.906785 C301.191052,279.022696 284.913805,327.786191 244.797894,347.8231 C233.541471,353.445406 221.132383,356.374634 208.549961,356.379609 L163.380646,356.397467 C118.539105,356.415195 82.1734831,320.078316 82.1557548,275.236776 C82.1507666,262.619651 85.0863157,250.174983 90.7294817,238.89019 L113.331997,193.691326 C133.387934,153.584924 182.159145,137.330811 222.265547,157.386747 C237.987223,165.248658 250.732892,178.000374 258.587343,193.725778 Z" stroke="#FFFFFF" stroke-width="0.575835441" transform="translate(185.942109, 252.596352) rotate(60.000000) translate(-185.942109, -252.596352) "></path>
                            </g>
                        </g>
                        <g id="flaticon1543344972-svg" transform="translate(137.000000, 141.000000)">
                            <g id="flaticon1543346029-svg" transform="translate(2.291667, 0.000000)">
                                <path d="M91.9028516,8.30822266 L91.9028516,24.8047852 C91.9028516,32.364707 85.7716406,38.4957031 78.2095703,38.4957031 C76.1840234,38.4957031 74.2631055,38.0557031 72.5336133,37.2672266 L72.5336133,37.2650781 C68.3497461,35.3570508 65.2938086,31.4041406 64.6471289,26.6820898 C64.0395508,26.46875 63.4689258,26.1200586 62.9810156,25.6323633 C61.2560352,23.9095313 61.2560352,21.1129102 62.9810156,19.3900781 C64.7038477,17.6629492 67.5026172,17.6629492 69.2275977,19.3900781 L70.3776563,12.797168 L71.1618359,8.30822266 L91.9028516,8.30822266 Z" id="Path" fill="#FCD2BE"></path>
                                <path d="M72.5338281,37.2650781 C68.3499609,35.3570508 65.2940234,31.4041406 64.6473437,26.6820898 C64.0397656,26.46875 63.4691406,26.1200586 62.9812305,25.6323633 C61.25625,23.9095312 61.25625,21.1129102 62.9812305,19.3900781 C64.7040625,17.6629492 67.502832,17.6629492 69.2278125,19.3900781 L70.3778711,12.797168 L73.9825195,13.5289258 C72.4663672,16.149375 66.0650977,25.7129297 72.5338281,37.2650781 Z" id="Path" fill="#FAB998"></path>
                                <path d="M98.3041211,1.6328125 C98.3041211,8.20380859 92.9766406,13.5291406 86.407793,13.5291406 L73.9823047,13.5291406 L73.9823047,14.6334375 C73.9823047,17.2601172 71.8521289,19.3881445 69.2254492,19.3881445 C67.9535742,18.1162695 66.0956055,17.7830469 64.5186523,18.3884766 L64.5186523,13.5291406 C64.5186523,6.96029297 69.8461328,1.6328125 76.4149805,1.6328125 C76.4149805,1.6328125 98.3041211,1.6328125 98.3041211,1.6328125 Z" id="Path" fill="#50515B"></path>
                                <path d="M86.1244141,1.6328125 L76.4149805,1.6328125 C69.8461328,1.6328125 64.5186523,6.96029297 64.5186523,13.5291406 L64.5186523,18.3882617 C66.0956055,17.782832 67.9533594,18.1160547 69.2254492,19.3879297 C71.8521289,19.3879297 73.9823047,17.2599023 73.9823047,14.6332227 L73.9823047,13.5289258 L74.2283008,13.5289258 C74.2280859,6.96029297 79.5555664,1.6328125 86.1244141,1.6328125 Z" id="Path" fill="#393A42"></path>
                                <path d="M88.8232812,71.4533789 C88.8232812,71.4533789 80.4291211,75.6503516 71.9305469,74.0083008 C68.7506445,73.3962109 65.5554883,71.9653516 62.7807812,69.1904297 C62.7807812,69.1904297 65.4401172,51.3764453 70.423418,40.9655469 C71.0855664,39.5825977 71.7889648,38.3300586 72.5338281,37.2672266 L75.6331641,37.5067773 L81.8971484,37.9925391 C81.8971484,38.8637305 82.0082227,40.5691602 82.2368164,42.792793 C83.0121875,50.3986914 85.1423633,64.0939062 88.8232812,71.4533789 Z" id="Path" fill="#F9CE55"></path>
                                <path d="M71.9305469,74.0083008 C68.7506445,73.3962109 65.5554883,71.9653516 62.7807812,69.1904297 C62.7807812,69.1904297 66.1937891,46.3256836 72.5338281,37.2672266 L75.6331641,37.5067773 L76.5305664,38.3932227 C74.2108984,43.1567383 68.7790039,61.5892578 71.9305469,74.0083008 Z" id="Path" fill="#E2A11E"></path>
                                <path d="M65.5941602,13.2461914 L44.6829883,19.7258789 L35.3806836,22.6095117 C30.2515039,9.75712891 34.6270117,1.64398437 49.2219922,1.64398437 C63.8148242,1.64398437 65.5941602,8.23689453 65.5941602,13.2461914 Z" id="Path" fill="#F9CE55"></path>
                                <path d="M44.6832031,19.7258789 L35.3808984,22.6095117 C30.2517188,9.75712891 34.6272266,1.64398437 49.222207,1.64398437 C44.0341602,3.12275391 40.7476953,13.9541016 44.6832031,19.7258789 Z" id="Path" fill="#E2A11E"></path>
                                <path d="M65.5941602,13.2461914 L65.5941602,24.805 C65.5941602,32.3649219 59.4629492,38.495918 51.9008789,38.495918 C50.7834766,38.495918 49.6967969,38.3631445 48.6578125,38.108125 C43.2540625,36.7969336 39.105,32.2798437 38.3384375,26.6823047 C37.7308594,26.4689648 37.1602344,26.1202734 36.6723242,25.6325781 C34.9473437,23.9097461 34.9473437,21.113125 36.6723242,19.390293 C37.1254297,18.9371875 37.650293,18.6018164 38.2099609,18.3884766 C39.7869141,17.7830469 41.644668,18.1162695 42.9167578,19.3881445 C42.9167578,18.5431641 43.3894141,16.8551367 44.4915625,15.1280078 C47.1423047,10.9746484 53.4408789,6.60558594 65.5941602,13.2461914 Z" id="Path" fill="#FCD2BE"></path>
                                <path d="M48.6580273,38.1083398 C43.2542773,36.7971484 39.1052148,32.2800586 38.3386523,26.6825195 C37.7310742,26.4691797 37.1604492,26.1204883 36.6725391,25.632793 C34.9475586,23.9099609 34.9475586,21.1133398 36.6725391,19.3905078 C37.1256445,18.9374023 37.6505078,18.6020312 38.2101758,18.3886914 C39.7871289,17.7832617 41.6448828,18.1164844 42.9169727,19.3883594 C42.9169727,18.5433789 43.3896289,16.8553516 44.4917773,15.1282227 C43.2501953,22.9732422 43.4437695,34.7258398 48.6580273,38.1083398 Z" id="Path" fill="#FAB998"></path>
                                <path d="M65.557207,79.8935156 C56.0611133,82.0670898 47.9458203,81.8363477 42.3809375,81.1284375 C37.3561719,80.4882031 34.4115234,79.4578125 34.4115234,79.4578125 C34.4115234,50.4902148 45.6325977,36.9799805 45.6325977,36.9799805 L48.1219922,37.2543359 L55.3551367,38.055918 C56.8038281,54.5065039 65.557207,79.8935156 65.557207,79.8935156 Z" id="Path" fill="#00C7A9"></path>
                                <path d="M42.3811523,81.1284375 C37.3563867,80.4882031 34.4117383,79.4578125 34.4117383,79.4578125 C34.4117383,50.4902148 45.6328125,36.9799805 45.6328125,36.9799805 L48.122207,37.2543359 L48.6580273,38.108125 C48.6580273,38.1083398 38.5608008,59.7469727 42.3811523,81.1284375 Z" id="Path" fill="#04AF92"></path>
                                <path d="M38.284082,13.2461914 C39.4023438,9.10787109 38.9664258,1.64419922 27.4230859,1.64419922 C15.8797461,1.64419922 4.55404297,2.57404297 2.15832031,19.5625977 C-0.237402344,36.5511523 10.9071875,52.4506641 10.9071875,52.4506641" id="Path" fill="#3FACC9"></path>
                                <path d="M10.9074023,52.4504492 L14.2374805,47.6807031 C13.3879883,38.1147852 10.8768945,2.86365234 19.9112891,1.94240234 C11.319043,2.83529297 4.02488281,6.32027344 2.15832031,19.5625977 C-0.237617187,36.5509375 10.9074023,52.4504492 10.9074023,52.4504492 Z" id="Path" fill="#369AB2"></path>
                                <path d="M9.36332031,25.6325781 C9.85123047,26.1204883 10.4218555,26.4689648 11.0294336,26.6823047 C11.7959961,32.2798438 15.9452734,36.7969336 21.3488086,38.108125 C22.387793,38.3629297 23.4744727,38.495918 24.591875,38.495918 C32.1539453,38.495918 38.2851562,32.364707 38.2851562,24.805 L38.2851562,13.2461914 C38.2851562,13.2461914 32.2149609,13.464043 29.8192383,11.0681055 C26.340918,15.5832617 21.8216797,16.2127539 18.8246094,16.0166016 C18.8246094,16.0144531 18.8246094,16.0144531 18.8246094,16.0144531 C16.9058398,15.888125 15.6099023,15.4242773 15.6099023,15.4242773 L15.6099023,19.3905078 L15.6077539,19.3883594 C14.3358789,18.1164844 12.4779102,17.7832617 10.900957,18.3886914 C10.3412891,18.6020312 9.81621094,18.9376172 9.36332031,19.3905078 C7.63833984,21.1133398 7.63833984,23.9097461 9.36332031,25.6325781 Z" id="Path" fill="#FCD2BE"></path>
                                <path d="M9.36332031,25.6325781 C9.85123047,26.1204883 10.4218555,26.4689648 11.0294336,26.6823047 C11.7959961,32.2798437 15.9452734,36.7969336 21.3488086,38.108125 C14.2376953,34.2074219 18.7635937,16.2585156 18.8246094,16.0166016 C18.8246094,16.0144531 18.8246094,16.0144531 18.8246094,16.0144531 C16.9058398,15.888125 15.6099023,15.4242773 15.6099023,15.4242773 L15.6099023,19.3905078 L15.6077539,19.3883594 C14.3358789,18.1164844 12.4779102,17.7832617 10.900957,18.3886914 C10.3412891,18.6020312 9.81621094,18.9376172 9.36332031,19.3905078 C7.63833984,21.1133398 7.63833984,23.9097461 9.36332031,25.6325781 Z" id="Path" fill="#FAB998"></path>
                                <path d="M38.2471289,79.8935156 C28.7510352,82.0670898 20.6357422,81.8363477 15.0708594,81.1284375 C10.0460937,80.4882031 7.10144531,79.4578125 7.10144531,79.4578125 C7.10144531,50.4902148 18.3225195,36.9799805 18.3225195,36.9799805 L20.8119141,37.2543359 L28.0450586,38.055918 C29.4935352,54.5065039 38.2471289,79.8935156 38.2471289,79.8935156 Z" id="Path" fill="#EF4A6E"></path>
                                <path d="M15.0708594,81.1284375 C10.0460937,80.4882031 7.10144531,79.4578125 7.10144531,79.4578125 C7.10144531,50.4902148 18.3225195,36.9799805 18.3225195,36.9799805 L20.8119141,37.2543359 L21.3477344,38.108125 C21.3479492,38.1083398 11.2505078,59.7469727 15.0708594,81.1284375 Z" id="Path" fill="#D8254F"></path>
                                <path d="M68.0040625,6.75146484 C68.4219336,6.75146484 68.8402344,6.59205078 69.1592773,6.27300781 C71.0973828,4.3346875 73.6740039,3.26734375 76.4154102,3.26734375 L80.8972656,3.26734375 C81.7996094,3.26734375 82.5307227,2.53601562 82.5307227,1.63388672 C82.5307227,0.731757813 81.7996094,0.0004296875 80.8972656,0.0004296875 L76.4154102,0.0004296875 C72.8015234,0.0004296875 69.4041992,1.40765625 66.8488477,3.96300781 C66.2109766,4.60087891 66.2109766,5.63535156 66.8490625,6.27300781 C67.1678906,6.59205078 67.5859766,6.75146484 68.0040625,6.75146484 Z" id="Path" fill="#000000"></path>
                                <path d="M86.1244141,3.26734375 L96.5398242,3.26734375 C95.7552148,8.15246094 91.510332,11.8956836 86.4075781,11.8956836 L73.981875,11.8956836 C73.0795313,11.8956836 72.348418,12.6270117 72.348418,13.5291406 L72.348418,14.632793 C72.348418,16.2331641 71.1023242,17.5987109 69.5118359,17.7422266 C68.6133594,17.8230078 67.9505664,18.6170703 68.0313477,19.5155469 C68.107832,20.3643945 68.8204688,21.0026953 69.6564258,21.0026953 C69.705625,21.0026953 69.7548242,21.0005469 69.8048828,20.9960352 C72.9400977,20.7137305 75.3452734,18.2483984 75.5942773,15.1628125 L86.407793,15.1628125 C93.8680273,15.1628125 99.9369336,9.09369141 99.9369336,1.63367187 C99.9369336,0.731542969 99.2058203,0.00021484375 98.3034766,0.00021484375 L86.1244141,0.00021484375 C85.2220703,0.00021484375 84.490957,0.731542969 84.490957,1.63367187 C84.490957,2.53580078 85.2220703,3.26734375 86.1244141,3.26734375 Z" id="Path" fill="#000000"></path>
                                <path d="M81.8507422,21.605332 L81.8507422,19.3404492 C81.8507422,18.4383203 81.1196289,17.7069922 80.2172852,17.7069922 C79.3149414,17.7069922 78.5838281,18.4383203 78.5838281,19.3404492 L78.5838281,21.6051172 C78.5838281,22.5072461 79.3149414,23.2385742 80.2172852,23.2385742 C81.1196289,23.2385742 81.8507422,22.5074609 81.8507422,21.605332 Z" id="Path" fill="#000000"></path>
                                <path d="M87.7385352,21.605332 L87.7385352,19.3404492 C87.7385352,18.4383203 87.0074219,17.7069922 86.1050781,17.7069922 C85.2027344,17.7069922 84.4716211,18.4383203 84.4716211,19.3404492 L84.4716211,21.6051172 C84.4716211,22.5072461 85.2027344,23.2385742 86.1050781,23.2385742 C87.0074219,23.2385742 87.7385352,22.5074609 87.7385352,21.605332 Z" id="Path" fill="#000000"></path>
                                <path d="M76.6532422,27.8433203 C76.2055078,27.0597852 75.2075586,26.787793 74.424668,27.2355273 C73.6411328,27.6830469 73.3689258,28.6807813 73.816875,29.4643164 C75.2170117,31.9148242 77.6153125,33.298418 80.7526758,33.4657813 C80.7823242,33.4672852 80.8117578,33.4681445 80.8411914,33.4681445 C81.7031445,33.4681445 82.4245898,32.7926758 82.4707813,31.9214844 C82.5189062,31.0206445 81.8275391,30.2512891 80.9264844,30.2031641 C78.9247852,30.0963867 77.4870508,29.3023242 76.6532422,27.8433203 Z" id="Path" fill="#000000"></path>
                                <path d="M93.5365234,24.8047852 L93.5365234,17.1054297 C93.5365234,16.2033008 92.8054102,15.4719727 91.9030664,15.4719727 C91.0007227,15.4719727 90.2696094,16.2033008 90.2696094,17.1054297 L90.2696094,24.8047852 C90.2696094,31.4533398 84.8596289,36.8622461 78.21,36.8622461 C74.5275781,36.8622461 71.094375,35.2111719 68.7906055,32.3322656 C68.2270703,31.627793 67.1988281,31.5137109 66.4947852,32.0774609 C65.7903125,32.6412109 65.6760156,33.6692383 66.2399805,34.3734961 C69.1667969,38.0314258 73.5300586,40.129375 78.2102148,40.129375 C86.6608789,40.129375 93.5365234,33.2548047 93.5365234,24.8047852 Z" id="Path" fill="#000000"></path>
                                <path d="M68.8320703,40.5122266 C65.9361914,46.6679297 63.8333008,55.1733789 62.5792578,61.2244531 C62.3959961,62.1078906 62.9638281,62.9724219 63.8470508,63.1554687 C63.9589844,63.178457 64.0702734,63.1896289 64.1802734,63.1896289 C64.9382422,63.1896289 65.6182227,62.65875 65.7780664,61.8874609 C66.9966602,56.0089062 69.0282227,47.7698633 71.7881055,41.9029102 C72.1722461,41.0865039 71.8216211,40.1134766 71.0054297,39.7295508 C70.1885937,39.3451953 69.2159961,39.6958203 68.8320703,40.5122266 Z" id="Path" fill="#000000"></path>
                                <path d="M103.415469,47.8164844 C103.34543,47.7988672 102.78125,47.6680273 101.953887,47.7408594 L101.953887,45.9888086 C101.953887,45.0866797 101.222773,44.3553516 100.32043,44.3553516 C99.4180859,44.3553516 98.6869727,45.0866797 98.6869727,45.9888086 L98.6869727,49.057207 C97.3927539,50.0562305 96.0757617,51.7708984 95.0842578,54.6826758 C94.4738867,56.4746875 93.3841992,57.4232227 91.7522461,57.582207 C89.4267773,57.8086523 86.6555078,56.343418 85.6423047,54.8637891 C84.833418,50.5948438 84.2331445,46.2799219 83.8599609,42.6204883 C83.7684375,41.7228711 82.9685742,41.0688867 82.0692383,41.1610547 C81.1718359,41.2525781 80.5182812,42.0541602 80.6100195,42.9517773 C80.9275586,46.0676563 82.6460937,61.3312305 86.6368164,70.6157031 C83.3505664,71.9021875 75.1115234,74.4538867 68.1443555,71.0537695 C67.33375,70.6578125 66.3555664,70.9946875 65.9600391,71.8055078 C65.5645117,72.6161133 65.900957,73.5942969 66.7117773,73.9900391 C67.0682031,74.1638477 67.4263477,74.3234766 67.7859961,74.4719336 C69.0116797,77.3957422 74.3112305,91.9589258 65.8221094,107.58666 C65.5473242,108.092832 65.5591406,108.706426 65.8536914,109.201426 C66.148457,109.696426 66.6816992,109.999785 67.2576953,109.999785 L72.919043,109.999785 C73.8213867,109.999785 74.5525,109.268457 74.5525,108.366328 C74.5525,107.464199 73.8213867,106.732871 72.919043,106.732871 L69.9080078,106.732871 C74.0749023,97.7685156 74.1969336,89.3713477 73.4958984,83.7147266 C73.078457,80.348125 72.3413281,77.5772852 71.7004492,75.6314453 C73.1800781,75.9131055 74.6508984,76.0329883 76.0770312,76.0329883 C78.6175586,76.0329883 81.0132812,75.6580859 83.0628906,75.168457 C84.6286719,79.2545703 88.7684961,92.9542969 80.8199219,107.586445 C80.5451367,108.092617 80.5569531,108.706211 80.8515039,109.201211 C81.1462695,109.696211 81.6795117,109.99957 82.2555078,109.99957 L87.9170703,109.99957 C88.8194141,109.99957 89.5505273,109.268242 89.5505273,108.366113 C89.5505273,107.463984 88.8194141,106.732656 87.9170703,106.732656 L84.90625,106.732656 C89.0733594,97.7683008 89.1953906,89.3711328 88.4943555,83.7145117 C87.9658398,79.4522266 86.9251367,76.1457813 86.216582,74.2592383 C88.1594141,73.5998828 89.3990625,72.9916602 89.5541797,72.9138867 C89.941543,72.7200977 90.2365234,72.3804297 90.3735937,71.9692188 C90.5106641,71.5582227 90.4786523,71.1096289 90.2848633,70.7220508 C88.8776367,67.9075977 87.6669922,63.9894922 86.6705469,59.7373047 C88.078418,60.4301758 89.6796484,60.8718945 91.2690625,60.8716797 C91.5367578,60.8716797 91.8042383,60.8590039 92.07,60.8332227 C94.9860742,60.5489844 97.1551367,58.7384961 98.1775781,55.7349805 C98.6538867,54.3363477 99.1918555,53.345918 99.7261719,52.6457422 L102.576289,52.9145117 C103.43502,52.9963672 104.212754,52.3917969 104.344238,51.5365039 L104.634492,49.6488867 C104.761895,48.8157227 104.234023,48.0212305 103.415469,47.8164844 Z" id="Path" fill="#000000"></path>
                                <path d="M55.5420508,21.6055469 L55.5420508,19.3408789 C55.5420508,18.43875 54.8109375,17.7074219 53.9085938,17.7074219 C53.00625,17.7074219 52.2751367,18.43875 52.2751367,19.3408789 L52.2751367,21.6055469 C52.2751367,22.5076758 53.00625,23.2390039 53.9085938,23.2390039 C54.8109375,23.2390039 55.5420508,22.5076758 55.5420508,21.6055469 Z" id="Path" fill="#000000"></path>
                                <path d="M61.4298437,21.6055469 L61.4298437,19.3408789 C61.4298437,18.43875 60.6987305,17.7074219 59.7963867,17.7074219 C58.894043,17.7074219 58.1629297,18.43875 58.1629297,19.3408789 L58.1629297,21.6055469 C58.1629297,22.5076758 58.894043,23.2390039 59.7963867,23.2390039 C60.6987305,23.2390039 61.4298437,22.5076758 61.4298437,21.6055469 Z" id="Path" fill="#000000"></path>
                                <path d="M50.3445508,27.8435352 C49.8970312,27.06 48.899082,26.7880078 48.1159766,27.2357422 C47.3324414,27.6832617 47.0602344,28.6809961 47.5081836,29.4645313 C48.9085352,31.9148242 51.3066211,33.2986328 54.4439844,33.4662109 C54.4736328,33.4677148 54.5030664,33.4685742 54.5325,33.4685742 C55.394668,33.4685742 56.1156836,32.7933203 56.1620898,31.9221289 C56.2102148,31.0212891 55.5188477,30.2519336 54.617793,30.2038086 C52.5877344,30.0950977 51.1901758,29.3231641 50.3445508,27.8435352 Z" id="Path" fill="#000000"></path>
                                <path d="M57.1260937,106.733086 L54.1174219,106.733086 C58.3537109,97.6383203 58.4793945,89.0720703 57.5912305,82.8727539 C60.2127539,82.5971094 63.0031445,82.1538867 65.9220117,81.4857227 C66.3738281,81.382168 66.7605469,81.0916992 66.9854883,80.6862891 C67.2104297,80.2808789 67.2529687,79.7991992 67.1017187,79.360918 C67.0275977,79.1462891 59.6795117,57.7214258 57.4348242,41.806875 C57.3089258,40.9135547 56.4832812,40.2913672 55.5888867,40.4174805 C54.6955664,40.5435937 54.0735937,41.369668 54.1994922,42.2632031 C55.3976758,50.7576953 58.0030859,60.6841211 59.9777148,67.5157227 C61.397832,72.4276953 62.7051562,76.4925391 63.4274609,78.680293 C54.7166211,80.4301953 47.3491992,80.1145898 42.5869727,79.5078711 C41.6955859,79.3942187 40.8744531,80.0269336 40.7603711,80.9217578 C40.6462891,81.8167969 41.2794336,82.6344922 42.1742578,82.7485742 C42.6417578,82.8080859 43.1341797,82.8645898 43.6478711,82.9174414 C44.6103711,89.1648828 44.4999414,98.1674805 39.3832227,107.58666 C39.1084375,108.092832 39.1202539,108.706426 39.4148047,109.201426 C39.7095703,109.696426 40.2428125,109.999785 40.8188086,109.999785 L46.4816602,109.999785 C47.3840039,109.999785 48.1151172,109.268457 48.1151172,108.366328 C48.1151172,107.464199 47.3840039,106.732871 46.4816602,106.732871 L43.4708398,106.732871 C47.6405273,97.7805469 47.8272266,89.344707 46.9848242,83.1711719 C48.0422852,83.2240234 49.1635547,83.2547461 50.342832,83.2547461 C51.6061133,83.2547461 52.9381445,83.2180078 54.3271094,83.1376562 C55.2522266,89.3765039 55.0863672,98.2791992 50.0298047,107.58666 C49.7548047,108.092832 49.7666211,108.706426 50.0611719,109.201426 C50.3559375,109.696426 50.8891797,109.999785 51.4651758,109.999785 L57.1258789,109.999785 C58.0282227,109.999785 58.7593359,109.268457 58.7593359,108.366328 C58.7593359,107.464844 58.0284375,106.733086 57.1260937,106.733086 Z" id="Path" fill="#000000"></path>
                                <path d="M41.8433984,4.25068359 C43.8809766,3.60507812 46.3632812,3.27787109 49.2211328,3.27787109 C60.3575586,3.27787109 63.0791992,7.26537109 63.7447852,10.5017773 C59.0296094,8.37052734 54.789668,7.70859375 51.1162695,8.54691406 C46.8963086,9.50962891 44.4357031,12.1792773 43.1146289,14.2495117 C42.0023828,15.9927539 41.2833008,18.0099219 41.2833008,19.3883594 C41.2833008,20.2904883 42.0144141,21.0218164 42.9167578,21.0218164 C43.8191016,21.0218164 44.5502148,20.2904883 44.5502148,19.3883594 C44.5502148,18.9591016 44.8722656,17.5677734 45.8684961,16.0069336 C47.8811523,12.8528125 52.8822852,8.52005859 63.9607031,14.228457 L63.9607031,24.8052148 C63.9607031,31.4537695 58.5507227,36.8626758 51.9010937,36.8626758 C50.9289258,36.8626758 49.9687891,36.7481641 49.0432422,36.5208594 C45.9812891,35.7779297 43.3672852,33.8916016 41.6824805,31.2090625 C41.2029492,30.4450781 40.1942578,30.2151953 39.4304883,30.6945117 C38.6665039,31.1742578 38.4361914,32.1827344 38.9161523,32.9465039 C41.0562109,36.3539258 44.3791992,38.7507227 48.2687305,39.6945312 C49.4443555,39.9828516 50.6668164,40.1291602 51.9010937,40.1291602 C60.3521875,40.1291602 67.227832,33.2545898 67.227832,24.8045703 L67.227832,13.2459766 C67.227832,9.45441406 66.1839062,6.56498047 64.036543,4.41267578 C61.0811523,1.45083984 56.2351367,0.0107421875 49.2211328,0.0107421875 C46.0279102,0.0107421875 43.2136719,0.389511719 40.8564062,1.13630859 C39.9966016,1.40873047 39.520293,2.32675781 39.7927148,3.18699219 C40.0651367,4.04701172 40.9827344,4.52353516 41.8433984,4.25068359 Z" id="Path" fill="#000000"></path>
                                <path d="M41.7505859,39.9422461 C39.6378125,43.6680664 36.7144336,50.0308789 34.7859961,59.1855859 C34.5999414,60.0683789 35.1649805,60.9348437 36.0477734,61.1206836 C36.1612109,61.1445312 36.2744336,61.1561328 36.3861523,61.1561328 C37.1421875,61.1561328 37.8208789,60.6282617 37.9828711,59.8589062 C39.8247266,51.1145508 42.5938477,45.0780859 44.5925391,41.5537891 C45.0376953,40.7689648 44.7622656,39.7720898 43.9776563,39.3269336 C43.1921875,38.882207 42.1955273,39.1574219 41.7505859,39.9422461 Z" id="Path" fill="#000000"></path>
                                <path d="M16.6675781,39.3271484 C15.8823242,38.882207 14.8854492,39.1574219 14.4407227,39.9422461 C11.6688086,44.8297266 8.01453125,53.2803906 6.34669922,65.7836523 C6.22746094,66.6780469 6.85566406,67.4993945 7.75005859,67.6188477 C7.82332031,67.6287305 7.8959375,67.633457 7.968125,67.633457 C8.77421875,67.633457 9.47568359,67.0366211 9.58525391,66.2157031 C11.1836914,54.2315039 14.6532031,46.1899023 17.2824609,41.5540039 C17.7276172,40.7691797 17.4519727,39.7723047 16.6675781,39.3271484 Z" id="Path" fill="#000000"></path>
                                <path d="M39.6749805,80.6865039 C39.8999219,80.2810937 39.9424609,79.7994141 39.7912109,79.360918 C39.7170898,79.1462891 32.3698633,57.7283008 30.1243164,41.806875 C29.9982031,40.9135547 29.1723437,40.2913672 28.2783789,40.4174805 C27.3850586,40.5435937 26.7630859,41.369668 26.8889844,42.2632031 C28.087168,50.7576953 30.6925781,60.6841211 32.667207,67.5157227 C34.0873242,72.4276953 35.3946484,76.4925391 36.1169531,78.680293 C22.5383984,81.406875 12.0531641,79.1391992 8.74134766,78.2413672 C8.76519531,76.1202148 8.85113281,74.0160352 8.99787109,71.9698633 C9.06253906,71.0698828 8.38513672,70.2882812 7.48537109,70.2238281 C6.58753906,70.1600195 5.80400391,70.8365625 5.73933594,71.7363281 C5.55908203,74.2506445 5.46755859,76.8485352 5.46755859,79.4580273 C5.46755859,80.1521875 5.90648437,80.7705078 6.56132812,80.9997461 C6.84384766,81.0985742 10.4379687,82.3246875 16.3399414,82.9329102 C17.2998633,89.1799219 17.1855664,98.1752148 12.0731445,107.586875 C11.7983594,108.093047 11.8101758,108.706641 12.1047266,109.201641 C12.3994922,109.696641 12.9327344,110 13.5087305,110 L19.171582,110 C20.0739258,110 20.8050391,109.268672 20.8050391,108.366543 C20.8050391,107.464414 20.0739258,106.733086 19.171582,106.733086 L16.1611914,106.733086 C20.3270117,97.7884961 20.5173633,89.3593164 19.6771094,83.1870703 C20.7343555,83.2401367 21.8427344,83.2710742 23.0024609,83.2710742 C24.2822852,83.2710742 25.6244141,83.232832 27.0191797,83.150332 C27.9423633,89.3885352 27.7732812,98.2856445 22.7199414,107.586875 C22.4449414,108.093047 22.4567578,108.706641 22.7513086,109.201641 C23.0460742,109.696641 23.5793164,110 24.1553125,110 L29.8158008,110 C30.7181445,110 31.4492578,109.268672 31.4492578,108.366543 C31.4492578,107.464414 30.7181445,106.733086 29.8158008,106.733086 L26.8073437,106.733086 C31.0419141,97.6421875 31.1693164,89.0795898 30.2824414,82.880918 C32.9084766,82.6007617 35.6945703,82.153457 38.6117187,81.4857227 C39.0633203,81.3823828 39.4500391,81.0919141 39.6749805,80.6865039 Z" id="Path" fill="#000000"></path>
                                <path d="M28.2319727,21.6055469 L28.2319727,19.3408789 C28.2319727,18.43875 27.5008594,17.7074219 26.5985156,17.7074219 C25.6961719,17.7074219 24.9650586,18.43875 24.9650586,19.3408789 L24.9650586,21.6055469 C24.9650586,22.5076758 25.6961719,23.2390039 26.5985156,23.2390039 C27.5008594,23.2390039 28.2319727,22.5076758 28.2319727,21.6055469 Z" id="Path" fill="#000000"></path>
                                <path d="M30.8528516,19.3408789 L30.8528516,21.6055469 C30.8528516,22.5076758 31.5839648,23.2390039 32.4863086,23.2390039 C33.3886523,23.2390039 34.1197656,22.5076758 34.1197656,21.6055469 L34.1197656,19.3408789 C34.1197656,18.43875 33.3886523,17.7074219 32.4863086,17.7074219 C31.5839648,17.7074219 30.8528516,18.4385352 30.8528516,19.3408789 Z" id="Path" fill="#000000"></path>
                                <path d="M23.0344727,27.8435352 C22.5869531,27.06 21.5890039,26.7880078 20.8058984,27.2357422 C20.0223633,27.6832617 19.7501562,28.6809961 20.1981055,29.4645313 C21.598457,31.9148242 23.996543,33.2986328 27.1339062,33.4662109 C27.1635547,33.4677148 27.1929883,33.4685742 27.2224219,33.4685742 C28.084375,33.4685742 28.8056055,32.7931055 28.8520117,31.9221289 C28.9001367,31.0212891 28.2087695,30.2519336 27.3077148,30.2038086 C25.2778711,30.0950977 23.8800977,29.3231641 23.0344727,27.8435352 Z" id="Path" fill="#000000"></path>
                                <path d="M8.14300781,49.4003125 C8.39910156,49.4003125 8.65884766,49.3399414 8.90097656,49.2127539 C9.69955078,48.7933789 10.007207,47.805957 9.58783203,47.007168 C6.74673828,41.5958984 2.21396484,30.8644531 3.77566406,19.7909766 C5.93269531,4.49388672 15.3439258,3.27808594 27.4230859,3.27808594 C31.5242383,3.27808594 34.3556641,4.26013672 35.8387305,6.19716797 C37.1686133,7.93417969 37.1572266,10.1550195 36.9537695,11.5989844 C35.0805469,11.5102539 32.1812305,11.120957 30.9740234,9.91353516 C30.6416602,9.58117188 30.1829687,9.40779297 29.7133203,9.43851563 C29.2443164,9.46880859 28.8111914,9.69976563 28.5245898,10.0720898 C23.6433398,16.4114844 16.4570312,13.9908398 16.1599023,13.8868555 C15.6591016,13.7076758 15.1030859,13.7828711 14.668457,14.0888086 C14.234043,14.3947461 13.9751562,14.8931836 13.9751562,15.4244922 L13.9751562,16.6491016 C12.7862109,16.3468164 11.5081055,16.4054688 10.3178711,16.8622266 C9.52681641,17.1638672 8.81675781,17.6257813 8.20789063,18.2348633 C7.06470703,19.376543 6.435,20.8954883 6.435,22.5117578 C6.435,24.1278125 7.06470703,25.6467578 8.20703125,26.7875781 C8.61416016,27.1949219 9.06748047,27.5367383 9.56205078,27.8100195 C10.9733594,34.8944922 17.2783789,40.1298047 24.5910156,40.1298047 C33.0421094,40.1298047 39.9177539,33.2552344 39.9177539,24.8052148 L39.9177539,18.1951172 C39.9177539,17.2929883 39.1866406,16.5616602 38.2842969,16.5616602 C37.3819531,16.5616602 36.6508398,17.2929883 36.6508398,18.1951172 L36.6508398,24.8054297 C36.6508398,31.4539844 31.2408594,36.8628906 24.5912305,36.8628906 C18.5949414,36.8628906 13.4599609,32.390918 12.6469922,26.4610156 C12.5638477,25.854082 12.1479102,25.3446875 11.5699805,25.1416602 C11.1723047,25.0020117 10.8182422,24.7787891 10.5168164,24.4771484 C9.99173828,23.9525 9.70255859,23.2546875 9.70255859,22.5119727 C9.70255859,21.7692578 9.99173828,21.0712305 10.5178906,20.5459375 C10.7997656,20.2640625 11.1241797,20.0517969 11.4857617,19.9138672 C12.5114258,19.5198437 13.6754492,19.7673437 14.4398633,20.531543 C14.9034961,21.0069922 15.6092578,21.1541602 16.2247852,20.9038672 C16.8400977,20.6533594 17.2425,20.0552344 17.2425,19.3907227 L17.2425,17.5041797 C20.7569141,18.0604102 26.017793,17.5694922 30.0804883,13.2758398 C33.1617773,15.0033984 37.7508398,14.9002734 38.3427344,14.8790039 C39.0585937,14.8532227 39.6743359,14.3640234 39.86125,13.6726562 C40.3175781,11.9844141 41.0914453,7.6828125 38.4329687,4.21072266 C36.2991406,1.42398437 32.5950195,0.0109570312 27.4233008,0.0109570312 C21.6377734,0.0109570312 15.5744531,0.224941406 10.6124219,2.78072266 C4.99833984,5.67251953 1.70392578,11.0872266 0.540761719,19.3344336 C-1.14876953,31.3151953 3.67167969,42.7661523 6.69539063,48.5256836 C6.98757813,49.0821289 7.55541016,49.4003125 8.14300781,49.4003125 Z" id="Path" fill="#000000"></path>
                                <path d="M14.2194336,67.4540625 C15.1877344,67.8897656 16.0913672,68.0702344 16.9324805,68.0702344 C19.5329492,68.0700195 21.5333594,66.34375 22.9756055,65.0985156 C23.8485156,64.3448437 24.8447461,63.4912695 25.3698242,63.5342383 C25.6284961,63.555293 26.0087695,63.8459766 26.4131055,64.3308789 C26.9906055,65.0239648 28.0207812,65.1174219 28.7136523,64.539707 C29.4065234,63.9619922 29.5001953,62.9320312 28.9224805,62.2391602 C27.9043359,61.0175586 26.8296875,60.3760352 25.6370898,60.2782812 C23.7391602,60.1225195 22.2659766,61.3950391 20.8404883,62.6254492 C18.8458789,64.3476367 17.5233008,65.357832 15.5596289,64.4746094 C15.0766602,64.2571875 14.8106836,63.9435156 14.6695313,63.4255273 C13.8492578,60.4127734 17.6947461,53.4316406 20.3111133,49.7391211 C20.8329688,49.0032813 20.659375,47.9838477 19.9239648,47.4619922 C19.1879102,46.9399219 18.1682617,47.1135156 17.6464063,47.8491406 C16.8620117,48.9545117 10.0280469,58.8072461 11.5171289,64.2823242 C11.9135156,65.7400391 12.8480859,66.8370312 14.2194336,67.4540625 Z" id="Path" fill="#000000"></path>
                            </g>
                        </g>
                    </g>
                </g>
            </g>
        </g>
    </g>
</svg>