<?xml version="1.0" encoding="UTF-8"?>
<svg width="220px" height="224px" viewBox="0 0 220 224" version="1.1" xmlns="http://www.w3.org/2000/svg" xmlns:xlink="http://www.w3.org/1999/xlink">
    <!-- Generator: Sketch 52.6 (67491) - http://www.bohemiancoding.com/sketch -->
    <title>Group 8</title>
    <desc>Created with Sketch.</desc>
    <g id="Symbols" stroke="none" stroke-width="1" fill="none" fill-rule="evenodd">
        <g id="Full-Futer" transform="translate(-144.000000, -511.000000)">
            <g transform="translate(-82.000000, 176.000000)" id="Group-12">
                <g transform="translate(0.000000, 112.000000)">
                    <g id="Group-8" transform="translate(196.000000, 192.000000)">
                        <g id="Group-15">
                            <g transform="translate(-37.000000, -115.000000)" id="Triangle">
                                <path d="M258.118252,203.372113 L272.563282,232.235813 C293.912638,274.895567 276.637148,326.785204 233.977393,348.13456 C221.976371,354.140552 208.740966,357.267559 195.320964,357.267559 L166.87955,357.267559 C119.175781,357.267559 80.5042342,318.596012 80.5042342,270.892242 C80.5042342,257.47224 83.6312412,244.236835 89.6372323,232.235813 L104.082262,203.372113 C125.369617,160.836249 177.108559,143.610928 219.644423,164.898283 C236.289576,173.228461 249.788074,186.726959 258.118252,203.372113 Z" fill="#FFFFFF"></path>
                                <path d="M254.278742,183.955901 L287.105105,249.617594 C305.592357,286.597146 290.601385,331.561875 253.621833,350.049126 C243.237199,355.240734 231.78734,357.945737 220.177285,357.950325 L154.472628,357.97629 C113.129364,357.992628 79.6007823,324.490535 79.5844445,283.147271 C79.5798438,271.505232 82.290679,260.022578 87.5015269,249.611807 L120.37982,183.924149 C138.884608,146.953369 183.856441,131.983724 220.827221,150.488512 C235.303012,157.734003 247.040117,169.476675 254.278742,183.955901 Z" fill="#FFFFFF" opacity="0.300000012" transform="translate(187.303575, 250.265673) rotate(30.000000) translate(-187.303575, -250.265673) "></path>
                                <path d="M258.587343,193.725778 L281.154143,238.906785 C301.191052,279.022696 284.913805,327.786191 244.797894,347.8231 C233.541471,353.445406 221.132383,356.374634 208.549961,356.379609 L163.380646,356.397467 C118.539105,356.415195 82.1734831,320.078316 82.1557548,275.236776 C82.1507666,262.619651 85.0863157,250.174983 90.7294817,238.89019 L113.331997,193.691326 C133.387934,153.584924 182.159145,137.330811 222.265547,157.386747 C237.987223,165.248658 250.732892,178.000374 258.587343,193.725778 Z" stroke="#FFFFFF" stroke-width="0.575835441" transform="translate(185.942109, 252.596352) rotate(60.000000) translate(-185.942109, -252.596352) "></path>
                            </g>
                        </g>
                        <g id="flaticon1543344972-svg" transform="translate(99.000000, 81.000000)">
                            <g>
                                <path d="M16.3925622,102.375895 C16.3925622,102.375895 24.0645046,93.2812811 14.9492104,77.1527778 L1.4379085,108.472222 L16.3925622,102.375895 Z" id="Path" fill="#FFBD50"></path>
                                <path d="M15.0980392,76.7904108 C24.0405096,92.6527143 16.5140254,101.597222 16.5140254,101.597222 L27.7998038,96.9850734 C27.7998038,96.9850734 41.9859852,86.6877854 23.817233,56.5277778 L18.308573,69.3294938 L15.0980392,76.7904108 Z" id="Path" fill="#F1DBC8"></path>
                                <path d="M23.7254902,56.8541495 C41.9272213,87.3617977 27.7153381,97.7777778 27.7153381,97.7777778 L39.6587341,92.8495594 C42.1306908,90.1962692 55.4542077,66.1564483 40.3669223,43.6906131 C36.3674062,38.4264092 34.0806815,34.1801071 34.2828326,32.0833333 L27.8089429,47.2733764 L23.7254902,56.8541495 Z" id="Path" fill="#FFBD50"></path>
                                <path d="M39.5262935,43.5416667 C54.5126285,65.8844348 41.2788387,89.7916612 38.8235294,92.4305556 L40.2017764,91.8611925 L55.4366978,85.567022 C55.4366978,85.567022 62.5234844,80.2752571 62.5490196,67.0597136 C59.2658891,64.3853415 55.7370095,61.2230976 52.1762653,57.7146775 C47.1111259,52.7247955 42.7570441,47.7989883 39.5262935,43.5416667 Z" id="Path" fill="#F1DBC8"></path>
                                <path d="M62.2992974,67.2222222 C62.2743815,80.8592284 55.3594771,86.3194444 55.3594771,86.3194444 L77.6470588,76.5818003 C75.0837037,76.8353974 69.2567931,73.2158133 62.2992974,67.2222222 Z" id="Path" fill="#FFBD50"></path>
                                <path d="M52.1172551,58.1531697 C55.6061546,61.6247686 59.0634069,64.7540162 62.280097,67.4006954 C69.2662356,73.1485363 75.1173485,76.6197096 77.6910427,76.376936 L78.6646245,75.970753 C80.3263209,74.3175093 76.9439102,68.0811424 70.592428,60.3225998 C67.8220074,56.9384505 64.4866399,53.2645049 60.7584612,49.5550261 C56.6825901,45.4993663 52.6494855,41.9105297 48.9929408,39.0129915 C41.6372988,33.1840842 35.8047893,30.1516482 34.2110918,31.7376556 L33.8028846,32.7064096 C33.6061582,34.7696662 35.8315185,38.9487342 39.7237071,44.1293231 C42.8886496,48.3411581 47.1546184,53.2155671 52.1172551,58.1531697 Z" id="Path" fill="#C78F70"></path>
                                <ellipse id="Oval" fill="#F13D7C" cx="43.1372549" cy="14.5138889" rx="4.31372549" ry="4.58333333"></ellipse>
                                <ellipse id="Oval" fill="#BDD377" cx="84.1176471" cy="6.875" rx="4.31372549" ry="4.58333333"></ellipse>
                                <ellipse id="Oval" fill="#FF916C" cx="97.7777778" cy="43.5416667" rx="4.31372549" ry="4.58333333"></ellipse>
                                <path d="M76.910848,64.7825688 C76.0086276,63.4367902 74.9834062,62.0201132 73.8567517,60.554452 C77.946533,58.648362 82.0185903,57.257896 86.0186835,56.406257 C87.172458,56.1606911 87.909823,55.0205175 87.665743,53.859719 C87.421663,52.6989205 86.28967,51.9568516 85.1344007,52.2026324 C80.5041412,53.1883336 75.8017041,54.8368265 71.0986264,57.1150252 C68.4714031,53.962629 65.4638592,50.6665026 62.2190687,47.4019582 C58.7709849,43.9330978 55.2870259,40.7315025 51.9773183,37.9750625 C54.8413611,34.3315345 57.1790196,30.2520894 58.9475853,25.7874301 C61.7050699,18.8262914 63.1033515,10.873221 63.1033515,2.1484333 C63.1033515,0.96185359 62.1471046,0 60.9679185,0 C59.7887323,0 58.8324854,0.96185359 58.8324854,2.1484333 C58.8324854,15.5916102 55.4063966,26.7174869 48.6404906,35.303056 C47.3637152,34.3231556 46.1258046,33.4225324 44.9436289,32.6205222 C38.614846,28.3260189 34.8453796,27.3194779 32.7385613,29.3630677 C32.7236133,29.3770325 32.7080246,29.3907824 32.6935037,29.4051769 C32.6913683,29.4073254 32.6892328,29.409259 32.6870974,29.4111926 C32.6858161,29.4124816 32.6847484,29.4139855 32.6834672,29.4150597 C32.1438432,29.9592579 31.8107157,30.617323 31.6845116,31.4025754 L0.166160488,107.020768 C-0.1691025,107.825141 0.0124093087,108.753909 0.625492136,109.370724 C1.03421402,109.781719 1.58045779,110 2.13609747,110 C2.41413085,110 2.69472676,109.94543 2.96144234,109.832852 L39.8493398,94.2698159 C39.855319,94.2672378 39.8612983,94.2648745 39.8672775,94.2622964 L56.0875998,87.4186769 C56.0957144,87.4152394 56.1038291,87.4120168 56.1117302,87.4085793 L78.1222792,78.1219763 C78.8348732,78.0059609 79.4402685,77.7129146 79.9521318,77.2494976 C79.9892883,77.2183453 80.0240959,77.1852594 80.0589034,77.1521735 C80.0725702,77.1386384 80.0873047,77.1274665 80.1007579,77.1137166 C80.1028933,77.1115681 80.1046017,77.1092049 80.1065236,77.1072713 C80.1212581,77.0926619 80.1349248,77.0767635 80.1490187,77.0615096 C82.1798155,74.9416505 81.1793651,71.1494509 76.910848,64.7825688 Z M44.0115124,87.8539495 C45.4753517,84.6235652 46.9686601,80.3827727 47.856146,75.6482702 C48.847414,70.3601165 49.2832559,63.4060676 47.4491325,55.8966486 C48.4606871,56.9717247 49.5012836,58.049164 50.5687866,59.1231658 C53.7629674,62.3365775 56.9870442,65.3183881 60.0757345,67.9317423 C59.7695134,78.0751405 55.1452332,82.697065 54.1492672,83.5768485 L44.0115124,87.8539495 Z M33.0924026,92.460835 C33.5310205,91.346013 33.9177475,90.0762889 34.1979163,88.6374831 C35.9071169,79.8604886 33.1169601,69.0083222 25.9092329,56.3708079 L28.2197715,50.8276351 C30.0485563,53.0415956 32.1323119,56.1750856 32.976235,58.1507849 C33.32367,58.9643966 34.1114312,59.4516612 34.9391251,59.4516612 C35.2203616,59.4516612 35.5065096,59.3951574 35.7813399,59.2765639 C36.8648586,58.8079906 37.3656177,57.5447118 36.9000933,56.4543819 C35.6478753,53.5230595 32.4726999,48.9619356 30.0438584,46.4514913 L33.5743698,37.981293 C34.1927912,39.1221111 34.9587711,40.3720696 35.8774344,41.7423403 C36.5099496,42.6859323 37.2028977,43.6641139 37.9481638,44.6695807 C45.2528396,55.8212386 45.0875571,67.2356499 43.659593,74.8516311 C42.1410866,82.9520841 38.8894627,88.8828342 37.695115,90.5184365 L33.0924026,92.460835 Z M23.8015605,61.4271457 C30.4412625,74.0923748 30.939459,82.4839405 30.0778118,87.4249074 C29.2168052,92.3628665 26.9331731,94.7431157 26.2837879,95.3335052 L20.6567083,97.707524 C21.9076449,93.2271812 22.2365016,86.1152224 17.4020948,76.77985 L23.8015605,61.4271457 Z M64.1127707,71.1954274 C65.4017181,72.1854254 66.6515871,73.0950721 67.8444399,73.9043869 C69.2070598,74.8290726 70.4492412,75.5992859 71.5835832,76.2214722 L61.5101049,80.4712881 C62.6532022,78.0918983 63.6626214,75.0254394 64.1127707,71.1954274 Z M45.8138179,38.5398857 C45.664124,38.6950025 45.516352,38.8516233 45.3640957,39.0048066 C44.5302091,39.8437698 44.5302091,41.2041578 45.3640957,42.0433359 C45.7811457,42.46271 46.3276031,42.672612 46.8740604,42.672612 C47.4205177,42.672612 47.9671885,42.46271 48.3840251,42.0433359 C48.6522355,41.7734926 48.9163885,41.4999971 49.177552,41.2239234 C52.4167904,43.9178439 55.8418114,47.0631503 59.1989257,50.4407023 C62.0858177,53.3451692 64.8001666,56.2996947 67.2076538,59.1427165 C66.8219946,59.3582044 66.4365489,59.5773446 66.0511033,59.8012113 C65.0297257,60.3946086 64.6797282,61.7085904 65.2695348,62.7359712 C65.665017,63.4251886 66.382736,63.8106176 67.1209552,63.8106176 C67.4831247,63.8106176 67.8504192,63.7175904 68.1865363,63.5222978 C68.7793325,63.1776891 69.3725558,62.8470452 69.9655656,62.5241357 C70.8934112,63.7096412 71.7544179,64.8622757 72.531929,65.9665704 C75.7128701,70.4832217 76.5698194,72.7895649 76.7955346,73.7885864 C75.8025583,73.5612821 73.5101709,72.698901 69.02085,69.4990244 C64.3784186,66.1897926 58.8978297,61.4258566 53.5889296,56.0848514 C48.280243,50.7438462 43.5449203,45.2298921 40.2559263,40.5591981 C37.0751988,36.0425468 36.2180359,33.7362036 35.9923207,32.7371822 C36.985297,32.9644864 39.2776844,33.8268675 43.7670053,37.0267441 C44.4326198,37.5009033 45.1168125,38.0081484 45.8138179,38.5398857 Z M15.1626661,82.1532966 C16.9310182,86.6138738 17.5443146,90.886678 16.9374245,94.6945611 C16.4917597,97.4903174 15.5007052,99.3280872 15.023863,100.084336 L6.12359159,103.839368 L15.1626661,82.1532966 Z" id="Shape" fill="#000000" fill-rule="nonzero"></path>
                                <path d="M39.3472889,61.6948509 C38.8590193,60.5442513 37.5841769,60.0311985 36.4993009,60.5490483 C35.4482398,61.0506796 34.9614778,62.3358242 35.3763024,63.4617535 C35.7023898,64.3670198 36.5176083,64.9305556 37.3879645,64.9305556 C37.6240225,64.9305556 37.8639574,64.8889814 38.0995846,64.8017213 C39.2221524,64.3850658 39.8140204,63.0818752 39.4209494,61.8910719 C39.4004881,61.8291675 39.3727039,61.7546995 39.3472889,61.6948509 Z" id="Path" fill="#000000"></path>
                                <path d="M80.4285844,33.7536077 C80.845133,34.1677278 81.3909332,34.375 81.9367334,34.375 C82.4827468,34.375 83.0283337,34.1677278 83.4448823,33.7536077 C88.2103428,29.0135029 95.9313146,26.8410697 101.568051,26.3885502 C102.742193,26.2943548 103.617094,25.2709352 103.522395,24.1032523 C103.427482,22.9353574 102.400934,22.0685056 101.224873,22.1593065 C94.8320359,22.6725014 86.0119988,25.1996522 80.4285844,30.7533588 C79.5957006,31.581811 79.5957006,32.9251555 80.4285844,33.7536077 Z" id="Path" fill="#000000"></path>
                                <path d="M108.197449,22.2715658 C108.128616,22.254308 108.058568,22.2372773 107.987789,22.2207007 C106.684352,21.9173269 105.364618,22.6587307 105.039914,23.8756321 C104.715453,25.0925335 105.509093,26.3248761 106.812531,26.6277958 L106.936818,26.6577698 C107.147937,26.7106786 107.360028,26.7361111 107.568714,26.7361111 C108.642305,26.7361111 109.62493,26.0673717 109.916313,25.0532493 C110.264366,23.8420249 109.495049,22.5967389 108.197449,22.2715658 Z" id="Path" fill="#000000"></path>
                                <path d="M16.416122,17.8240741 L18.453159,17.8240741 L18.453159,19.9884259 C18.453159,21.183581 19.3651405,22.1527778 20.4901961,22.1527778 C21.6152516,22.1527778 22.5272331,21.183581 22.5272331,19.9884259 L22.5272331,17.8240741 L24.5642702,17.8240741 C25.6893257,17.8240741 26.6013072,16.8548773 26.6013072,15.6597222 C26.6013072,14.4645671 25.6893257,13.4953704 24.5642702,13.4953704 L22.5272331,13.4953704 L22.5272331,11.3310185 C22.5272331,10.1358634 21.6152516,9.16666667 20.4901961,9.16666667 C19.3651405,9.16666667 18.453159,10.1358634 18.453159,11.3310185 L18.453159,13.4953704 L16.416122,13.4953704 C15.2910664,13.4953704 14.379085,14.4645671 14.379085,15.6597222 C14.379085,16.8550938 15.2910664,17.8240741 16.416122,17.8240741 Z" id="Path" fill="#000000"></path>
                                <path d="M66.7429194,39.2131794 L68.7801601,39.2131794 L68.7801601,41.3773148 C68.7801601,42.5726863 69.6923453,43.5416667 70.8171972,43.5416667 C71.9422527,43.5416667 72.8542342,42.5726863 72.8542342,41.3773148 L72.8542342,39.2131794 L74.8910675,39.2131794 C76.0159194,39.2131794 76.9281046,38.2439826 76.9281046,37.0488275 C76.9281046,35.8536725 76.0159194,34.8844757 74.8910675,34.8844757 L72.8542342,34.8844757 L72.8542342,32.7199074 C72.8542342,31.5247523 71.9422527,30.5555556 70.8171972,30.5555556 C69.6923453,30.5555556 68.7801601,31.5247523 68.7801601,32.7199074 L68.7801601,34.8844757 L66.7429194,34.8844757 C65.6180675,34.8844757 64.7058824,35.8536725 64.7058824,37.0488275 C64.7058824,38.2441991 65.6180675,39.2131794 66.7429194,39.2131794 Z" id="Path" fill="#000000"></path>
                                <path d="M96.459695,89.8842593 L94.422658,89.8842593 L94.422658,87.7199074 C94.422658,86.5247523 93.5104728,85.5555556 92.3856209,85.5555556 C91.2607691,85.5555556 90.3485839,86.5247523 90.3485839,87.7199074 L90.3485839,89.8842593 L88.3115468,89.8842593 C87.186695,89.8842593 86.2745098,90.853456 86.2745098,92.0486111 C86.2745098,93.2437662 87.186695,94.212963 88.3115468,94.212963 L90.3485839,94.212963 L90.3485839,96.3773148 C90.3485839,97.5724699 91.2607691,98.5416667 92.3856209,98.5416667 C93.5104728,98.5416667 94.422658,97.5724699 94.422658,96.3773148 L94.422658,94.212963 L96.459695,94.212963 C97.5845468,94.212963 98.496732,93.2437662 98.496732,92.0486111 C98.496732,90.853456 97.5847505,89.8842593 96.459695,89.8842593 Z" id="Path" fill="#000000"></path>
                                <path d="M83.7581699,12.9861111 C87.1278366,12.9861111 89.869281,10.0733264 89.869281,6.49305556 C89.869281,2.91278472 87.1278366,0 83.7581699,0 C80.3885033,0 77.6470588,2.91278472 77.6470588,6.49305556 C77.6470588,10.0733264 80.3885033,12.9861111 83.7581699,12.9861111 Z M83.7581699,4.3287037 C84.8813922,4.3287037 85.795207,5.29963194 85.795207,6.49305556 C85.795207,7.68647917 84.8813922,8.65740741 83.7581699,8.65740741 C82.6349477,8.65740741 81.7211329,7.68647917 81.7211329,6.49305556 C81.7211329,5.29963194 82.6349477,4.3287037 83.7581699,4.3287037 Z" id="Shape" fill="#000000" fill-rule="nonzero"></path>
                                <path d="M96.6993464,37.4305556 C93.3296797,37.4305556 90.5882353,40.3433403 90.5882353,43.9236111 C90.5882353,47.5038819 93.3296797,50.4166667 96.6993464,50.4166667 C100.069013,50.4166667 102.810458,47.5038819 102.810458,43.9236111 C102.810458,40.3433403 100.068809,37.4305556 96.6993464,37.4305556 Z M96.6993464,46.087963 C95.5761242,46.087963 94.6623094,45.1170347 94.6623094,43.9236111 C94.6623094,42.7301875 95.5761242,41.7592593 96.6993464,41.7592593 C97.8225686,41.7592593 98.7363834,42.7301875 98.7363834,43.9236111 C98.7363834,45.1170347 97.8225686,46.087963 96.6993464,46.087963 Z" id="Shape" fill="#000000" fill-rule="nonzero"></path>
                                <path d="M42.7777778,20.625 C46.1474444,20.625 48.8888889,17.7122153 48.8888889,14.1319444 C48.8888889,10.5516736 46.1474444,7.63888889 42.7777778,7.63888889 C39.4081111,7.63888889 36.6666667,10.5516736 36.6666667,14.1319444 C36.6666667,17.7122153 39.4081111,20.625 42.7777778,20.625 Z M42.7777778,11.9675926 C43.901,11.9675926 44.8148148,12.9385208 44.8148148,14.1319444 C44.8148148,15.3253681 43.901,16.2962963 42.7777778,16.2962963 C41.6545556,16.2962963 40.7407407,15.3253681 40.7407407,14.1319444 C40.7407407,12.9387373 41.6545556,11.9675926 42.7777778,11.9675926 Z" id="Shape" fill="#000000" fill-rule="nonzero"></path>
                                <path d="M96.3398693,63.4027778 C96.3398693,62.1405278 95.3710065,61.1111111 94.1830065,61.1111111 C92.9950065,61.1111111 92.0261438,62.1405278 92.0261438,63.4027778 C92.0261438,64.6650278 92.9950065,65.6944444 94.1830065,65.6944444 C95.3710065,65.6944444 96.3398693,64.6647986 96.3398693,63.4027778 Z" id="Path" fill="#000000"></path>
                                <path d="M72.6143791,21.3888889 C73.8023791,21.3888889 74.7712418,20.3594722 74.7712418,19.0972222 C74.7712418,17.8349722 73.8023791,16.8055556 72.6143791,16.8055556 C71.4263791,16.8055556 70.4575163,17.8349722 70.4575163,19.0972222 C70.457732,20.3592431 71.4265948,21.3888889 72.6143791,21.3888889 Z" id="Path" fill="#000000"></path>
                                <path d="M100.653703,77.1527778 C99.465762,77.1527778 98.496732,78.1823721 98.496732,79.444559 C98.496732,80.7067459 99.465762,81.7361111 100.653703,81.7361111 C101.841428,81.7361111 102.810458,80.7067459 102.810458,79.444559 C102.810458,78.1823721 101.841428,77.1527778 100.653703,77.1527778 Z" id="Path" fill="#000000"></path>
                                <path d="M30.1960784,6.11111111 C31.3840784,6.11111111 32.3529412,5.08169444 32.3529412,3.81944444 C32.3529412,2.55719444 31.3840784,1.52777778 30.1960784,1.52777778 C29.0080784,1.52777778 28.0392157,2.55719444 28.0392157,3.81944444 C28.0392157,5.08169444 29.0080784,6.11111111 30.1960784,6.11111111 Z" id="Path" fill="#000000"></path>
                            </g>
                        </g>
                    </g>
                </g>
            </g>
        </g>
    </g>
</svg>