<?xml version="1.0" encoding="UTF-8"?>
<svg width="43px" height="32px" viewBox="0 0 43 32" version="1.1" xmlns="http://www.w3.org/2000/svg" xmlns:xlink="http://www.w3.org/1999/xlink">
    <!-- Generator: Sketch 52.6 (67491) - http://www.bohemiancoding.com/sketch -->
    <title>gift-card</title>
    <desc>Created with Sketch.</desc>
    <g id="Page-1" stroke="none" stroke-width="1" fill="none" fill-rule="evenodd">
        <g id="Account/Referral" transform="translate(-1412.000000, -456.000000)" fill="#5E5896">
            <g id="Group" transform="translate(1105.000000, 229.000000)">
                <g id="Group-4" transform="translate(52.000000, 70.000000)">
                    <g id="gift-card" transform="translate(255.000000, 157.000000)">
                        <path d="M43,3.32598425 L43,21.215748 L15.1774859,21.215748 C16.4762676,20.6389417 17.3153732,19.355515 17.3213286,17.9362268 C17.3213286,15.9492031 15.6806667,14.332674 13.6642089,14.332674 C12.4939225,14.3314646 11.3930822,14.8866016 10.6995305,15.8275528 L10.6995305,0 L39.6690141,0 C41.5076174,0.00201574803 42.9979812,1.49014173 43,3.32598425 Z M5.59656103,20.089348 C4.4642277,19.8956346 3.67367371,18.8621606 3.78480751,17.7204409 C3.8956385,16.5787213 4.87070892,15.7165858 6.01888967,15.7436976 C6.41830516,15.7432945 6.81065493,15.8476094 7.1571784,16.0460598 C7.71082864,16.3622299 8.09994836,16.9023496 8.22339671,17.5271307 L8.83922535,20.6964913 L5.59656103,20.089348 Z M10.844277,20.6968945 L11.4597019,17.5275339 C11.6946878,16.4118173 12.7293122,15.6488567 13.8664906,15.7535748 C15.0032653,15.8578898 15.8813333,16.796422 15.9081831,17.9362268 C15.8982911,18.9976189 15.1333756,19.9019843 14.0869413,20.089348 L10.844277,20.6968945 Z M3.33098592,0 L9.28638498,0 L9.28638498,16.3192945 C8.96701408,15.6941102 8.47261502,15.1744504 7.86294366,14.8244157 C7.30232864,14.5019969 6.66631221,14.332674 6.01929343,14.332674 C4.00243192,14.332674 2.36217371,15.9492031 2.36217371,17.9362268 C2.36812911,19.3551118 3.20683099,20.6389417 4.50561268,21.215748 L0,21.215748 L0,3.32598425 C0.00201877934,1.49014173 1.49238263,0.00201574803 3.33098592,0 Z M0,28.6740157 L0,22.6267717 L7.98447418,22.6267717 L4.95115728,25.6555339 C4.6750892,25.9310866 4.6750892,26.3775748 4.95115728,26.6531276 C5.22712441,26.9287811 5.67428404,26.9287811 5.95025117,26.6531276 L9.28638498,23.3220031 L9.28638498,32 L3.33098592,32 C1.49238263,31.9979843 0.00201877934,30.5098583 0,28.6740157 Z M39.6690141,32 L10.6995305,32 L10.6995305,23.3220031 L15.1964624,27.8121827 C15.4724296,28.0878362 15.9195892,28.0878362 16.1955563,27.8121827 C16.4716244,27.5366299 16.4716244,27.0901417 16.1955563,26.814589 L12.0014413,22.6267717 L43,22.6267717 L43,28.6740157 C42.9979812,30.5098583 41.5076174,31.9979843 39.6690141,32 Z"></path>
                    </g>
                </g>
            </g>
        </g>
    </g>
</svg>