<?xml version="1.0" encoding="UTF-8"?>
<svg width="38px" height="37px" viewBox="0 0 38 37" version="1.1" xmlns="http://www.w3.org/2000/svg" xmlns:xlink="http://www.w3.org/1999/xlink">
    <!-- Generator: Sketch 52.6 (67491) - http://www.bohemiancoding.com/sketch -->
    <title>love-letter</title>
    <desc>Created with Sketch.</desc>
    <defs>
        <polygon id="path-1" points="1.84294927e-16 0 38 0 38 37 1.84294927e-16 37"></polygon>
    </defs>
    <g id="Page-1" stroke="none" stroke-width="1" fill="none" fill-rule="evenodd">
        <g id="Account/Referral" transform="translate(-1415.000000, -299.000000)">
            <g id="Group" transform="translate(1105.000000, 229.000000)">
                <g id="Group-4" transform="translate(52.000000, 70.000000)">
                    <g id="love-letter" transform="translate(258.000000, 0.000000)">
                        <g>
                            <mask id="mask-2" fill="white">
                                <use xlink:href="#path-1"></use>
                            </mask>
                            <g id="Clip-2"></g>
                            <path d="M20.1765515,26.4270848 C19.9682302,26.6069081 19.5338565,26.9090837 18.9730164,26.9090837 C18.5630938,26.9090837 18.167583,26.7473137 17.7965233,26.4270848 C14.4565817,23.5479414 5.18106211,16.4975444 2.28715311,14.3068695 L3.73528159,13.249373 C3.75568461,13.2683723 3.76540033,13.295334 3.78798939,13.3125201 C7.01814335,15.7613017 14.9104679,21.7765915 18.4222968,24.7271596 C18.5842255,24.8634658 18.7857458,24.9316583 18.9865374,24.9316583 C19.1872481,24.9316583 19.3879587,24.8634658 19.5506971,24.7280268 C23.0651169,21.778247 30.974282,15.7621689 34.211156,13.3125201 C34.2339879,13.295334 34.2435417,13.268057 34.2641876,13.2489789 L35.7119923,14.3062389 C32.8090962,16.4999094 23.4907465,23.570173 20.1765515,26.4270848 Z M15.5459571,5.04545813 C16.8421964,5.04545813 18.0575524,5.50940377 19.0004633,6.34379641 C19.9432932,5.50940377 21.1586492,5.04545813 22.4548885,5.04545813 C25.3122826,5.04545813 27.6366073,7.30866144 27.6366073,10.0909163 C27.6366073,11.4393149 27.0977086,12.7064345 26.1185257,13.6582128 L19.6085056,19.9379161 C19.4398569,20.1005533 19.2205244,20.1818325 19.0004633,20.1818325 C18.7803212,20.1818325 18.5609888,20.1005533 18.39234,19.9379161 L11.8848299,13.6606567 C10.903137,12.7064345 10.3642383,11.4393149 10.3642383,10.0909163 C10.3642383,7.30866144 12.688563,5.04545813 15.5459571,5.04545813 Z M37.9996402,14.2529462 C37.9923534,14.1149845 37.9468514,13.9806491 37.8719594,13.8606618 C37.8628104,13.8459985 37.7306766,13.6788677 37.6538414,13.6228946 L34.545134,11.352675 L34.5454578,3.36374387 C34.5456197,1.50599042 32.9989576,0 31.0910326,0 L6.90932726,0 C5.00148316,0 3.45482106,1.50591158 3.45482106,3.36366503 L3.45482106,11.352675 L0.346113628,13.6228946 C0.269278454,13.6788677 0.137225588,13.8459985 0.127995652,13.8606618 C0.0531845862,13.9806491 0.00768261783,14.1149845 0.000395825743,14.2529462 C-0.000494782179,14.2681614 0.000395825743,33.6364138 0.000395825743,33.6364138 C0.000395825743,35.4914869 1.54964879,37 3.45482106,37 L34.545134,37 C36.4503872,37 37.9996402,35.4914869 37.9996402,33.6364138 C37.9996402,33.6364138 38.0004498,14.2681614 37.9996402,14.2529462 Z" id="Fill-1" fill="#5E5896" mask="url(#mask-2)"></path>
                        </g>
                    </g>
                </g>
            </g>
        </g>
    </g>
</svg>