<?xml version="1.0" encoding="UTF-8"?>
<svg width="20px" height="20px" viewBox="0 0 20 20" version="1.1" xmlns="http://www.w3.org/2000/svg" xmlns:xlink="http://www.w3.org/1999/xlink">
    <!-- Generator: Sketch 52.6 (67491) - http://www.bohemiancoding.com/sketch -->
    <title>Icon/facebook</title>
    <desc>Created with Sketch.</desc>
    <g id="Symbols" stroke="none" stroke-width="1" fill="none" fill-rule="evenodd">
        <g id="input" transform="translate(-142.000000, -10.000000)" fill="#FFFFFF">
            <g id="Group">
                <g id="Group-14" transform="translate(140.000000, 8.000000)">
                    <g id="Icon/insta">
                        <g id="flaticon1543506794-svg" transform="translate(2.000000, 2.000000)">
                            <path d="M19.5105309,17.1469206 L15.1656333,12.802103 C15.1425421,12.7790118 15.1154559,12.7628719 15.091326,12.7413788 C15.9462591,11.4445172 16.4452363,9.89213462 16.4452363,8.22269807 C16.4452363,3.68140561 12.7638307,0 8.22261817,0 C3.68140561,0 0,3.68140561 0,8.22261817 C0,12.7637508 3.68132571,16.4452363 8.22253827,16.4452363 C9.89205472,16.4452363 11.4443574,15.9462591 12.741219,15.091326 C12.7627121,15.115376 12.7787721,15.1424622 12.8018633,15.1655534 L17.1468407,19.5105309 C17.7995462,20.1631564 18.8577455,20.1631564 19.5105309,19.5105309 C20.1631564,18.8578254 20.1631564,17.7996261 19.5105309,17.1469206 Z M8.22261817,13.5947138 C5.25560101,13.5947138 2.85044265,11.1895554 2.85044265,8.22261817 C2.85044265,5.25560101 5.25568091,2.85044265 8.22261817,2.85044265 C11.1894755,2.85044265 13.5947138,5.25568091 13.5947138,8.22261817 C13.5947138,11.1895554 11.1894755,13.5947138 8.22261817,13.5947138 Z" id="Shape" fill-rule="nonzero"></path>
                        </g>
                    </g>
                </g>
            </g>
        </g>
    </g>
</svg>