<?xml version="1.0" encoding="UTF-8"?>
<svg width="281px" height="270px" viewBox="0 0 281 270" version="1.1" xmlns="http://www.w3.org/2000/svg" xmlns:xlink="http://www.w3.org/1999/xlink">
    <!-- Generator: Sketch 52.6 (67491) - http://www.bohemiancoding.com/sketch -->
    <title>illustration</title>
    <desc>Created with Sketch.</desc>
    <defs>
        <polygon id="path-1" points="0.535525547 0.44075 208.636971 0.44075 208.636971 12.5 0.535525547 12.5"></polygon>
    </defs>
    <g id="Page-1" stroke="none" stroke-width="1" fill="none" fill-rule="evenodd">
        <g id="Account/Orders_loged-in_empty" transform="translate(-605.000000, -509.000000)">
            <g id="illustration" transform="translate(605.000000, 509.000000)">
                <g id="Group-24">
                    <path d="M210.689826,199 C190.374388,199 172.084197,190.371759 159.24659,176.590449 C142.805969,189.012198 122.344687,196.386989 100.153163,196.386989 C92.5990947,196.386989 85.2439053,195.53146 78.1770898,193.916567 C73.4537257,187.427148 70.8583615,179.322835 72.4957943,171.550123 L72.3930404,170.71449 C72.7211899,169.517413 72.9001806,168.30044 72.9034952,167.080151 C83.7092263,174.683747 96.8782968,179.143771 111.094794,179.143771 C147.807763,179.143771 177.573243,149.369376 177.573243,112.638006 C177.573243,75.9066353 147.807763,46.1322402 111.094794,46.1322402 C74.3785107,46.1322402 44.6163451,75.9066353 44.6163451,112.638006 C44.6163451,126.608328 48.9220643,139.570586 56.2772537,150.274645 C50.8545003,147.834067 45.4880958,145.23432 42.6176163,140.054722 C38.1163332,131.93383 32.9189754,126.074452 23.7639358,123.285693 C20.6150264,122.327368 17.3302167,121.846547 14.0487217,121.846547 C11.0489712,121.846547 8.05253528,122.247784 5.17542651,123.060205 C3.10046096,115.11506 2,106.78526 2,98.1934946 C2,43.9602579 45.9455163,0 100.153163,0 C127.976263,0 153.074728,11.5993801 170.937331,30.2054756 C177.162227,14.308555 192.591883,3.03414317 210.689826,3.03414317 C234.280129,3.03414317 253.40561,22.1674832 253.40561,45.7707958 C253.40561,54.0773845 250.99918,61.8036726 246.902283,68.3627275 C267.330419,80.6684163 281,103.064704 281,128.660934 C281,167.507915 249.52085,199 210.689826,199" id="Fill-38-Copy" fill="#5E5896" opacity="0.120954241"></path>
                    <g id="Group-3" transform="translate(0.000000, 257.000000)">
                        <mask id="mask-2" fill="white">
                            <use xlink:href="#path-1"></use>
                        </mask>
                        <g id="Clip-2"></g>
                        <path d="M208.636971,6.47075 C208.636971,9.80075 162.052175,12.50075 104.586248,12.50075 C47.1218613,12.50075 0.535525547,9.80075 0.535525547,6.47075 C0.535525547,3.14075 47.1218613,0.44075 104.586248,0.44075 C162.052175,0.44075 208.636971,3.14075 208.636971,6.47075" id="Fill-1" fill="#E8E8EF" mask="url(#mask-2)"></path>
                    </g>
                    <path d="M160,142.087 C160.112,142.087 160.112,141.913 160,141.913 C159.888,141.913 159.888,142.087 160,142.087" id="Fill-52" fill="#D5D2D4"></path>
                    <path d="M120.985404,156.688807 C125.34686,159.692304 131.724358,157.180598 134.665698,152.74982 C137.608569,148.31749 137.971641,142.673522 137.997684,137.333626 C138.040579,128.970066 137.487545,120.601852 136.346244,112.317413 C135.822318,108.497883 136.245136,104.434784 134.509439,101 L133.404905,101.442147 C131.12843,101.758631 129.169069,103.362772 127.943511,105.33149 C126.719485,107.301759 126.14194,109.610232 125.762017,111.906294 C124.484373,119.605857 125.230431,127.48228 125.055789,135.28889 C124.882679,143.093949 123.634142,151.255828 119,157.495531 L120.985404,156.688807 Z" id="Fill-54" fill="#E4AF00"></path>
                    <path d="M162.045076,69.3449245 C158.64105,68.0274543 155.086554,70.7240307 152.574607,73.3790028 C142.187492,84.3517575 134.722281,98.0842656 131.14936,112.789082 C130.300273,116.282304 129.664609,119.908044 130.192793,123.464443 C130.722513,127.020842 132.580371,130.532555 135.709556,132.284559 C137.579698,133.332372 139.951921,133.669829 141.872731,132.714471 L142.1445,133.303095 C141.772929,138.144605 143.440395,143.067783 146.489738,146.836827 C149.539082,150.604329 153.913493,153.220779 158.616484,154.359504 C164.21923,155.718579 170.413113,154.941965 175.232796,151.76925 C180.052479,148.593453 183.290679,142.929102 183.066508,137.147642 L182.942139,137.133774 C188.371383,139.150813 194.672745,136.532823 198.528184,132.201351 C203.352473,126.77738 205.049112,118.866395 203.369363,111.79366 C201.689614,104.722466 196.826939,98.5804357 190.599277,94.8684056 C186.697775,92.5431863 182.337183,91.1348029 178.111708,89.4737118 C173.886233,87.8110798 169.668435,85.8171542 166.467085,82.5905079 C163.265735,79.3623207 161.217485,74.6749004 162.152555,70.2186152 L162.045076,69.3449245 Z" id="Fill-56" fill="#5E5896"></path>
                    <path d="M150.389765,87.9997941 C146.374974,92.7272494 136.418958,95.1752578 131.579417,90.4586276 C130.645709,89.5477767 129.948077,88.4095997 129.416908,87.2064724 C127.818861,83.5939976 127.711416,79.4387237 128.409049,75.5386118 C129.106681,71.6384999 130.562478,67.9285996 132.003142,64.2403494 C133.227403,62.7712351 135.153837,62.0320386 137.040925,62.0011099 C138.928013,61.9701811 140.778782,62.5887556 142.460061,63.4702242 C147.792939,66.2677272 151.600407,71.9044869 152.267774,77.9928059 L152.373705,77.8536267 C152.696038,77.131441 153.051664,76.369048 153.700871,75.932953 C154.527134,75.3793289 155.681784,75.5123224 156.480807,76.103061 C157.282858,76.6937996 157.753495,77.6680543 157.924498,78.6608663 C158.30131,80.8382484 157.238972,83.1996564 155.379123,84.3285548 C154.339485,84.9579543 152.033212,84.4368053 152.015052,84.4352589 C152.913954,84.5110342 151.182736,86.9590426 150.986007,87.2343083 C150.79533,87.5002953 150.597088,87.7554572 150.389765,87.9997941" id="Fill-58" fill="#FFD1B8"></path>
                    <path d="M133.696591,71.397042 C133.359432,72.072633 132.960248,72.7407999 133.003188,73.5010254 C133.028634,73.930137 133.73635,74.1706771 134.052834,73.8573811 C134.607875,73.3005753 134.762141,72.5492587 134.97048,71.8291233 C135.196313,71.0421712 134.063967,70.6546343 133.696591,71.397042" id="Fill-60" fill="#193D59"></path>
                    <path d="M139.444996,73.5033872 C139.179241,74.0968788 138.802525,75.0211466 139.123076,75.6364176 C139.29568,75.9658327 139.644998,76.0747302 139.987467,75.949498 C140.729939,75.675893 140.984735,74.5460811 140.999804,73.8396083 C141.017612,72.9289527 139.816232,72.6730435 139.444996,73.5033872" id="Fill-62" fill="#193D59"></path>
                    <path d="M136.497651,72.1078741 C135.857511,72.9026369 135.41878,73.8641218 134.997224,74.7997081 C134.580352,75.7239638 134.096343,76.6838301 134.001102,77.7084428 C133.977682,77.9739033 134.333663,78.1114895 134.478866,77.8881142 C134.994101,77.0998261 135.25328,76.1512904 135.635803,75.2869252 C136.06985,74.3092537 136.613189,73.3769047 136.980099,72.3700973 C137.094075,72.0560769 136.689694,71.8699309 136.497651,72.1078741" id="Fill-64" fill="#193D59"></path>
                    <path d="M131.019881,79.3830774 C132.001277,81.8189974 136.848633,83.1301119 138.951624,80.7261703 C139.095047,80.5648879 138.891999,80.3285258 138.701844,80.4314128 C136.374855,81.7049875 132.702274,81.4964327 131.533945,79.1383731 C131.3873,78.8394445 130.895796,79.0730259 131.019881,79.3830774" id="Fill-66" fill="#193D59"></path>
                    <path d="M140.030877,83.0383114 C139.776364,84.9546973 141.123228,86.7145467 143.039189,86.9691161 C144.95515,87.2236855 146.71461,85.8765232 146.969123,83.9601373 C147.223636,82.0453326 145.876772,80.2854832 143.960811,80.0309138 C142.04485,79.7763444 140.28539,81.1219256 140.030877,83.0383114" id="Fill-68" fill="#FFD1B8"></path>
                    <path d="M155.962977,78.1999554 C156.168172,79.5282133 155.503988,81.4513545 154.378113,81.9738446 C154.06897,82.1170573 153.897524,81.6370589 154.06627,81.3852564 C154.397013,80.8942416 154.804703,80.549587 155.065247,79.979884 C155.323092,79.4196235 155.39194,78.832609 155.486438,78.2188406 C155.528287,77.9481529 155.918428,77.9135301 155.962977,78.1999554" id="Fill-70" fill="#FFD1B8"></path>
                    <path d="M155.686562,78.7262745 C155.282652,78.7852673 154.89823,78.9375065 154.545695,79.1601564 C154.214418,79.3675824 153.969946,79.6720609 153.667014,79.9194496 C153.321565,80.2010922 152.839708,79.6834788 153.052292,79.3009777 C153.562494,78.3780273 154.715762,77.9745933 155.663532,78.0012351 C156.104644,78.0145561 156.11173,78.6634759 155.686562,78.7262745" id="Fill-72" fill="#FFD1B8"></path>
                    <path d="M127.344333,65.4185411 C126.306331,64.1668408 125.441837,62.7869175 124.819341,61.4451559 C123.037083,57.6015202 124.234894,52.9717556 127.70809,50.5355195 C131.376102,47.9649545 136.18409,47.3650542 140.436548,48.6625484 C144.640303,49.9463044 147.028316,52.6450924 149.093665,56.3834021 C151.26251,60.3048875 156.533184,61.0131667 159.915061,63.4661939 C170.667967,71.2603178 150.165151,86.0883867 146.273405,72.4509596 L146.133382,72.3578453 C144.787936,72.8676842 143.230934,72.3868481 142.098568,71.4984462 C140.966203,70.6085178 140.176287,69.3659763 139.407678,68.1478582 L139.285919,67.88378 C138.785182,67.8715683 136.993792,69.7842274 136.0395,69.9658766 C134.694055,70.220796 133.336434,69.8407066 132.120359,69.2804944 C130.342666,68.4592569 128.697388,67.0488043 127.344333,65.4185411" id="Fill-74" fill="#5E5896"></path>
                    <path d="M199.194239,112.039711 C202.772144,114.504825 200.214151,121.266106 198.514795,124.298785 C196.352522,128.15884 191.960778,132.782863 187.264404,131.887442 C186.871671,131.81321 186.935882,131.185333 187.328615,131.176054 C191.388851,131.080171 194.723351,128.157293 196.930423,124.836966 C198.808972,122.014611 201.816443,115.477571 198.916488,112.443346 C198.734308,112.253127 198.956807,111.877329 199.194239,112.039711" id="Fill-76" fill="#193D59"></path>
                    <path d="M194.91931,125.678304 C193.261366,128.05569 190.049494,129.744973 187.2789,128.668453 C186.91327,128.52447 186.877022,127.85311 187.351396,127.869852 C190.09047,127.965282 192.522226,127.476412 194.375592,125.139207 C194.689215,124.742418 195.19826,125.279841 194.91931,125.678304" id="Fill-78" fill="#193D59"></path>
                    <path d="M177.971971,140.922055 C171.273433,156.309476 147.477279,147.625153 148.008763,132.323473 C148.024036,131.907017 148.615083,131.885582 148.653265,132.300507 C149.942268,146.251768 169.796577,155.343361 177.457287,140.651053 C177.631394,140.315745 178.121642,140.582154 177.971971,140.922055" id="Fill-80" fill="#193D59"></path>
                    <path d="M154.517414,137.952423 C152.055513,136.61179 150.193485,133.718359 151.353352,131.155475 C151.476447,130.880276 151.986164,131.000195 151.979229,131.283081 C151.920282,133.698373 152.419597,135.96146 154.838154,137.41125 C155.197037,137.626489 154.900568,138.161513 154.517414,137.952423" id="Fill-82" fill="#D5D2D4"></path>
                    <path d="M141.801298,128.664664 C137.224322,130.55501 132.435334,124.005152 133.054223,120.217087 C133.107226,119.892691 133.651288,119.948723 133.655965,120.273119 C133.708968,123.626198 137.288238,129.388657 141.629817,128.119088 C142.010193,128.008498 142.147377,128.521634 141.801298,128.664664" id="Fill-84" fill="#D5D2D4"></path>
                    <path d="M157.492149,70.5128254 C158.565457,68.8132703 158.082469,66.7696876 156.54827,65.4567961 C155.048795,64.1718383 153.145252,64.0483412 151.263806,63.670499 C150.861316,63.5896378 150.948127,63.0662454 151.330099,63.0294903 C155.670683,62.6104824 161.247149,66.7270517 158.057215,70.8877272 C157.829926,71.1876487 157.293272,70.8259787 157.492149,70.5128254" id="Fill-86" fill="#193D59"></path>
                    <path d="M127.524674,64.8530303 C126.004797,61.2421924 128.026018,57.447373 130.531294,55.0876097 C130.803576,54.8316353 131.145008,55.1867997 130.934674,55.5083675 C129.136753,58.2472928 126.810116,60.9414226 128.021696,64.606655 C128.126863,64.9250231 127.657213,65.1681987 127.524674,64.8530303" id="Fill-88" fill="#193D59"></path>
                    <path d="M125.336715,63.7772479 C124.337301,59.7449374 125.515763,54.3075698 129.502027,52.0491633 C129.838963,51.8584882 130.151483,52.264845 129.920349,52.5430432 C127.120686,55.9079907 125.180455,59.0963293 125.965011,63.5975132 C126.033375,63.9851151 125.437633,64.180479 125.336715,63.7772479" id="Fill-90" fill="#193D59"></path>
                    <path d="M141.560911,52.7615898 C138.798178,50.9850574 135.850131,51.8684785 133.52752,53.9244109 C133.295877,54.1279047 132.852666,53.8904953 133.048791,53.5691045 C134.875684,50.5619197 139.219769,50.3245104 141.851237,52.1817942 C142.180171,52.4127434 141.90992,52.9860789 141.560911,52.7615898" id="Fill-92" fill="#193D59"></path>
                    <path d="M153.565475,83.0924048 C154.60625,84.2465356 156.05663,85.0431067 157.689219,85.0817618 C159.148345,85.1176558 160.254716,84.4936521 161.514141,83.906923 C161.850863,83.750922 162.146769,84.1001985 161.920831,84.3818284 C159.659987,87.2229781 154.953175,85.9376961 153.055291,83.4858585 C152.83664,83.2042285 153.320586,82.8218192 153.565475,83.0924048" id="Fill-94" fill="#193D59"></path>
                    <path d="M154.321328,84.2898849 C155.487033,84.1878381 156.637963,84.0035446 157.780029,83.7339583 C158.737414,83.5100646 159.687412,83.0896927 160.664004,83.0013536 C161.009726,82.9708919 161.11758,83.4628489 160.850162,83.64105 C159.941533,84.2487616 158.72264,84.4467628 157.669221,84.6462872 C156.570001,84.85495 155.458961,84.9569968 154.344967,84.9996433 C153.897301,85.0179203 153.881049,84.3279621 154.321328,84.2898849" id="Fill-96" fill="#193D59"></path>
                    <path d="M153.67888,85.2223046 C154.339591,88.3314833 155.876393,90.8346484 157.915207,93.3378135 C158.237466,93.7363496 157.563799,94.225937 157.1881,93.885614 C154.700715,91.6436618 153.372815,88.4643287 153.001974,85.3238044 C152.95987,84.968555 153.604388,84.8640699 153.67888,85.2223046" id="Fill-98" fill="#193D59"></path>
                    <path d="M139,249.242566 C138.983209,251.155484 138.906886,253.066893 138.771031,254.976791 L138.430631,254.821282 C135.864654,255.132301 133.248304,255.037183 130.714383,254.537439 L130.445726,253.883695 C130.297659,251.920954 130.148066,249.961232 130,248 L139,249.242566 Z" id="Fill-100" fill="#FFD1B8"></path>
                    <path d="M129.401339,254.487992 C125.550241,253.896946 121.432812,255.627649 119.184297,258.778378 C119.100112,258.896587 119.015927,259.02389 119.002151,259.169378 C118.957762,259.64373 119.609816,259.824075 120.090438,259.828621 C124.09613,259.883179 128.100292,259.936222 132.107515,259.989265 C134.011635,260.013513 135.941776,260.036245 137.790792,259.58311 C138.069369,259.514912 138.358661,259.43156 138.562236,259.231513 C138.879079,258.922351 138.909692,258.432844 138.918876,257.991833 C138.944897,256.661222 138.972448,255.330611 139,254 L129.401339,254.487992 Z" id="Fill-102" fill="#5E5896"></path>
                    <path d="M163,254.243896 C162.984735,256.156536 162.908412,258.067667 162.771031,259.975779 L162.432157,259.821802 C159.86618,260.132776 157.24983,260.036162 154.714383,259.536491 L154.445726,258.884351 C154.297659,256.921894 154.149593,254.962457 154,253 L163,254.243896 Z" id="Fill-104" fill="#FFD1B8"></path>
                    <path d="M154.402005,259.487976 C150.551175,258.896949 146.432501,260.627597 144.185673,263.779739 C144.101493,263.897944 144.015783,264.025242 144.002008,264.170726 C143.959153,264.643547 144.611162,264.823886 145.091751,264.829948 C149.095634,264.884504 153.101049,264.937545 157.106463,264.989071 C159.011981,265.013318 160.940457,265.037565 162.790876,264.584445 C163.069434,264.516249 163.358705,264.431384 163.560736,264.232859 C163.879088,263.923707 163.908168,263.434216 163.917351,262.993219 C163.944901,261.662651 163.97245,260.330568 164,259 L154.402005,259.487976 Z" id="Fill-106" fill="#5E5896"></path>
                    <path d="M132.474189,145.837276 C132.630223,158.719326 132.716737,171.604457 132.735275,184.489588 C132.744545,191.144699 132.735275,197.80905 132.145127,204.439517 C131.133222,215.839916 127.963103,234.788729 125.253362,245.910356 L125,246.615758 C130.754724,248.97069 136.934292,250.289083 143.152484,250.486226 L145.577964,176.867246 C147.468912,207.31965 147.522984,219.716545 145.897757,250.182811 L146.140305,251.079194 C155.749535,254.117966 165.910291,255.413256 175.976809,254.884975 L176.879026,254.047118 C177.685459,222.240897 174.456635,190.336105 167.294514,159.332317 C165.740353,152.606359 163.943643,145.784909 160.167926,140 L132.474189,145.837276 Z" id="Fill-108" fill="#79D4ED"></path>
                    <g id="Group-114" transform="translate(126.000000, 140.000000)">
                        <path d="M42.26588,19.3875579 C40.7137657,12.6646763 38.9194229,5.84634737 35.14868,0.0640842105 L33.5240514,0.407386842 C35.6531943,5.03966316 36.9430229,10.0799 38.0939943,15.0708737 C45.24668,46.0604789 48.4697086,77.9522158 47.66588,109.742347 L46.7648514,110.578282 C38.1140514,111.033966 29.3953657,110.130295 21.0176514,107.938084 C20.9775371,108.68165 20.9389657,109.429834 20.8973086,110.196492 L21.1395371,111.092466 C30.7361086,114.129847 40.88348,115.424545 50.9367371,114.896505 L51.8377657,114.059032 C52.6431371,82.2689 49.4185657,50.3771632 42.26588,19.3875579" id="Fill-110" fill="#525468" opacity="0.329241071"></path>
                        <path d="M16.9684229,106.776705 L16.7261943,105.880732 C18.34928,75.4284026 18.2937371,63.0371789 16.4068229,32.5987053 L13.9829943,106.184008 C9.49636571,106.040837 5.03133714,105.304968 0.729851429,104.024126 C0.578651429,104.676863 0.427451429,105.318824 0.28088,105.925376 L0.0278514286,106.630455 C5.77345143,108.98585 11.94488,110.303639 18.1564229,110.500692 L18.2659657,107.155416 C17.8339657,107.0261 17.3973371,106.913718 16.9684229,106.776705" id="Fill-112" fill="#6CAAC0"></path>
                    </g>
                    <path d="M151.002471,141.428299 C151.673824,148.164353 158.076655,153.484548 164.643422,152.964923 C165.125859,152.926786 165.111808,152.268912 164.643422,152.213295 C158.011081,151.431474 153.817469,147.714647 151.859617,141.309119 C151.720662,140.854646 150.950949,140.907086 151.002471,141.428299" id="Fill-115" fill="#D5D2D4"></path>
                    <path d="M133.417917,158.994218 C138.56157,157.955598 140.444147,150.072655 139.913616,145.422185 C139.851892,144.871779 139.033316,144.846902 139.078874,145.422185 C139.441869,150.24524 137.741525,156.318371 133.168083,158.36918 C132.812436,158.529327 133.081375,159.061075 133.417917,158.994218" id="Fill-117" fill="#D5D2D4"></path>
                    <path d="M162.001399,154.404526 C164.224842,185.460609 166.280317,216.411908 167.151474,247.557365 C167.168556,248.146003 168.012667,248.149085 167.999856,247.557365 C167.392039,216.519773 165.982814,185.26491 162.784301,154.404526 C162.728786,153.874443 161.962965,153.855952 162.001399,154.404526" id="Fill-119" fill="#454545"></path>
                    <path d="M148.231185,248.538703 C156.82156,250.213049 168.263959,252.466413 176.767011,249.696737 C177.175557,249.564657 177.00403,248.997647 176.58301,249.127059 C168.16728,251.707287 156.805967,249.602013 148.401152,248.007715 C147.998844,247.930335 147.825758,248.458654 148.231185,248.538703" id="Fill-121" fill="#6CAAC0"></path>
                    <path d="M127.179167,243.687853 C131.331897,245.83432 136.15973,246.46606 140.781832,245.667308 C141.118622,245.609217 141.045473,245.067517 140.699539,245.093658 C136.027147,245.423325 131.799745,244.695734 127.471763,243.024162 C127.070968,242.870221 126.805803,243.4947 127.179167,243.687853" id="Fill-123" fill="#454545"></path>
                    <path d="M134.746011,159.298019 C135.136286,186.607466 133.428632,213.630025 128.009381,240.485363 C127.904246,241.000838 128.715062,241.22329 128.831349,240.704747 C134.698222,214.43699 137.280411,186.118071 135.387974,159.298019 C135.360893,158.905276 134.741232,158.896071 134.746011,159.298019" id="Fill-125" fill="#6CAAC0"></path>
                    <path d="M151.720634,100 C158.912573,112.020589 162.098816,126.38424 160.663222,140.31554 L158.437663,141.477773 C155.561818,143.951005 151.821513,145.268202 148.056377,145.750141 C144.289688,146.23518 140.468679,145.939198 136.695782,145.497549 C135.479019,145.356532 134.24208,145.193819 133.126197,144.690185 L133.466083,144.121466 C131.873738,136.990004 130.275184,129.807403 130.025313,122.505481 C129.778546,115.203558 131.328988,107.48788 134.983933,101.157584 L151.720634,100 Z" id="Fill-127" fill="#FDC400"></path>
                    <path d="M131.709198,148.248493 C131.888436,150.626263 128.156618,163.513623 127.438136,166.911311 L127,167 C136.580783,166.574907 146.11714,165.181885 155.419109,162.849989 C160.385674,161.602233 165.457944,159.995135 169.257167,156.566865 C173.727382,152.534595 175.864445,146.373801 175.993129,140.362859 C176.121812,134.348859 174.427481,128.43731 172.22148,122.840758 C171.049543,119.863576 169.727474,116.9445 168.367107,114.046832 C165.476327,107.887567 161.473355,100.890348 153.974485,100.043219 C144.208337,98.9391999 152.01666,119.319212 153.193193,123.091533 C154.204277,126.324077 155.38081,129.504631 156.716666,132.617904 C157.416765,134.249467 158.16129,135.859623 158.94871,137.451429 C159.788216,139.144156 162.144347,141.081542 160.594019,142.9807 C157.983585,146.178074 153.776864,146.688798 149.927087,147.072605 C143.681348,147.698012 131.709198,148.248493 131.709198,148.248493" id="Fill-129" fill="#E4AF00"></path>
                    <path d="M172.221604,123.463841 C171.04817,120.461247 169.727675,117.518798 168.365819,114.594855 C166.149163,109.83111 163.270729,104.580041 158.66891,102 C161.611684,104.802112 163.698128,108.728462 165.392406,112.372596 C166.752731,115.294997 168.073226,118.237447 169.248191,121.241582 C171.452591,126.885903 173.14687,132.849452 173.019722,138.913242 C172.891043,144.975489 170.750982,151.188868 166.282438,155.255555 C162.484865,158.711545 157.411222,160.335444 152.444812,161.592308 C144.432989,163.617169 136.246531,164.937262 128.006456,165.538706 C127.759821,166.519522 127.556079,167.350749 127.439654,167.910554 L127,168 C136.580485,167.572821 146.118076,166.166367 155.418224,163.814566 C160.384634,162.557703 165.458278,160.935346 169.255851,157.479356 C173.725927,153.411127 175.864455,147.19929 175.993134,141.1355 C176.121814,135.070168 174.426004,129.108162 172.221604,123.463841" id="Fill-131" fill="#193D59" opacity="0.33"></path>
                    <path d="M130,154.748968 C128.346566,153.354232 126.038261,152.734013 123.887869,153.106144 C123.561207,153.162115 123.228353,153.245315 122.957425,153.435919 C122.723653,153.600806 122.551808,153.838305 122.41557,154.087905 C121.517637,155.723165 122.141545,157.930237 123.646356,159.060246 C125.14807,160.191767 127.327878,160.271941 129.035497,159.459606 L130,154.748968 Z" id="Fill-133" fill="#FFD1B8"></path>
                    <path d="M159.510562,143.984479 C162.917053,143.050035 166.074798,142.986467 169.60045,143.03605 C170.062195,143.042407 170.156034,142.451227 169.710673,142.350791 C166.269923,141.57018 162.412112,142.174073 159.200745,143.357702 C158.783684,143.511536 159.080095,144.102715 159.510562,143.984479" id="Fill-135" fill="#193D59" opacity="0.33"></path>
                    <path d="M161.676846,142.849711 C162.772214,141.383224 164.21409,140.437015 165.840676,139.597635 C166.16857,139.429759 165.943769,138.90532 165.587238,139.014925 C163.708646,139.597635 162.172267,140.953129 161.064013,142.501472 C160.801983,142.869134 161.411953,143.203499 161.676846,142.849711" id="Fill-137" fill="#193D59" opacity="0.33"></path>
                    <path d="M161.57668,140.676312 C161.622079,138.578673 162.543821,136.935924 163.896169,135.633941 C164.183697,135.355863 163.815,134.844714 163.506836,135.045637 C161.803676,136.156341 160.930084,138.451689 161.004374,140.676312 C161.018131,141.107092 161.567049,141.108699 161.57668,140.676312" id="Fill-139" fill="#193D59" opacity="0.33"></path>
                    <path d="M154.975975,128.535757 C153.840425,122.545247 154.272373,117.315215 155.986665,111.472446 C156.101401,111.082099 155.443356,110.794392 155.252691,111.18785 C152.628947,116.578065 152.325234,123.103553 154.194757,128.734819 C154.349988,129.199814 155.063714,129.002308 154.975975,128.535757" id="Fill-141" fill="#193D59" opacity="0.33"></path>
                    <path d="M153.977504,123.575888 C152.385369,119.830553 151.862116,116.097382 150.805283,112.254726 C150.695124,111.853277 150.037615,111.958201 150.016961,112.347485 C149.812135,116.220554 151.495495,120.356694 153.282128,123.835918 C153.457693,124.178062 154.130693,123.933239 153.977504,123.575888" id="Fill-143" fill="#193D59" opacity="0.33"></path>
                    <path d="M148.534653,89 C147.791318,92.0886946 147.928408,95.3960025 148.926123,98.4081824 C149.191165,99.2045597 149.51409,99.9806371 149.783701,100.775453 L150,100.698938 C145.769992,104.396627 142.246763,108.942224 139.686215,114 L139.488195,113.828232 C137.343488,109.974391 135.4623,106.462523 134.079208,102.255778 L134,101.829482 C135.674029,99.0202998 136.639756,95.2117427 136.514851,91.9216115 L148.534653,89 Z" id="Fill-145" fill="#FFD1B8"></path>
                    <path d="M137.50342,92.154334 C137.50342,92.154334 140.949463,93.1770613 147,91 L136,100 C136,100 137.541812,96.8113108 137.50342,92.154334" id="Fill-147" fill="#193D59" opacity="0.0909598214"></path>
                    <path d="M5.14271516,168.47034 L27.3723745,167.489166 L29.3569452,188.755603 L9.32619642,188.755603 L5.14271516,168.47034 Z M9.91987142,192.221187 L29.688478,192.221187 L31.9012667,215.6373 L24.7632885,214.832707 C18.5628543,214.134062 13.5729002,209.72262 12.3485419,203.857076 L9.91987142,192.221187 Z M32.7293277,167.443102 L56.4161893,166.398973 L56.4161893,188.755603 L34.7185244,188.755603 L32.7293277,167.443102 Z M35.5666316,192.221187 L57.7885809,192.221187 L57.7885809,219.26411 L37.9104913,217.022305 L35.5666316,192.221187 Z M61.5202523,166.262315 L86.041343,165.1798 L82.0336512,188.755603 L61.5202523,188.755603 L61.5202523,166.262315 Z M62.542607,192.221187 L82.9203087,192.221187 L77.7175569,220.82416 L62.542607,219.204226 L62.542607,192.221187 Z M82.9203087,221.707063 L87.9950735,192.221187 L107.301076,192.221187 L99.6064313,218.021904 C98.6765975,221.142005 95.5632733,223.131991 92.1970589,222.752727 L82.9203087,221.707063 Z M87.7699396,188.755603 L91.8161817,164.957155 L115.154548,163.928382 L107.839239,188.755603 L87.7699396,188.755603 Z M101.754455,251.384874 C101.754455,255.813207 97.9379733,259.413914 93.2456277,259.413914 C88.5548242,259.413914 84.739884,255.813207 84.739884,251.384874 C84.739884,246.958077 88.5548242,243.35737 93.2456277,243.35737 C97.9379733,243.35737 101.754455,246.958077 101.754455,251.384874 Z M33.3137506,251.89619 C33.3137506,256.769812 29.1133072,260.732893 23.9506477,260.732893 C18.7864462,260.732893 14.5860028,256.769812 14.5860028,251.89619 C14.5860028,247.024103 18.7864462,243.061022 23.9506477,243.061022 C29.1133072,243.061022 33.3137506,247.024103 33.3137506,251.89619 Z M0.0895385676,168.745191 L7.81964972,205.219049 C9.46806161,212.994734 16.1835282,218.841852 24.5304446,219.767748 L89.1531252,226.943059 C89.7298381,227.006014 90.3034669,227.038259 90.8724697,227.038259 C92.1060801,227.038259 93.3119343,226.886246 94.468444,226.605253 L100.155388,237.335207 C100.183144,237.39202 100.234031,237.484149 100.14151,237.625413 C100.047447,237.768213 99.9379641,237.768213 99.8716576,237.768213 L14.4287174,237.768213 C11.889022,237.768213 9.83043467,239.710599 9.83043467,242.107487 C9.83043467,243.383473 10.4163996,244.525873 11.3446914,245.321253 C10.3778493,247.146942 9.83043467,249.206024 9.83043467,251.383339 C9.83043467,258.89185 16.3038052,265 24.2605923,265 C32.2158373,265 38.6892079,258.893385 38.6892079,251.383339 C38.6892079,249.642101 38.3376289,247.977638 37.7038616,246.446762 L79.632737,246.446762 C78.9989697,247.977638 78.6458487,249.642101 78.6458487,251.383339 C78.6458487,258.89185 85.1207613,265 93.0775483,265 C101.032793,265 107.506164,258.893385 107.506164,251.383339 C107.506164,248.929637 106.812258,246.627949 105.604862,244.637963 C106.526986,243.979241 107.330374,243.156222 107.9626,242.188868 C109.7097,239.521734 109.866986,236.257298 108.380485,233.453506 L102.207807,221.805334 C103.319599,220.45718 104.18621,218.89713 104.712036,217.158963 L121.580117,161.448577 C121.601705,161.381016 121.646423,161.321132 121.709646,161.279674 L134.952453,152.951215 C137.065011,151.621487 137.635556,148.926715 136.227698,146.933658 C134.81984,144.939066 131.964032,144.400112 129.851474,145.728304 L116.607125,154.059834 C114.776755,155.212981 113.422868,156.932722 112.782932,158.91503 C112.698122,158.913495 112.616395,158.91503 112.530042,158.919637 L4.39021282,163.55833 C3.05174553,163.616679 1.80425702,164.221659 0.977738054,165.219723 C0.151219088,166.216251 -0.174145655,167.502985 0.0895385676,168.745191 Z" id="Fill-149" fill="#5E5896"></path>
                </g>
            </g>
        </g>
    </g>
</svg>