<?xml version="1.0" encoding="UTF-8"?>
<svg width="266px" height="184px" viewBox="0 0 266 184" version="1.1" xmlns="http://www.w3.org/2000/svg" xmlns:xlink="http://www.w3.org/1999/xlink">
    <!-- Generator: Sketch 52.6 (67491) - http://www.bohemiancoding.com/sketch -->
    <title>Group</title>
    <desc>Created with Sketch.</desc>
    <g id="Symbols" stroke="none" stroke-width="1" fill="none" fill-rule="evenodd" opacity="0.200000003">
        <g id="Card" transform="translate(-15.000000, -264.000000)" fill="#A29DC1">
            <g id="Group-10-Copy-2" transform="translate(14.000000, 264.000000)">
                <g id="Group" transform="translate(-30.000000, -53.000000)">
                    <g id="Pattern" transform="translate(232.000000, 120.000000)">
                        <path d="M69.6740178,115.26255 C66.57324,115.849943 63.3861911,116.184723 60.1283422,116.240564 L2.31148889,57.6081409 C2.36655556,54.3044864 2.69407111,51.0726273 3.27594222,47.9309114 L69.6740178,115.26255 Z M85.3001022,109.79865 C82.9466578,111.037255 80.4985511,112.116314 77.9665333,113.01482 L5.49067111,39.519675 C6.37908,36.9520568 7.44055556,34.4697955 8.66460889,32.0829955 L85.3001022,109.79865 Z M97.6554889,101.016736 C95.8233422,102.728393 93.8758178,104.312414 91.8341556,105.768798 L12.6351778,25.456275 C14.0713689,23.3859068 15.6363111,21.4136591 17.3242356,19.5560182 L97.6554889,101.016736 Z M107.20772,89.3965091 C105.863044,91.5519682 104.390142,93.6119659 102.783244,95.562675 L22.7037244,14.3572295 C24.6224044,12.7280045 26.6588222,11.2314682 28.7817733,9.86815227 L107.20772,89.3965091 Z M113.739676,74.7095523 C112.974249,77.3859273 112.022907,79.9798705 110.898498,82.4810114 L35.6021733,6.12601364 C38.0660133,4.98579545 40.6239911,4.02107727 43.26352,3.24488864 L113.739676,74.7095523 Z M59.14396,0.947434091 C60.1320133,0.947434091 61.1148222,0.974025 62.0897644,1.02454773 L115.92792,55.6196727 C115.980364,56.6083227 116.003964,57.60495 116.003964,58.6071614 C116.003964,61.0708091 115.83352,63.4948364 115.540093,65.8789773 L51.9753289,1.42048636 C54.3237911,1.120275 56.7142089,0.947434091 59.14396,0.947434091 Z M74.6908533,3.14836364 C93.5910444,8.58647045 108.472942,23.677875 113.835649,42.8408795 L74.6908533,3.14836364 Z M48.6676578,115.271591 C42.9381022,114.189873 37.5127244,112.241557 32.5276178,109.557205 L8.89929778,85.5993273 C6.25190222,80.5438636 4.33348444,75.0395455 3.26650222,69.2294318 L48.6676578,115.271591 Z" id="Fill-1142"></path>
                    </g>
                    <g id="Pattern">
                        <path d="M69.6740178,115.26255 C66.57324,115.849943 63.3861911,116.184723 60.1283422,116.240564 L2.31148889,57.6081409 C2.36655556,54.3044864 2.69407111,51.0726273 3.27594222,47.9309114 L69.6740178,115.26255 Z M85.3001022,109.79865 C82.9466578,111.037255 80.4985511,112.116314 77.9665333,113.01482 L5.49067111,39.519675 C6.37908,36.9520568 7.44055556,34.4697955 8.66460889,32.0829955 L85.3001022,109.79865 Z M97.6554889,101.016736 C95.8233422,102.728393 93.8758178,104.312414 91.8341556,105.768798 L12.6351778,25.456275 C14.0713689,23.3859068 15.6363111,21.4136591 17.3242356,19.5560182 L97.6554889,101.016736 Z M107.20772,89.3965091 C105.863044,91.5519682 104.390142,93.6119659 102.783244,95.562675 L22.7037244,14.3572295 C24.6224044,12.7280045 26.6588222,11.2314682 28.7817733,9.86815227 L107.20772,89.3965091 Z M113.739676,74.7095523 C112.974249,77.3859273 112.022907,79.9798705 110.898498,82.4810114 L35.6021733,6.12601364 C38.0660133,4.98579545 40.6239911,4.02107727 43.26352,3.24488864 L113.739676,74.7095523 Z M59.14396,0.947434091 C60.1320133,0.947434091 61.1148222,0.974025 62.0897644,1.02454773 L115.92792,55.6196727 C115.980364,56.6083227 116.003964,57.60495 116.003964,58.6071614 C116.003964,61.0708091 115.83352,63.4948364 115.540093,65.8789773 L51.9753289,1.42048636 C54.3237911,1.120275 56.7142089,0.947434091 59.14396,0.947434091 Z M74.6908533,3.14836364 C93.5910444,8.58647045 108.472942,23.677875 113.835649,42.8408795 L74.6908533,3.14836364 Z M48.6676578,115.271591 C42.9381022,114.189873 37.5127244,112.241557 32.5276178,109.557205 L8.89929778,85.5993273 C6.25190222,80.5438636 4.33348444,75.0395455 3.26650222,69.2294318 L48.6676578,115.271591 Z" id="Fill-1142"></path>
                    </g>
                </g>
            </g>
        </g>
    </g>
</svg>