<?xml version="1.0" encoding="UTF-8"?>
<svg width="266px" height="200px" viewBox="0 0 266 200" version="1.1" xmlns="http://www.w3.org/2000/svg" xmlns:xlink="http://www.w3.org/1999/xlink">
    <!-- Generator: Sketch 52.6 (67491) - http://www.bohemiancoding.com/sketch -->
    <title>Pattern 1</title>
    <desc>Created with Sketch.</desc>
    <g id="Symbols" stroke="none" stroke-width="1" fill="none" fill-rule="evenodd" opacity="0.200000003">
        <g id="Card" transform="translate(-14.000000, -264.000000)" fill="#F0B5C1">
            <g id="Group-10-Copy-2" transform="translate(14.000000, 264.000000)">
                <g id="Group-4">
                    <g id="Pattern-1" transform="translate(-22.000000, -11.000000)">
                        <g id="Pattern" transform="translate(216.000000, 127.000000)">
                            <path d="M66.1312711,109.35165 C63.18816,109.90892 60.1631644,110.226532 57.0709689,110.279509 L2.19395556,54.6538773 C2.24622222,51.5196409 2.55708444,48.4535182 3.10936889,45.4729159 L66.1312711,109.35165 Z M80.9628089,104.16795 C78.7290311,105.343036 76.4054044,106.366759 74.0021333,107.219189 L5.21148444,37.493025 C6.05472,35.0570795 7.06222222,32.7021136 8.22403556,30.4377136 L80.9628089,104.16795 Z M92.6899556,95.8363909 C90.9509689,97.4602705 89.1024711,98.9630591 87.1646222,100.344757 L11.9927111,24.150825 C13.3558756,22.1866295 14.8412444,20.3155227 16.4433422,18.5531455 L92.6899556,95.8363909 Z M101.75648,84.8120727 C100.480178,86.8569955 99.0821689,88.8113523 97.5569778,90.662025 L21.5492978,13.6209614 C23.3704178,12.0752864 25.3032889,10.6554955 27.3182933,9.36209318 L101.75648,84.8120727 Z M107.956302,70.8782932 C107.229796,73.4174182 106.326827,75.8783386 105.259591,78.2512159 L33.7918933,5.81185909 C36.1304533,4.73011364 38.5583644,3.81486818 41.06368,3.07848409 L107.956302,70.8782932 Z M56.13664,0.898847727 C57.0744533,0.898847727 58.0072889,0.924075 58.9326578,0.972006818 L110.03328,52.7673818 C110.083058,53.7053318 110.105458,54.65085 110.105458,55.6016659 C110.105458,57.9389727 109.94368,60.2386909 109.665173,62.5005682 L49.3325156,1.34764091 C51.5615644,1.062825 53.8304356,0.898847727 56.13664,0.898847727 Z M70.8930133,2.98690909 C88.8321778,8.14613864 102.957369,22.463625 108.047396,40.6439114 L70.8930133,2.98690909 Z M46.1930311,109.360227 C40.7548089,108.333982 35.6052978,106.48558 30.8736711,103.938886 L8.44679111,81.2096182 C5.93400889,76.4134091 4.11313778,71.1913636 3.10040889,65.6792045 L46.1930311,109.360227 Z" id="Fill-1142"></path>
                        </g>
                        <g id="Pattern">
                            <path d="M66.1312711,109.35165 C63.18816,109.90892 60.1631644,110.226532 57.0709689,110.279509 L2.19395556,54.6538773 C2.24622222,51.5196409 2.55708444,48.4535182 3.10936889,45.4729159 L66.1312711,109.35165 Z M80.9628089,104.16795 C78.7290311,105.343036 76.4054044,106.366759 74.0021333,107.219189 L5.21148444,37.493025 C6.05472,35.0570795 7.06222222,32.7021136 8.22403556,30.4377136 L80.9628089,104.16795 Z M92.6899556,95.8363909 C90.9509689,97.4602705 89.1024711,98.9630591 87.1646222,100.344757 L11.9927111,24.150825 C13.3558756,22.1866295 14.8412444,20.3155227 16.4433422,18.5531455 L92.6899556,95.8363909 Z M101.75648,84.8120727 C100.480178,86.8569955 99.0821689,88.8113523 97.5569778,90.662025 L21.5492978,13.6209614 C23.3704178,12.0752864 25.3032889,10.6554955 27.3182933,9.36209318 L101.75648,84.8120727 Z M107.956302,70.8782932 C107.229796,73.4174182 106.326827,75.8783386 105.259591,78.2512159 L33.7918933,5.81185909 C36.1304533,4.73011364 38.5583644,3.81486818 41.06368,3.07848409 L107.956302,70.8782932 Z M56.13664,0.898847727 C57.0744533,0.898847727 58.0072889,0.924075 58.9326578,0.972006818 L110.03328,52.7673818 C110.083058,53.7053318 110.105458,54.65085 110.105458,55.6016659 C110.105458,57.9389727 109.94368,60.2386909 109.665173,62.5005682 L49.3325156,1.34764091 C51.5615644,1.062825 53.8304356,0.898847727 56.13664,0.898847727 Z M70.8930133,2.98690909 C88.8321778,8.14613864 102.957369,22.463625 108.047396,40.6439114 L70.8930133,2.98690909 Z M46.1930311,109.360227 C40.7548089,108.333982 35.6052978,106.48558 30.8736711,103.938886 L8.44679111,81.2096182 C5.93400889,76.4134091 4.11313778,71.1913636 3.10040889,65.6792045 L46.1930311,109.360227 Z" id="Fill-1142"></path>
                        </g>
                    </g>
                </g>
            </g>
        </g>
    </g>
</svg>