<?xml version="1.0" encoding="UTF-8"?>
<svg width="16px" height="16px" viewBox="0 0 16 16" version="1.1" xmlns="http://www.w3.org/2000/svg" xmlns:xlink="http://www.w3.org/1999/xlink">
    <!-- Generator: Sketch 52.6 (67491) - http://www.bohemiancoding.com/sketch -->
    <title>Icon / Cancel / Filled</title>
    <desc>Created with Sketch.</desc>
    <defs>
        <path d="M13,11.87 L11.87,13 L9,10.13 L6.13,13 L5,11.87 L7.87,9 L5,6.13 L6.13,5 L9,7.87 L11.87,5 L13,6.13 L10.13,9 L13,11.87 Z M9,1 C4.58,1 1,4.58 1,9 C1,13.42 4.58,17 9,17 C13.42,17 17,13.42 17,9 C17,4.58 13.42,1 9,1 L9,1 Z" id="path-1"></path>
    </defs>
    <g id="Page-1" stroke="none" stroke-width="1" fill="none" fill-rule="evenodd">
        <g id="Customer-Support/Returns_start" transform="translate(-883.000000, -1589.000000)">
            <g id="Group-5-Copy" transform="translate(693.000000, 1580.000000)">
                <g id="Icon-/-Cancel-/-Filled" transform="translate(189.000000, 8.000000)">
                    <mask id="mask-2" fill="white">
                        <use xlink:href="#path-1"></use>
                    </mask>
                    <g id="Mask"></g>
                    <g id="✱-/-Color-/-Icons-/-Selected-/-On-Surface-/-Inactive" mask="url(#mask-2)" fill="#000000" fill-opacity="0.54" fill-rule="evenodd">
                        <rect x="0" y="0" width="18" height="18"></rect>
                    </g>
                </g>
            </g>
        </g>
    </g>
</svg>