<?xml version="1.0" encoding="UTF-8"?>
<svg width="24px" height="24px" viewBox="0 0 24 24" version="1.1" xmlns="http://www.w3.org/2000/svg" xmlns:xlink="http://www.w3.org/1999/xlink">
    <!-- Generator: Sketch 52.6 (67491) - http://www.bohemiancoding.com/sketch -->
    <title>question-3</title>
    <desc>Created with Sketch.</desc>
    <g id="Page-1" stroke="none" stroke-width="1" fill="none" fill-rule="evenodd">
        <g id="Account/Orders" transform="translate(-823.000000, -560.000000)">
            <g id="Group" transform="translate(451.000000, 298.000000)">
                <g id="Group-4" transform="translate(0.000000, 215.000000)">
                    <g id="question-3" transform="translate(372.000000, 47.000000)">
                        <g>
                            <path d="M23.9955264,12.0025995 C23.9955264,5.37587909 18.6238791,0.00471536524 11.9978841,0.00471536524 C5.3715869,0.00471536524 0,5.37587909 0,12.0025995 C0,18.6284131 5.3715869,24 11.9978841,24 C18.6238791,24 23.9955264,18.6284131 23.9955264,12.0025995 Z" id="Fill-1" fill="#5E5995"></path>
                            <path d="M6.68457431,8.39993955 C6.68457431,7.72697229 6.9004534,7.04517884 7.33281612,6.35449874 C7.76469521,5.66375819 8.39546599,5.09156675 9.22434257,4.63816625 C10.0532191,4.18476574 11.0202317,3.95806549 12.1251385,3.95806549 C13.1523627,3.95806549 14.0591637,4.14770781 14.8455416,4.52669018 C15.6319194,4.905733 16.2392947,5.42097733 16.6681511,6.07272544 C17.0967657,6.72477582 17.3109521,7.43292695 17.3109521,8.19808564 C17.3109521,8.80026196 17.1888363,9.32826196 16.9444232,9.78142065 C16.7000101,10.2348212 16.4093501,10.6263778 16.0730479,10.9555466 C15.7363224,11.2849572 15.1324534,11.8394358 14.2610781,12.6187406 C14.0202317,12.8383073 13.8270831,13.0315164 13.6820554,13.198005 C13.5368463,13.3644937 13.4286952,13.5167758 13.3578438,13.65467 C13.2869924,13.7928665 13.2319798,13.9310025 13.1932292,14.0693804 C13.1540554,14.2072746 13.0957179,14.4500554 13.0177935,14.7971788 C12.8831637,15.5339244 12.4616826,15.9023275 11.7532292,15.9023275 C11.3848262,15.9023275 11.0747607,15.7819043 10.8235164,15.5409975 C10.5720302,15.3001511 10.4461662,14.9423879 10.4461662,14.4677683 C10.4461662,13.872665 10.5382368,13.3571184 10.7224383,12.9216725 C10.9066398,12.4857431 11.1510529,12.103194 11.4556776,11.7740252 C11.7603023,11.4446146 12.171204,11.0530579 12.6883829,10.5996574 C13.1417834,10.2029622 13.4695617,9.90371788 13.6714156,9.70186398 C13.87333,9.49994962 14.0433854,9.27512343 14.1815214,9.02696222 C14.3196574,8.77898237 14.3886348,8.51002519 14.3886348,8.21930479 C14.3886348,7.65255416 14.1779547,7.17436776 13.7564736,6.78474559 C13.334932,6.39530479 12.7910932,6.20028212 12.1251385,6.20028212 C11.3458942,6.20028212 10.7720705,6.39699748 10.4036675,6.7901864 C10.0352645,7.18331486 9.72356675,7.76239798 9.46851385,8.52749622 C9.22766751,9.32826196 8.77070025,9.72828212 8.09767254,9.72828212 C7.70097733,9.72828212 7.36612594,9.58851385 7.09360202,9.30867506 C6.82083627,9.02883627 6.68457431,8.72584383 6.68457431,8.39993955 Z M11.8703275,20.0467103 C11.4379647,20.0467103 11.0608564,19.9066398 10.7385189,19.626801 C10.4161814,19.347204 10.2548917,18.9557078 10.2548917,18.4527355 C10.2548917,18.0064081 10.4107406,17.630932 10.7224383,17.3263073 C11.034136,17.0216826 11.4167456,16.8693401 11.8701461,16.8693401 C12.3164131,16.8693401 12.6918892,17.0216826 12.9965139,17.3263073 C13.3011385,17.630932 13.4534811,18.0064081 13.4534811,18.4527355 C13.4534811,18.9486348 13.2940655,19.3382569 12.9752947,19.621602 C12.6564635,19.9050076 12.2881209,20.0467103 11.8703275,20.0467103 Z" id="Fill-2" fill="#FFFFFF"></path>
                        </g>
                    </g>
                </g>
            </g>
        </g>
    </g>
</svg>