<?xml version="1.0" encoding="UTF-8"?>
<svg width="10px" height="10px" viewBox="0 0 10 10" version="1.1" xmlns="http://www.w3.org/2000/svg" xmlns:xlink="http://www.w3.org/1999/xlink">
    <!-- Generator: Sketch 52.6 (67491) - http://www.bohemiancoding.com/sketch -->
    <title>Combined Shape</title>
    <desc>Created with Sketch.</desc>
    <g id="Symbols" stroke="none" stroke-width="1" fill="none" fill-rule="evenodd">
        <g id="remove" transform="translate(-4.000000, -4.000000)" fill="#5E5896" fill-rule="nonzero">
            <path d="M7.5,7.5 L7.5,4.5 C7.5,3.67157288 8.17157288,3 9,3 C9.82842712,3 10.5,3.67157288 10.5,4.5 L10.5,7.5 L13.5,7.5 C14.3284271,7.5 15,8.17157288 15,9 C15,9.82842712 14.3284271,10.5 13.5,10.5 L10.5,10.5 L10.5,13.5 C10.5,14.3284271 9.82842712,15 9,15 C8.17157288,15 7.5,14.3284271 7.5,13.5 L7.5,10.5 L4.5,10.5 C3.67157288,10.5 3,9.82842712 3,9 C3,8.17157288 3.67157288,7.5 4.5,7.5 L7.5,7.5 Z" id="Combined-Shape" transform="translate(9.000000, 9.000000) rotate(-45.000000) translate(-9.000000, -9.000000) "></path>
        </g>
    </g>
</svg>