<?xml version="1.0" encoding="UTF-8"?>
<svg width="45px" height="47px" viewBox="0 0 45 47" version="1.1" xmlns="http://www.w3.org/2000/svg" xmlns:xlink="http://www.w3.org/1999/xlink">
    <!-- Generator: Sketch 52.6 (67491) - http://www.bohemiancoding.com/sketch -->
    <title>shopping-bag</title>
    <desc>Created with Sketch.</desc>
    <defs>
        <polygon id="path-1" points="0.0470230548 0 36.8958242 0 36.8958242 46.9937472 0.0470230548 46.9937472"></polygon>
    </defs>
    <g id="Page-1" stroke="none" stroke-width="1" fill="none" fill-rule="evenodd">
        <g id="Account/Referral" transform="translate(-1411.000000, -368.000000)">
            <g id="Group" transform="translate(1105.000000, 229.000000)">
                <g id="Group-4" transform="translate(52.000000, 70.000000)">
                    <g id="shopping-bag" transform="translate(254.000000, 69.000000)">
                        <g>
                            <g id="Group-4" transform="translate(8.000000, 0.000000)">
                                <mask id="mask-2" fill="white">
                                    <use xlink:href="#path-1"></use>
                                </mask>
                                <g id="Clip-2"></g>
                                <path d="M1.53736599,7.6067051 C1.53736599,4.20999113 4.35469741,1.45689579 7.83013833,1.45689579 C11.3047262,1.45689579 14.121951,4.20999113 14.121951,7.6067051 L14.121951,11.4992639 L15.6127205,11.4992639 L15.6127205,7.6067051 C15.6127205,3.40525942 12.1281095,0 7.83013833,0 C3.53120749,0 0.0470230548,3.40525942 0.0470230548,7.6067051 L0.0470230548,11.4992639 L1.53736599,11.4992639 L1.53736599,7.6067051 Z" id="Fill-1" fill="#5E5896" mask="url(#mask-2)"></path>
                                <path d="M33.5687032,20.9602284 C33.488732,20.4668847 33.0526225,20.1041197 32.5416599,20.106204 L15.0591066,20.106204 C14.5481441,20.1041197 14.1116081,20.4668847 14.0316369,20.9602284 L10.7045159,44.2851508 C10.7327723,45.7909224 11.9893862,46.9983326 13.5305908,47 L34.0681499,47 C35.6105274,46.9987494 36.8671412,45.7913392 36.8958242,44.2851508 L33.5687032,20.9602284 Z M30.4478012,26.8856674 C30.4478012,30.474133 27.4718069,33.382714 23.80017,33.382714 C20.1285331,33.382714 17.1521124,30.474133 17.1521124,26.8856674 L17.1521124,23.5459579 C17.1521124,23.1438004 17.4857522,22.8177184 17.8977637,22.8177184 C18.3092421,22.8177184 18.6428818,23.1438004 18.6428818,23.5459579 L18.6428818,26.8856674 C18.6428818,29.6692971 20.9520231,31.9258182 23.80017,31.9258182 C26.648317,31.9258182 28.9574582,29.6692971 28.9574582,26.8856674 L28.9574582,23.5459579 C28.9574582,23.1438004 29.291098,22.8177184 29.7025764,22.8177184 C30.1145879,22.8177184 30.4478012,23.1438004 30.4478012,23.5459579 L30.4478012,26.8856674 Z" id="Fill-3" fill="#5E5896" mask="url(#mask-2)"></path>
                            </g>
                            <path d="M20.1937661,21.1422478 C20.3793936,19.9485901 21.4285146,19.0685536 22.6593739,19.0738115 L28,19.0738115 L27.1541652,13.1252143 C27.0507352,12.4751874 26.4782963,11.9971263 25.8070523,12.000013 L23.2051144,12.000013 L23.2051144,15.7710972 C23.2051144,16.1689488 22.8762196,16.4915395 22.4701726,16.4915395 C22.064441,16.4915395 21.7355462,16.1689488 21.7355462,15.7710972 L21.7355462,12.0004254 L9.32993472,12.0004254 L9.32993472,15.7710972 C9.32993472,16.1689488 9.0014603,16.4915395 8.59541337,16.4915395 C8.18968177,16.4915395 7.86078691,16.1689488 7.86078691,15.7710972 L7.86078691,12.0004254 L5.25853377,12.0004254 C4.58802551,11.9975387 4.01558658,12.4755997 3.91131566,13.1252143 L0,40.6500672 C0.0283801894,42.5066391 1.57016026,43.9979381 3.46332912,44 L16.9456009,44 L20.1921894,21.1543102 C20.1930303,21.1502894 20.1930303,21.1462686 20.1937661,21.1422478 Z" id="Fill-5" fill="#5E5896"></path>
                        </g>
                    </g>
                </g>
            </g>
        </g>
    </g>
</svg>